<svg width="15" height="15" viewBox="0 0 15 15" fill="none" xmlns="http://www.w3.org/2000/svg">
<path fill-rule="evenodd" clip-rule="evenodd" d="M13 7.5C13 10.5376 10.5376 13 7.5 13C4.46243 13 2 10.5376 2 7.5C2 4.46243 4.46243 2 7.5 2C10.5376 2 13 4.46243 13 7.5ZM15 7.5C15 11.6421 11.6421 15 7.5 15C3.35786 15 0 11.6421 0 7.5C0 3.35786 3.35786 0 7.5 0C11.6421 0 15 3.35786 15 7.5ZM10.6756 5.76586C10.8776 5.5032 10.8285 5.1265 10.5658 4.92446C10.3032 4.72241 9.92647 4.77155 9.72443 5.0342L7.11412 8.42761L5.19511 6.74848C4.94573 6.53027 4.56667 6.55554 4.34846 6.80493C4.13025 7.05431 4.15552 7.43337 4.40491 7.65158L6.80491 9.75158C6.92961 9.86069 7.09389 9.91338 7.2588 9.89714C7.4237 9.88091 7.57455 9.7972 7.67558 9.66586L10.6756 5.76586Z" fill="#43D2B0"/>
</svg>
