<svg width="15" height="15" viewBox="0 0 15 15" fill="none" xmlns="http://www.w3.org/2000/svg">
<path fill-rule="evenodd" clip-rule="evenodd" d="M12.9167 7.5C12.9167 10.4915 10.4915 12.9167 7.5 12.9167C4.50846 12.9167 2.08333 10.4915 2.08333 7.5C2.08333 4.50846 4.50846 2.08333 7.5 2.08333C10.4915 2.08333 12.9167 4.50846 12.9167 7.5ZM15 7.5C15 11.6421 11.6421 15 7.5 15C3.35786 15 0 11.6421 0 7.5C0 3.35786 3.35786 0 7.5 0C11.6421 0 15 3.35786 15 7.5ZM4.79999 8.925V7.5C4.79999 6.00882 6.00882 4.79999 7.5 4.79999C8.98833 4.79999 10.1954 6.00422 10.2 7.49148V8.925H4.79999ZM8.39999 9.29997C8.39997 9.79702 7.99703 10.2 7.49998 10.2C7.00387 10.2 6.60151 9.79854 6.59998 9.30279V9.29997H8.39999Z" fill="#6DB9C6"/>
</svg>
