<svg width="15" height="15" viewBox="0 0 15 15" fill="none" xmlns="http://www.w3.org/2000/svg">
<path fill-rule="evenodd" clip-rule="evenodd" d="M9.48338 1.1844L14.6898 10.5115C15.5713 12.0907 14.4694 14.0647 12.7064 14.0647H2.29363C0.530621 14.0647 -0.571255 12.0907 0.310247 10.5115L5.51662 1.1844C6.39812 -0.3948 8.60188 -0.394797 9.48338 1.1844ZM8.49169 1.77659C8.05094 0.986996 6.94906 0.986996 6.50831 1.77659L1.30194 11.1037C0.861186 11.8933 1.41212 12.8803 2.29363 12.8803H12.7064C13.5879 12.8803 14.1388 11.8933 13.6981 11.1037L8.49169 1.77659ZM6.66667 5.33405C6.66667 4.87381 7.03976 4.50071 7.5 4.50071C7.96024 4.50071 8.33333 4.87381 8.33333 5.33404V9.00142H6.66667V5.33405ZM7.5 11.2518C7.96024 11.2518 8.33333 10.8739 8.33333 10.4079C8.33333 9.94182 7.96024 9.564 7.5 9.564C7.03976 9.564 6.66667 9.94182 6.66667 10.4079C6.66667 10.8739 7.03976 11.2518 7.5 11.2518Z" fill="#FFD973"/>
</svg>
