<svg width="22" height="22" viewBox="0 0 22 22" fill="none" xmlns="http://www.w3.org/2000/svg">
<path d="M18 0H4C1.79086 0 0 1.79086 0 4V18C0 20.2091 1.79086 22 4 22H18C20.2091 22 22 20.2091 22 18V4C22 1.79086 20.2091 0 18 0Z" fill="#252849"/>
<path d="M18.8571 10.4762H3.14283C2.56425 10.4762 2.09521 10.9452 2.09521 11.5238C2.09521 12.1024 2.56425 12.5714 3.14283 12.5714H18.8571C19.4357 12.5714 19.9047 12.1024 19.9047 11.5238C19.9047 10.9452 19.4357 10.4762 18.8571 10.4762Z" fill="#FCFCFC"/>
<path d="M12.4899 14.9989C12.4037 14.999 12.3177 14.9939 12.2321 14.9838C11.7329 14.9496 11.2617 14.7404 10.9015 14.393C10.5414 14.0456 10.3153 13.5823 10.2631 13.0847L9.89843 9.73741C9.86718 9.45832 9.89166 9.1758 9.97046 8.90624C10.0493 8.63669 10.1808 8.38546 10.3575 8.16715C10.5328 7.94778 10.7498 7.76535 10.9961 7.6304C11.2423 7.49544 11.5129 7.41065 11.7921 7.38093L11.8393 7.37713C11.855 7.37442 11.8702 7.37279 11.8859 7.37116L13.9348 7.14761C14.0121 7.13939 14.0898 7.13522 14.1676 7.13513C14.6944 7.13455 15.2029 7.32894 15.595 7.68087C15.9871 8.03281 16.2351 8.51738 16.2913 9.04127C16.3262 9.36588 16.2864 9.6942 16.1747 10.001C16.0631 10.3078 15.8826 10.585 15.6472 10.8112C15.9266 10.9816 16.1631 11.214 16.3384 11.4905C16.5137 11.7669 16.6231 12.0799 16.6581 12.4054C16.7191 12.9694 16.5538 13.5346 16.1984 13.9768C15.8431 14.419 15.3267 14.7022 14.7628 14.764L12.7156 14.9892C12.6406 14.9965 12.5652 14.9998 12.4899 14.9989Z" fill="#FCFCFC"/>
<path d="M14.2735 10.2686C14.4041 10.2544 14.5306 10.2147 14.6458 10.1516C14.761 10.0885 14.8626 10.0033 14.9449 9.90091C15.0272 9.79852 15.0885 9.68093 15.1253 9.55484C15.1622 9.42876 15.1738 9.29665 15.1596 9.16608C15.1456 9.0353 15.1059 8.90857 15.0429 8.79314C14.9798 8.67771 14.8946 8.57585 14.7922 8.49339C14.6897 8.41093 14.572 8.3495 14.4457 8.31261C14.3195 8.27571 14.1872 8.26409 14.0565 8.27839L12.0076 8.5014C11.9919 8.5014 11.9767 8.50628 11.961 8.509C11.9452 8.50909 11.9294 8.50999 11.9137 8.51171C11.6501 8.54038 11.4087 8.67258 11.2425 8.87924C11.0764 9.08589 10.9991 9.35009 11.0277 9.61372L11.3923 12.961C11.4186 13.1976 11.5285 13.4171 11.7022 13.58C11.8758 13.7429 12.1018 13.8386 12.3397 13.8497C12.4231 13.8619 12.5076 13.8637 12.5914 13.8552L14.6403 13.6316C14.7708 13.6174 14.8972 13.5777 15.0124 13.5146C15.1275 13.4515 15.2291 13.3664 15.3113 13.2641C15.3936 13.1617 15.4548 13.0442 15.4916 12.9182C15.5284 12.7922 15.54 12.6601 15.5258 12.5296C15.4971 12.266 15.3649 12.0246 15.1583 11.8584C14.9516 11.6922 14.6874 11.615 14.4238 11.6436L13.2751 11.7684L13.1248 10.3907L14.2735 10.2686Z" fill="#252849"/>
<path d="M8.73296 15.2876C7.68779 15.2863 6.68582 14.8705 5.94682 14.1314C5.20783 13.3923 4.79216 12.3903 4.79102 11.3451C4.79202 10.2999 5.20764 9.29781 5.94666 8.55868C6.68569 7.81955 7.68775 7.4038 8.73296 7.40265C9.77831 7.40365 10.7806 7.81933 11.5198 8.55845C12.259 9.29758 12.6748 10.2998 12.676 11.3451C12.6747 12.3904 12.2588 13.3926 11.5196 14.1317C10.7804 14.8708 9.77827 15.2865 8.73296 15.2876Z" fill="#FCFCFC"/>
<path d="M8.73313 14.1498C7.98955 14.149 7.27667 13.8532 6.75088 13.3274C6.22509 12.8016 5.92933 12.0887 5.92847 11.3452C5.92918 10.6015 6.22489 9.88847 6.75069 9.36256C7.2765 8.83665 7.98946 8.54081 8.73313 8.53995C9.47685 8.54081 10.1899 8.83663 10.7158 9.36252C11.2416 9.88842 11.5375 10.6014 11.5383 11.3452C11.5375 12.0888 11.2416 12.8018 10.7157 13.3276C10.1898 13.8534 9.4768 14.1491 8.73313 14.1498ZM8.73313 10.3918C8.48047 10.3922 8.23829 10.4928 8.05969 10.6716C7.88108 10.8503 7.78062 11.0925 7.78034 11.3452C7.78062 11.5978 7.8811 11.8399 8.05972 12.0186C8.23834 12.1972 8.48052 12.2977 8.73313 12.2979C8.98579 12.2977 9.22802 12.1972 9.40673 12.0186C9.58544 11.84 9.68603 11.5978 9.68646 11.3452C9.68618 11.0924 9.58564 10.8501 9.40692 10.6714C9.2282 10.4926 8.98588 10.3921 8.73313 10.3918Z" fill="#252849"/>
</svg>
