<svg width="15" height="16" viewBox="0 0 15 16" fill="none" xmlns="http://www.w3.org/2000/svg">
<path d="M11.7858 4.71942L5.89293 10.6123L3.21436 7.93371" stroke="#252849" stroke-linecap="round" stroke-linejoin="round"/>
<path d="M4 1.43372H11V-0.566284H4V1.43372ZM14 4.43372V11.4337H16V4.43372H14ZM11 14.4337H4V16.4337H11V14.4337ZM1 11.4337V4.43372H-1V11.4337H1ZM4 14.4337C2.34315 14.4337 1 13.0906 1 11.4337H-1C-1 14.1951 1.23858 16.4337 4 16.4337V14.4337ZM14 11.4337C14 13.0906 12.6569 14.4337 11 14.4337V16.4337C13.7614 16.4337 16 14.1951 16 11.4337H14ZM11 1.43372C12.6569 1.43372 14 2.77686 14 4.43372H16C16 1.67229 13.7614 -0.566284 11 -0.566284V1.43372ZM4 -0.566284C1.23858 -0.566284 -1 1.67229 -1 4.43372H1C1 2.77686 2.34315 1.43372 4 1.43372V-0.566284Z" fill="#252849"/>
</svg>
