<svg width="23" height="23" viewBox="0 0 23 23" fill="none" xmlns="http://www.w3.org/2000/svg">
<path fill-rule="evenodd" clip-rule="evenodd" d="M17.25 2.3H19.55C20.465 2.3 21.3425 2.66348 21.9895 3.31048C22.6365 3.95748 23 4.835 23 5.75V19.55C23 20.465 22.6365 21.3425 21.9895 21.9895C21.3425 22.6365 20.465 23 19.55 23H3.45C2.535 23 1.65748 22.6365 1.01048 21.9895C0.363481 21.3425 0 20.465 0 19.55V5.75C0 4.835 0.363481 3.95748 1.01048 3.31048C1.65748 2.66348 2.535 2.3 3.45 2.3H5.75V1.15C5.75 0.845001 5.87116 0.552494 6.08683 0.336827C6.30249 0.12116 6.595 0 6.9 0C7.205 0 7.49751 0.12116 7.71317 0.336827C7.92884 0.552494 8.05 0.845001 8.05 1.15V2.3H14.95V1.15C14.95 0.845001 15.0712 0.552494 15.2868 0.336827C15.5025 0.12116 15.795 0 16.1 0C16.405 0 16.6975 0.12116 16.9132 0.336827C17.1288 0.552494 17.25 0.845001 17.25 1.15V2.3ZM20.3632 20.3632C20.5788 20.1475 20.7 19.855 20.7 19.55V11.5H2.3V19.55C2.3 19.855 2.42116 20.1475 2.63683 20.3632C2.85249 20.5788 3.145 20.7 3.45 20.7H19.55C19.855 20.7 20.1475 20.5788 20.3632 20.3632ZM2.3 9.2H20.7V5.75C20.7 5.445 20.5788 5.15249 20.3632 4.93683C20.1475 4.72116 19.855 4.6 19.55 4.6H17.25V5.75C17.25 6.055 17.1288 6.34751 16.9132 6.56317C16.6975 6.77884 16.405 6.9 16.1 6.9C15.795 6.9 15.5025 6.77884 15.2868 6.56317C15.0712 6.34751 14.95 6.055 14.95 5.75V4.6H8.05V5.75C8.05 6.055 7.92884 6.34751 7.71317 6.56317C7.49751 6.77884 7.205 6.9 6.9 6.9C6.595 6.9 6.30249 6.77884 6.08683 6.56317C5.87116 6.34751 5.75 6.055 5.75 5.75V4.6H3.45C3.145 4.6 2.85249 4.72116 2.63683 4.93683C2.42116 5.15249 2.3 5.445 2.3 5.75V9.2ZM16.0426 14.1129C16.4829 13.6098 16.4319 12.845 15.9288 12.4048C15.4256 11.9645 14.6609 12.0155 14.2206 12.5187L10.9364 16.2721L9.41899 14.3754C9.00135 13.8533 8.23957 13.7687 7.71752 14.1863C7.19547 14.604 7.11082 15.3658 7.52847 15.8878L9.94952 18.9141C10.1734 19.194 10.5098 19.3602 10.8681 19.3681C11.2264 19.376 11.5698 19.2248 11.8058 18.955L16.0426 14.1129Z" fill="#A0A3BD"/>
</svg>
