<svg width="14" height="15" viewBox="0 0 14 15" fill="none" xmlns="http://www.w3.org/2000/svg">
<path d="M7.30378 7.5525C5.61887 4.17 6.94221 1.1925 7.68705 0C3.81101 0.1425 0.70874 3.435 0.70874 7.4925C0.70874 7.5975 0.723203 7.7025 0.723203 7.8075C1.17155 7.605 1.65605 7.4925 2.16948 7.4925C3.3699 7.4925 4.46907 8.115 5.13436 9.105C6.34201 9.465 7.23147 10.62 7.23147 11.9925C7.23147 13.1325 6.60234 14.115 5.69841 14.625C6.40709 14.865 7.16639 15 7.94738 15C10.4784 15 12.7056 13.65 14.0001 11.61C12.2935 11.7825 8.95254 10.8825 7.30378 7.5525Z" fill="#4E4B66"/>
<path d="M4.33884 10.4924H4.20868C3.90496 9.62243 3.1095 8.99243 2.16942 8.99243C0.969008 8.99243 0 9.99743 0 11.2424C0 12.4874 0.969008 13.4924 2.16942 13.4924C2.61777 13.4924 3.97004 13.4924 4.33884 13.4924C5.1343 13.4924 5.78512 12.8174 5.78512 11.9924C5.78512 11.1674 5.1343 10.4924 4.33884 10.4924Z" fill="#4E4B66"/>
</svg>
