<svg width="18" height="17" viewBox="0 0 18 17" fill="none" xmlns="http://www.w3.org/2000/svg">
<path fill-rule="evenodd" clip-rule="evenodd" d="M13.5 1.94286H4.5V2.83333H13.5V1.94286ZM13.5 4.72222H4.5L4.5 5.82857H13.5V4.72222ZM4.5 0C3.25736 0 2.25 0.869847 2.25 1.94286V5.82857C2.25 6.90158 3.25736 7.77143 4.5 7.77143L4.5 8.74286L2.25 8.74286C1.00736 8.74286 0 9.6127 0 10.6857V11.6571C0 12.7302 1.00736 13.6 2.25 13.6H4.5V16.0286C4.5 16.5651 5.00368 17 5.625 17C6.24632 17 6.75 16.5651 6.75 16.0286V13.6H11.25V16.0286C11.25 16.5651 11.7537 17 12.375 17C12.9963 17 13.5 16.5651 13.5 16.0286V13.6H15.75C16.9926 13.6 18 12.7302 18 11.6571V10.6857C18 9.6127 16.9926 8.74286 15.75 8.74286L13.5 8.74286V7.77143C14.7426 7.77143 15.75 6.90158 15.75 5.82857V1.94286C15.75 0.869847 14.7426 0 13.5 0H4.5ZM11.25 7.77143V8.74286H6.75V7.77143H11.25ZM15.75 10.6857H2.25V11.6571H15.75V10.6857Z" fill="#6DB9C6"/>
</svg>
