<svg width="14" height="18" viewBox="0 0 14 18" fill="none" xmlns="http://www.w3.org/2000/svg">
<path d="M7 8.1C8.10457 8.1 9 7.29411 9 6.3C9 5.30589 8.10457 4.5 7 4.5C5.89543 4.5 5 5.30589 5 6.3C5 7.29411 5.89543 8.1 7 8.1Z" fill="#FFD973"/>
<path fill-rule="evenodd" clip-rule="evenodd" d="M0 6.3C0 9.7237 3.67525 14.3287 5.69963 16.6056C6.46906 17.471 7 18 7 18C7 18 7.53094 17.471 8.30037 16.6056C10.3247 14.3287 14 9.7237 14 6.3C14 2.817 10.87 0 7 0C3.13 0 0 2.817 0 6.3ZM8.84207 12.9151C8.19797 13.7743 7.5515 14.5525 7 15.1844C6.4485 14.5525 5.80203 13.7743 5.15793 12.9151C4.32069 11.7983 3.51213 10.5772 2.91896 9.38556C2.31404 8.17033 2 7.11704 2 6.3C2 3.81111 4.23457 1.8 7 1.8C9.76543 1.8 12 3.81111 12 6.3C12 7.11704 11.686 8.17033 11.081 9.38556C10.4879 10.5772 9.67931 11.7983 8.84207 12.9151Z" fill="#FFD973"/>
</svg>
