<svg width="17" height="15" viewBox="0 0 17 15" fill="none" xmlns="http://www.w3.org/2000/svg">
<path d="M17.0001 9.375C17.0001 8.85937 16.5751 8.4375 16.0556 8.4375H14.1667V10.3125H16.0556C16.5751 10.3125 17.0001 9.89062 17.0001 9.375Z" fill="#4E4B66"/>
<path d="M16.0556 12.1875H14.1667V14.0625H16.0556C16.5751 14.0625 17.0001 13.6406 17.0001 13.125C17.0001 12.6094 16.5751 12.1875 16.0556 12.1875Z" fill="#4E4B66"/>
<path d="M8.49997 9.375H6.61108V13.125H8.49997C8.49997 14.1562 9.34997 15 10.3889 15H13.2222V7.5H10.3889C9.34997 7.5 8.49997 8.34375 8.49997 9.375Z" fill="#4E4B66"/>
<path d="M1.88889 8.43749C1.88889 7.40624 2.73889 6.5625 3.77777 6.5625H5.19444C7.01721 6.5625 8.49999 5.09062 8.49999 3.28125C8.49999 1.47187 7.01721 0 5.19444 0H1.88889C1.36944 0 0.944443 0.421875 0.944443 0.937499C0.944443 1.45312 1.36944 1.875 1.88889 1.875H5.19444C5.97833 1.875 6.6111 2.50312 6.6111 3.28125C6.6111 4.05937 5.97833 4.6875 5.19444 4.6875H3.77777C1.69055 4.6875 0 6.36562 0 8.43749C0 10.5094 1.69055 12.1875 3.77777 12.1875H5.66666V10.3125H3.77777C2.73889 10.3125 1.88889 9.46874 1.88889 8.43749Z" fill="#4E4B66"/>
</svg>
