<svg width="12" height="12" viewBox="0 0 12 12" fill="none" xmlns="http://www.w3.org/2000/svg">
<path fill-rule="evenodd" clip-rule="evenodd" d="M0.34385 5.09315C0.136597 5.01286 0 4.81348 0 4.59124C0 4.37422 0.130342 4.17843 0.330573 4.09467L9.818 0.126222C11.1145 -0.416101 12.4165 0.886297 11.8735 2.18243L7.89884 11.6698C7.81506 11.8698 7.61939 12 7.40254 12C7.18012 12 6.98063 11.8632 6.90054 11.6557L5.32497 7.57401C5.16561 7.16117 4.8395 6.83469 4.42681 6.67482L0.34385 5.09315ZM2.6663 4.56295L4.90845 5.43151C5.67132 5.72704 6.27422 6.3306 6.56885 7.09387L7.43272 9.33181L10.6437 1.66723C10.6716 1.60065 10.6689 1.55777 10.6623 1.52816C10.6541 1.49121 10.6322 1.44713 10.5926 1.40755C10.553 1.36796 10.5089 1.34599 10.4719 1.33772C10.4422 1.33108 10.3992 1.3284 10.3325 1.35628L2.6663 4.56295Z" fill="#4E4B66"/>
</svg>
