<svg width="21" height="21" viewBox="0 0 21 21" fill="none" xmlns="http://www.w3.org/2000/svg">
<path fill-rule="evenodd" clip-rule="evenodd" d="M2.33333 0C2.97767 0 3.5 0.470101 3.5 1.05V3.5C4.14433 3.5 4.66667 4.02233 4.66667 4.66667V7C4.66667 7.64433 4.14433 8.16667 3.5 8.16667V19.95C3.5 20.5299 2.97767 21 2.33333 21C1.689 21 1.16667 20.5299 1.16667 19.95V8.16667C0.522334 8.16667 0 7.64433 0 7V4.66667C0 4.02233 0.522334 3.5 1.16667 3.5V1.05C1.16667 0.470101 1.689 0 2.33333 0ZM10.5 0C11.1443 0 11.6667 0.470101 11.6667 1.05V12.8333C12.311 12.8333 12.8333 13.3557 12.8333 14V16.3333C12.8333 16.9777 12.311 17.5 11.6667 17.5V19.95C11.6667 20.5299 11.1443 21 10.5 21C9.85567 21 9.33333 20.5299 9.33333 19.95L9.33333 17.5C8.689 17.5 8.16667 16.9777 8.16667 16.3333V14C8.16667 13.3557 8.689 12.8333 9.33333 12.8333L9.33333 1.05C9.33333 0.470101 9.85567 0 10.5 0ZM19.8333 1.05C19.8333 0.470101 19.311 0 18.6667 0C18.0223 0 17.5 0.470101 17.5 1.05V5.83333C16.8557 5.83333 16.3333 6.35567 16.3333 7V9.33333C16.3333 9.97767 16.8557 10.5 17.5 10.5V19.95C17.5 20.5299 18.0223 21 18.6667 21C19.311 21 19.8333 20.5299 19.8333 19.95L19.8333 10.5C20.4777 10.5 21 9.97767 21 9.33333V7C21 6.35567 20.4777 5.83333 19.8333 5.83333L19.8333 1.05Z" fill="#14142B"/>
</svg>
