<svg width="33" height="24" viewBox="0 0 33 24" fill="none" xmlns="http://www.w3.org/2000/svg">
<path d="M11.55 8.57143C11.1124 8.57143 10.6927 8.75204 10.3833 9.07353C10.0738 9.39502 9.9 9.83106 9.9 10.2857V13.7143C9.9 14.1689 10.0738 14.605 10.3833 14.9265C10.6927 15.248 11.1124 15.4286 11.55 15.4286C11.9876 15.4286 12.4073 15.248 12.7167 14.9265C13.0262 14.605 13.2 14.1689 13.2 13.7143V10.2857C13.2 9.83106 13.0262 9.39502 12.7167 9.07353C12.4073 8.75204 11.9876 8.57143 11.55 8.57143ZM31.35 10.2857C31.7876 10.2857 32.2073 10.1051 32.5167 9.78361C32.8262 9.46212 33 9.02609 33 8.57143V1.71429C33 1.25963 32.8262 0.823594 32.5167 0.502103C32.2073 0.180612 31.7876 0 31.35 0H1.65C1.21239 0 0.792709 0.180612 0.483274 0.502103C0.173839 0.823594 0 1.25963 0 1.71429V8.57143C0 9.02609 0.173839 9.46212 0.483274 9.78361C0.792709 10.1051 1.21239 10.2857 1.65 10.2857C2.08761 10.2857 2.50729 10.4663 2.81673 10.7878C3.12616 11.1093 3.3 11.5453 3.3 12C3.3 12.4547 3.12616 12.8907 2.81673 13.2122C2.50729 13.5337 2.08761 13.7143 1.65 13.7143C1.21239 13.7143 0.792709 13.8949 0.483274 14.2164C0.173839 14.5379 0 14.9739 0 15.4286V22.2857C0 22.7404 0.173839 23.1764 0.483274 23.4979C0.792709 23.8194 1.21239 24 1.65 24H31.35C31.7876 24 32.2073 23.8194 32.5167 23.4979C32.8262 23.1764 33 22.7404 33 22.2857V15.4286C33 14.9739 32.8262 14.5379 32.5167 14.2164C32.2073 13.8949 31.7876 13.7143 31.35 13.7143C30.9124 13.7143 30.4927 13.5337 30.1833 13.2122C29.8738 12.8907 29.7 12.4547 29.7 12C29.7 11.5453 29.8738 11.1093 30.1833 10.7878C30.4927 10.4663 30.9124 10.2857 31.35 10.2857ZM29.7 7.16571C28.7444 7.52606 27.9188 8.18336 27.3353 9.04828C26.7518 9.9132 26.4388 10.9438 26.4388 12C26.4388 13.0562 26.7518 14.0868 27.3353 14.9517C27.9188 15.8166 28.7444 16.4739 29.7 16.8343V20.5714H13.2C13.2 20.1168 13.0262 19.6807 12.7167 19.3592C12.4073 19.0378 11.9876 18.8571 11.55 18.8571C11.1124 18.8571 10.6927 19.0378 10.3833 19.3592C10.0738 19.6807 9.9 20.1168 9.9 20.5714H3.3V16.8343C4.2556 16.4739 5.08124 15.8166 5.66471 14.9517C6.24818 14.0868 6.56119 13.0562 6.56119 12C6.56119 10.9438 6.24818 9.9132 5.66471 9.04828C5.08124 8.18336 4.2556 7.52606 3.3 7.16571V3.42857H9.9C9.9 3.88323 10.0738 4.31926 10.3833 4.64075C10.6927 4.96224 11.1124 5.14286 11.55 5.14286C11.9876 5.14286 12.4073 4.96224 12.7167 4.64075C13.0262 4.31926 13.2 3.88323 13.2 3.42857H29.7V7.16571Z" fill="#14142B"/>
</svg>
