<svg width="26" height="24" viewBox="0 0 26 24" fill="none" xmlns="http://www.w3.org/2000/svg">
<path fill-rule="evenodd" clip-rule="evenodd" d="M12.9673 20.7002C13.1588 20.8965 13.3314 21.1086 13.484 21.3333H23.4V17.3748C22.8365 17.0881 22.3166 16.7074 21.8634 16.2426C20.7663 15.1174 20.15 13.5913 20.15 12C20.15 10.4087 20.7663 8.88258 21.8634 7.75736C22.3166 7.29255 22.8365 6.91189 23.4 6.62516V2.66667H13.484C13.3314 2.89145 13.1588 3.10349 12.9673 3.29983C12.7028 3.57116 12.409 3.80562 12.0936 4C12.409 4.19438 12.7028 4.42884 12.9673 4.70017C13.8206 5.57534 14.3 6.76232 14.3 8C14.3 9.23768 13.8206 10.4247 12.9673 11.2998C12.7028 11.5712 12.409 11.8056 12.0936 12C12.409 12.1944 12.7028 12.4288 12.9673 12.7002C13.8206 13.5753 14.3 14.7623 14.3 16C14.3 17.2377 13.8206 18.4247 12.9673 19.2998C12.7028 19.5712 12.409 19.8056 12.0936 20C12.409 20.1944 12.7028 20.4288 12.9673 20.7002ZM7.40637 20C7.09097 20.1944 6.79721 20.4288 6.53266 20.7002C6.34123 20.8965 6.16861 21.1086 6.01601 21.3333H2.6V2.66667H6.01601C6.16861 2.89145 6.34123 3.10349 6.53266 3.29983C6.7972 3.57116 7.09097 3.80562 7.40636 4C7.09097 4.19438 6.7972 4.42884 6.53266 4.70017C5.67937 5.57534 5.2 6.76232 5.2 8C5.2 9.23768 5.67937 10.4247 6.53266 11.2998C6.79721 11.5712 7.09097 11.8056 7.40637 12C7.09097 12.1944 6.79721 12.4288 6.53266 12.7002C5.67937 13.5753 5.2 14.7623 5.2 16C5.2 17.2377 5.67937 18.4247 6.53266 19.2998C6.79721 19.5712 7.09097 19.8056 7.40637 20ZM11.7 0H24.7C25.0448 0 25.3754 0.140476 25.6192 0.390524C25.863 0.640573 26 0.979711 26 1.33333V8.66667C25.138 8.66667 24.3114 9.01786 23.7019 9.64298C23.0924 10.2681 22.75 11.1159 22.75 12C22.75 12.8841 23.0924 13.7319 23.7019 14.357C24.3114 14.9821 25.138 15.3333 26 15.3333V22.6667C26 23.0203 25.863 23.3594 25.6192 23.6095C25.3754 23.8595 25.0448 24 24.7 24H11.7C11.7 23.4696 11.4946 22.9609 11.1289 22.5858C10.7632 22.2107 10.2672 22 9.75 22C9.23283 22 8.73684 22.2107 8.37114 22.5858C8.00545 22.9609 7.8 23.4696 7.8 24H1.3C0.955219 24 0.624558 23.8595 0.380761 23.6095C0.136964 23.3594 0 23.0203 0 22.6667V1.33333C0 0.979711 0.136964 0.640573 0.380761 0.390524C0.624558 0.140476 0.955219 0 1.3 0H7.8C7.8 0.530433 8.00545 1.03914 8.37114 1.41421C8.73684 1.78929 9.23283 2 9.75 2C10.2672 2 10.7632 1.78929 11.1289 1.41421C11.4946 1.03914 11.7 0.530433 11.7 0ZM11.1289 9.41421C10.7632 9.78929 10.2672 10 9.75 10C9.23283 10 8.73684 9.78929 8.37114 9.41421C8.00545 9.03914 7.8 8.53043 7.8 8C7.8 7.46957 8.00545 6.96086 8.37114 6.58579C8.73684 6.21071 9.23283 6 9.75 6C10.2672 6 10.7632 6.21071 11.1289 6.58579C11.4946 6.96086 11.7 7.46957 11.7 8C11.7 8.53043 11.4946 9.03914 11.1289 9.41421ZM11.1289 17.4142C10.7632 17.7893 10.2672 18 9.75 18C9.23283 18 8.73684 17.7893 8.37114 17.4142C8.00545 17.0391 7.8 16.5304 7.8 16C7.8 15.4696 8.00545 14.9609 8.37114 14.5858C8.73684 14.2107 9.23283 14 9.75 14C10.2672 14 10.7632 14.2107 11.1289 14.5858C11.4946 14.9609 11.7 15.4696 11.7 16C11.7 16.5304 11.4946 17.0391 11.1289 17.4142Z" fill="#14142B"/>
</svg>
