<svg width="27" height="24" viewBox="0 0 27 24" fill="none" xmlns="http://www.w3.org/2000/svg">
<path d="M25.947 12C26.619 11.2698 26.994 10.3201 27 9.33333C27 8.27247 26.5733 7.25505 25.8138 6.50491C25.0543 5.75476 24.0241 5.33333 22.95 5.33333H15.957C16.1727 4.7309 16.239 4.08621 16.1506 3.45324C16.0622 2.82026 15.8215 2.21742 15.4487 1.69518C15.0759 1.17294 14.5819 0.746503 14.008 0.451571C13.4341 0.156639 12.797 0.00179402 12.15 0H4.05C2.97587 0 1.94574 0.421427 1.18622 1.17157C0.426695 1.92172 0 2.93913 0 4C0.00595433 4.98674 0.380985 5.93648 1.053 6.66667C0.388861 7.40003 0.0216918 8.34942 0.0216918 9.33333C0.0216918 10.3172 0.388861 11.2666 1.053 12C0.388861 12.7334 0.0216918 13.6828 0.0216918 14.6667C0.0216918 15.6506 0.388861 16.6 1.053 17.3333C0.380985 18.0635 0.00595433 19.0133 0 20C0 21.0609 0.426695 22.0783 1.18622 22.8284C1.94574 23.5786 2.97587 24 4.05 24H22.95C23.73 23.9959 24.4922 23.7694 25.145 23.3478C25.7977 22.9262 26.3134 22.3273 26.6299 21.6233C26.9464 20.9192 27.0504 20.1398 26.9292 19.3788C26.8081 18.6178 26.467 17.9075 25.947 17.3333C26.6111 16.6 26.9783 15.6506 26.9783 14.6667C26.9783 13.6828 26.6111 12.7334 25.947 12ZM12.15 21.3333H4.05C3.69196 21.3333 3.34858 21.1929 3.09541 20.9428C2.84223 20.6928 2.7 20.3536 2.7 20C2.7 19.6464 2.84223 19.3072 3.09541 19.0572C3.34858 18.8071 3.69196 18.6667 4.05 18.6667H12.15C12.508 18.6667 12.8514 18.8071 13.1046 19.0572C13.3578 19.3072 13.5 19.6464 13.5 20C13.5 20.3536 13.3578 20.6928 13.1046 20.9428C12.8514 21.1929 12.508 21.3333 12.15 21.3333ZM12.15 16H4.05C3.69196 16 3.34858 15.8595 3.09541 15.6095C2.84223 15.3594 2.7 15.0203 2.7 14.6667C2.7 14.313 2.84223 13.9739 3.09541 13.7239C3.34858 13.4738 3.69196 13.3333 4.05 13.3333H12.15C12.508 13.3333 12.8514 13.4738 13.1046 13.7239C13.3578 13.9739 13.5 14.313 13.5 14.6667C13.5 15.0203 13.3578 15.3594 13.1046 15.6095C12.8514 15.8595 12.508 16 12.15 16ZM12.15 10.6667H4.05C3.69196 10.6667 3.34858 10.5262 3.09541 10.2761C2.84223 10.0261 2.7 9.68696 2.7 9.33333C2.7 8.97971 2.84223 8.64057 3.09541 8.39052C3.34858 8.14048 3.69196 8 4.05 8H12.15C12.508 8 12.8514 8.14048 13.1046 8.39052C13.3578 8.64057 13.5 8.97971 13.5 9.33333C13.5 9.68696 13.3578 10.0261 13.1046 10.2761C12.8514 10.5262 12.508 10.6667 12.15 10.6667ZM12.15 5.33333H4.05C3.69196 5.33333 3.34858 5.19286 3.09541 4.94281C2.84223 4.69276 2.7 4.35362 2.7 4C2.7 3.64638 2.84223 3.30724 3.09541 3.05719C3.34858 2.80714 3.69196 2.66667 4.05 2.66667H12.15C12.508 2.66667 12.8514 2.80714 13.1046 3.05719C13.3578 3.30724 13.5 3.64638 13.5 4C13.5 4.35362 13.3578 4.69276 13.1046 4.94281C12.8514 5.19286 12.508 5.33333 12.15 5.33333ZM23.8815 20.9467C23.7618 21.0713 23.6172 21.1701 23.4569 21.2366C23.2965 21.3032 23.1239 21.3361 22.95 21.3333H15.957C16.2807 20.4732 16.2807 19.5268 15.957 18.6667H22.95C23.308 18.6667 23.6514 18.8071 23.9046 19.0572C24.1578 19.3072 24.3 19.6464 24.3 20C24.2975 20.1774 24.2592 20.3524 24.1873 20.515C24.1155 20.6775 24.0115 20.8243 23.8815 20.9467ZM23.8815 15.6133C23.7618 15.738 23.6172 15.8367 23.4569 15.9033C23.2965 15.9699 23.1239 16.0028 22.95 16H15.957C16.2807 15.1399 16.2807 14.1935 15.957 13.3333H22.95C23.308 13.3333 23.6514 13.4738 23.9046 13.7239C24.1578 13.9739 24.3 14.313 24.3 14.6667C24.2975 14.844 24.2592 15.0191 24.1873 15.1817C24.1155 15.3442 24.0115 15.491 23.8815 15.6133ZM23.8815 10.28C23.7618 10.4047 23.6172 10.5034 23.4569 10.57C23.2965 10.6365 23.1239 10.6695 22.95 10.6667H15.957C16.2807 9.80653 16.2807 8.86014 15.957 8H22.95C23.308 8 23.6514 8.14048 23.9046 8.39052C24.1578 8.64057 24.3 8.97971 24.3 9.33333C24.2975 9.51069 24.2592 9.68577 24.1873 9.84832C24.1155 10.0109 24.0115 10.1576 23.8815 10.28Z" fill="#14142B"/>
</svg>
