<svg width="18" height="18" viewBox="0 0 18 18" fill="none" xmlns="http://www.w3.org/2000/svg">
<path fill-rule="evenodd" clip-rule="evenodd" d="M16.3636 9C16.3636 13.0668 13.0668 16.3636 9 16.3636C4.93318 16.3636 1.63636 13.0668 1.63636 9C1.63636 4.93318 4.93318 1.63636 9 1.63636C13.0668 1.63636 16.3636 4.93318 16.3636 9ZM18 9C18 13.9706 13.9706 18 9 18C4.02944 18 0 13.9706 0 9C0 4.02944 4.02944 0 9 0C13.9706 0 18 4.02944 18 9ZM12.4422 5.14873C12.7617 5.46825 12.7617 5.98629 12.4422 6.30581L9.95254 8.79545L12.4422 11.2851C12.7617 11.6046 12.7617 12.1227 12.4422 12.4422C12.1227 12.7617 11.6046 12.7617 11.2851 12.4422L8.79545 9.95254L6.30581 12.4422C5.98629 12.7617 5.46825 12.7617 5.14873 12.4422C4.82921 12.1227 4.82921 11.6046 5.14873 11.2851L7.63837 8.79545L5.14873 6.30581C4.82921 5.98629 4.82921 5.46825 5.14873 5.14873C5.46825 4.82921 5.9863 4.82921 6.30582 5.14873L8.79545 7.63837L11.2851 5.14873C11.6046 4.82921 12.1227 4.82921 12.4422 5.14873Z" fill="#4E4B66"/>
</svg>
