<svg width="19" height="23" viewBox="0 0 19 23" fill="none" xmlns="http://www.w3.org/2000/svg">
<path fill-rule="evenodd" clip-rule="evenodd" d="M18.7243 2.19948C19.1869 1.58624 19.0537 0.722255 18.4269 0.269706C17.8001 -0.182843 16.9169 -0.0525805 16.4543 0.560655L7.59814 12.3008C6.98883 12.0805 6.32999 11.9602 5.64244 11.9602C2.52621 11.9602 0 14.4315 0 17.4801C0 20.5287 2.52621 23 5.64244 23C8.75867 23 11.2849 20.5287 11.2849 17.4801C11.2849 16.1026 10.7691 14.843 9.91619 13.8759L12.1732 10.8839L14.66 12.8787C15.2624 13.362 16.1513 13.276 16.6452 12.6866C17.1392 12.0973 17.0513 11.2278 16.4489 10.7445L13.8506 8.66029L15 7.13655L16.5912 8.0754C17.2583 8.46903 18.1252 8.25907 18.5276 7.60645C18.93 6.95383 18.7154 6.10568 18.0483 5.71205L16.6825 4.90619L18.7243 2.19948ZM8.46366 17.4801C8.46366 19.0044 7.20056 20.24 5.64244 20.24C4.08432 20.24 2.82122 19.0044 2.82122 17.4801C2.82122 15.9558 4.08432 14.7201 5.64244 14.7201C7.20056 14.7201 8.46366 15.9558 8.46366 17.4801Z" fill="#4E4B66"/>
</svg>
