<svg width="8" height="12" viewBox="0 0 8 12" fill="none" xmlns="http://www.w3.org/2000/svg">
<path d="M4 5.4C4.63118 5.4 5.14286 4.86274 5.14286 4.2C5.14286 3.53726 4.63118 3 4 3C3.36882 3 2.85714 3.53726 2.85714 4.2C2.85714 4.86274 3.36882 5.4 4 5.4Z" fill="#14142B"/>
<path fill-rule="evenodd" clip-rule="evenodd" d="M0 4.2C0 6.48247 2.10014 9.5525 3.25693 11.0704C3.69661 11.6473 4 12 4 12C4 12 4.30339 11.6473 4.74307 11.0704C5.89986 9.5525 8 6.48247 8 4.2C8 1.878 6.21143 0 4 0C1.78857 0 0 1.878 0 4.2ZM5.05261 8.61009C4.68455 9.18288 4.31514 9.70165 4 10.1229C3.68486 9.70165 3.31545 9.18288 2.94739 8.61009C2.46897 7.86555 2.00693 7.05147 1.66798 6.25704C1.32231 5.44689 1.14286 4.7447 1.14286 4.2C1.14286 2.54074 2.41975 1.2 4 1.2C5.58025 1.2 6.85714 2.54074 6.85714 4.2C6.85714 4.7447 6.67769 5.44689 6.33203 6.25704C5.99307 7.05147 5.53103 7.86555 5.05261 8.61009Z" fill="#14142B"/>
</svg>

