<svg width="81" height="91" viewBox="0 0 81 91" fill="none" xmlns="http://www.w3.org/2000/svg">
<mask id="path-1-inside-1_776_9628" fill="white">
<path fill-rule="evenodd" clip-rule="evenodd" d="M47.9649 80.9341C66.7665 77.4308 81 60.9379 81 41.1206C81 18.7531 62.8675 0.620605 40.5 0.620605C18.1325 0.620605 0 18.7531 0 41.1206C0 61.5295 15.096 78.4126 34.7309 81.2128L39.5354 89.5344C40.3052 90.8678 42.2297 90.8678 42.9995 89.5344L47.9649 80.9341Z"/>
</mask>
<path fill-rule="evenodd" clip-rule="evenodd" d="M47.9649 80.9341C66.7665 77.4308 81 60.9379 81 41.1206C81 18.7531 62.8675 0.620605 40.5 0.620605C18.1325 0.620605 0 18.7531 0 41.1206C0 61.5295 15.096 78.4126 34.7309 81.2128L39.5354 89.5344C40.3052 90.8678 42.2297 90.8678 42.9995 89.5344L47.9649 80.9341Z" fill="#43D2B0"/>
<path d="M47.9649 80.9341L47.2322 77.0018C46.0831 77.2159 45.0852 77.9218 44.5008 78.9341L47.9649 80.9341ZM34.7309 81.2128L38.195 79.2128C37.5808 78.149 36.5118 77.4263 35.2957 77.2529L34.7309 81.2128ZM39.5354 89.5344L36.0713 91.5344L39.5354 89.5344ZM42.9995 89.5344L46.4636 91.5344H46.4636L42.9995 89.5344ZM77 41.1206C77 58.9763 64.1745 73.845 47.2322 77.0018L48.6976 84.8664C69.3585 81.0167 85 62.8995 85 41.1206H77ZM40.5 4.62061C60.6584 4.62061 77 20.9622 77 41.1206H85C85 16.5439 65.0767 -3.37939 40.5 -3.37939V4.62061ZM4 41.1206C4 20.9622 20.3416 4.62061 40.5 4.62061V-3.37939C15.9233 -3.37939 -4 16.5439 -4 41.1206H4ZM35.2957 77.2529C17.6037 74.7298 4 59.5104 4 41.1206H-4C-4 63.5486 12.5882 82.0954 34.1662 85.1728L35.2957 77.2529ZM42.9995 87.5344L38.195 79.2128L31.2668 83.2128L36.0713 91.5344L42.9995 87.5344ZM39.5354 87.5344C40.3052 86.2011 42.2297 86.2011 42.9995 87.5344L36.0713 91.5344C38.3807 95.5344 44.1542 95.5344 46.4636 91.5344L39.5354 87.5344ZM44.5008 78.9341L39.5354 87.5344L46.4636 91.5344L51.429 82.9341L44.5008 78.9341Z" fill="#252849" mask="url(#path-1-inside-1_776_9628)"/>
<path fill-rule="evenodd" clip-rule="evenodd" d="M42.1961 55.9432C42.5011 55.9809 42.808 55.9998 43.1151 56C43.3839 56.0001 43.6524 55.9855 43.9196 55.9563L51.2338 55.1446C52.8148 54.9634 54.3013 54.2786 55.4856 53.186C56.67 52.0933 57.4931 50.6474 57.8399 49.0501C58.1867 47.4527 58.0399 45.7839 57.4201 44.2765C56.8002 42.7692 55.7383 41.4987 54.3825 40.6425C55.4817 39.5588 56.2403 38.1612 56.5607 36.63C56.8811 35.0987 56.7485 33.5038 56.1801 32.0507C55.6117 30.5976 54.6334 29.3529 53.3713 28.4769C52.1093 27.6009 50.6212 27.1337 49.0988 27.1355C48.8215 27.1357 48.5445 27.1513 48.2688 27.1821L40.9603 28.0011L40.7935 28.0229L40.6252 28.0389C39.6297 28.1503 38.6651 28.4625 37.7868 28.9575C36.9085 29.4526 36.1336 30.1208 35.5064 30.9241C34.8792 31.7273 34.4119 32.6498 34.1313 33.6389C33.8507 34.628 33.7623 35.6643 33.871 36.6886L35.1718 48.9722C35.3575 50.7991 36.1638 52.5 37.4488 53.7752C38.7337 55.0505 40.4149 55.8182 42.1961 55.9432ZM51.8748 37.281C51.2822 38.0397 50.421 38.5251 49.4805 38.6305L45.3816 39.0888L45.9161 44.1453L50.0164 43.6871C50.9569 43.5819 51.8994 43.8653 52.6368 44.475C53.3742 45.0847 53.846 45.9708 53.9485 46.9384C54.0508 47.906 53.7753 48.8758 53.1827 49.6345C52.5901 50.3931 51.7288 50.8786 50.7884 50.984L43.4799 51.803C43.181 51.8356 42.8793 51.8288 42.5821 51.7826C41.7335 51.742 40.9269 51.3907 40.3078 50.7921C39.6887 50.1936 39.2978 49.3871 39.2057 48.5182L37.9049 36.2346C37.8026 35.2668 38.078 34.2969 38.6706 33.538C39.2632 32.7791 40.1244 32.2933 41.065 32.1876C41.0944 32.1823 41.1238 32.1821 41.153 32.1819C41.18 32.1818 41.2068 32.1816 41.2332 32.1774C41.2514 32.1745 41.2696 32.1707 41.2878 32.1669C41.3249 32.1591 41.3622 32.1512 41.4001 32.1512L48.7085 31.3322C49.1743 31.2799 49.6456 31.3226 50.0954 31.4578C50.5452 31.593 50.9646 31.818 51.3298 32.1201C51.695 32.4222 51.9987 32.7954 52.2236 33.2183C52.4485 33.6413 52.5902 34.1057 52.6406 34.585C52.7429 35.5526 52.4675 36.5224 51.8748 37.281Z" fill="#252849"/>
<path fill-rule="evenodd" clip-rule="evenodd" d="M16.2515 53.5022C18.5645 55.092 21.2838 55.9404 24.0655 55.9401C27.794 55.9355 31.3685 54.4094 34.0048 51.6967C36.6412 48.984 38.1241 45.3062 38.1282 41.4701C38.1282 38.6081 37.3033 35.8104 35.7578 33.4308C34.2124 31.0512 32.0158 29.1965 29.4459 28.1013C26.8759 27.0062 24.048 26.7197 21.3198 27.2782C18.5916 27.8366 16.0856 29.2149 14.1188 31.2387C12.1519 33.2625 10.8126 35.841 10.2701 38.648C9.72757 41.455 10.0063 44.3645 11.071 47.0085C12.1357 49.6525 13.9385 51.9124 16.2515 53.5022ZM18.5075 50.0283C20.1526 51.1596 22.0868 51.7635 24.0655 51.7638C26.7183 51.7611 29.2616 50.6758 31.1376 48.746C33.0135 46.8162 34.0687 44.1996 34.0717 41.4702C34.0717 39.4344 33.485 37.4443 32.3857 35.7516C31.2864 34.0589 29.724 32.7395 27.8959 31.9604C26.0679 31.1812 24.0563 30.9773 22.1156 31.3744C20.1749 31.7714 18.3922 32.7516 16.993 34.1911C15.5937 35.6305 14.6407 37.4645 14.2545 39.4612C13.8683 41.4578 14.0663 43.5275 14.8233 45.4084C15.5803 47.2893 16.8624 48.8971 18.5075 50.0283ZM22.1763 38.5613C22.7355 38.1768 23.393 37.9717 24.0655 37.9717C24.967 37.9728 25.8313 38.3418 26.4687 38.9976C27.1062 39.6535 27.4648 40.5427 27.4659 41.4702C27.4659 42.1622 27.2665 42.8386 26.8929 43.414C26.5192 43.9893 25.9881 44.4377 25.3668 44.7025C24.7454 44.9673 24.0617 45.0366 23.4021 44.9016C22.7425 44.7666 22.1366 44.4334 21.661 43.9441C21.1855 43.4548 20.8616 42.8314 20.7304 42.1528C20.5992 41.4741 20.6665 40.7707 20.9239 40.1314C21.1813 39.4921 21.6171 38.9457 22.1763 38.5613Z" fill="#252849"/>
<path fill-rule="evenodd" clip-rule="evenodd" d="M61.8745 46.4564C62.8392 47.1196 63.9734 47.4736 65.1336 47.4736C66.6889 47.4716 68.1799 46.8351 69.2797 45.7037C70.3794 44.5722 70.9981 43.0381 70.9999 41.438C70.9999 40.2442 70.6559 39.0773 70.0113 38.0848C69.3667 37.0922 68.4505 36.3186 67.3786 35.8618C66.3066 35.405 65.1271 35.2854 63.9892 35.5183C62.8512 35.7512 61.806 36.326 60.9855 37.1701C60.1651 38.0142 59.6064 39.0897 59.3801 40.2605C59.1537 41.4313 59.2699 42.6448 59.7139 43.7477C60.1579 44.8506 60.9098 45.7932 61.8745 46.4564ZM66.9419 41.4364C66.9419 42.464 66.1323 43.297 65.1336 43.297C64.1348 43.297 63.3252 42.464 63.3252 41.4364C63.3252 40.4088 64.1348 39.5758 65.1336 39.5758C66.1323 39.5758 66.9419 40.4088 66.9419 41.4364Z" fill="#252849"/>
</svg>
