<svg width="33" height="37" viewBox="0 0 33 37" fill="none" xmlns="http://www.w3.org/2000/svg">
<path fill-rule="evenodd" clip-rule="evenodd" d="M19.5413 32.7203C27.2012 31.2931 33 24.5737 33 16.5C33 7.3873 25.6127 0 16.5 0C7.3873 0 0 7.3873 0 16.5C0 24.8147 6.15021 31.693 14.1496 32.8339L16.107 36.2242C16.4206 36.7674 17.2047 36.7674 17.5183 36.2242L19.5413 32.7203Z" fill="#43D2B0"/>
<path fill-rule="evenodd" clip-rule="evenodd" d="M18.1299 31.9055C18.368 31.4931 18.7746 31.2055 19.2427 31.1183C26.1452 29.8321 31.3704 23.7745 31.3704 16.5C31.3704 8.28732 24.7127 1.62963 16.5 1.62963C8.28732 1.62963 1.62963 8.28732 1.62963 16.5C1.62963 23.9921 7.17188 30.1926 14.3797 31.2206C14.8752 31.2912 15.3107 31.5856 15.5609 32.0191L16.8127 34.1871L18.1299 31.9055ZM19.5413 32.7203L17.5183 36.2242C17.2047 36.7674 16.4206 36.7674 16.107 36.2242L14.1496 32.8339C6.15021 31.693 0 24.8147 0 16.5C0 7.3873 7.3873 0 16.5 0C25.6127 0 33 7.3873 33 16.5C33 24.5737 27.2012 31.2931 19.5413 32.7203Z" fill="#252849"/>
<path fill-rule="evenodd" clip-rule="evenodd" d="M17.1908 22.5387C17.3151 22.5541 17.4401 22.5618 17.5653 22.5618C17.6747 22.5619 17.7841 22.5559 17.893 22.5441L20.8728 22.2134C21.517 22.1395 22.1226 21.8606 22.6051 21.4154C23.0876 20.9703 23.4229 20.3812 23.5642 19.7304C23.7055 19.0796 23.6457 18.3997 23.3932 17.7856C23.1407 17.1715 22.708 16.6539 22.1557 16.3051C22.6035 15.8636 22.9126 15.2942 23.0431 14.6704C23.1736 14.0465 23.1196 13.3967 22.888 12.8047C22.6564 12.2127 22.2579 11.7056 21.7437 11.3487C21.2295 10.9918 20.6233 10.8015 20.003 10.8022C19.8901 10.8023 19.7772 10.8087 19.6649 10.8212L16.6874 11.1549L16.6194 11.1638L16.5509 11.1703C16.1452 11.2157 15.7523 11.3429 15.3945 11.5445C15.0366 11.7462 14.7209 12.0185 14.4654 12.3457C14.2099 12.673 14.0195 13.0488 13.9052 13.4518C13.7909 13.8548 13.7548 14.277 13.7991 14.6943L14.3291 19.6987C14.4047 20.443 14.7332 21.1359 15.2567 21.6555C15.7802 22.175 16.4652 22.4878 17.1908 22.5387ZM21.134 14.9356C20.8926 15.2447 20.5417 15.4425 20.1585 15.4854L18.4886 15.6721L18.7064 17.7322L20.3769 17.5455C20.76 17.5026 21.144 17.6181 21.4444 17.8665C21.7449 18.1149 21.9371 18.4759 21.9788 18.8701C22.0205 19.2643 21.9083 19.6594 21.6668 19.9685C21.4254 20.2776 21.0745 20.4753 20.6914 20.5183L17.7139 20.8519C17.5921 20.8653 17.4692 20.8625 17.3481 20.8436C17.0023 20.8271 16.6737 20.684 16.4215 20.4401C16.1693 20.1963 16.01 19.8677 15.9725 19.5137L15.4426 14.5093C15.4009 14.115 15.5131 13.7198 15.7545 13.4107C15.9959 13.1015 16.3468 12.9036 16.73 12.8605C16.742 12.8583 16.754 12.8583 16.7659 12.8582C16.7768 12.8581 16.7878 12.8581 16.7985 12.8564C16.806 12.8552 16.8134 12.8536 16.8208 12.8521C16.8359 12.8489 16.8511 12.8457 16.8665 12.8457L19.844 12.512C20.0338 12.4907 20.2258 12.5081 20.409 12.5632C20.5923 12.6183 20.7632 12.7099 20.912 12.833C21.0607 12.9561 21.1845 13.1081 21.2761 13.2804C21.3677 13.4527 21.4255 13.6419 21.446 13.8372C21.4877 14.2314 21.3754 14.6265 21.134 14.9356Z" fill="#252849"/>
<path fill-rule="evenodd" clip-rule="evenodd" d="M6.62089 21.5443C7.56323 22.192 8.67109 22.5376 9.80436 22.5375C11.3234 22.5356 12.7797 21.9139 13.8537 20.8087C14.9278 19.7035 15.5319 18.2052 15.5336 16.6423C15.5336 15.4763 15.1975 14.3365 14.5679 13.367C13.9383 12.3975 13.0434 11.6419 11.9964 11.1958C10.9493 10.7496 9.79723 10.6329 8.68574 10.8604C7.57425 11.0879 6.5533 11.6494 5.752 12.4739C4.95069 13.2985 4.40502 14.3489 4.184 15.4925C3.96298 16.6361 4.07653 17.8215 4.5103 18.8987C4.94406 19.9759 5.67856 20.8965 6.62089 21.5443ZM7.54001 20.1289C8.21023 20.5898 8.99823 20.8359 9.80437 20.836C10.8851 20.8349 11.9213 20.3927 12.6856 19.6065C13.4498 18.8203 13.8798 17.7543 13.881 16.6423C13.881 15.8129 13.6419 15.0021 13.1941 14.3125C12.7462 13.6229 12.1097 13.0854 11.3649 12.7679C10.6201 12.4505 9.80062 12.3674 9.00996 12.5292C8.21931 12.6909 7.49303 13.0903 6.92297 13.6767C6.3529 14.2632 5.96465 15.0104 5.80731 15.8238C5.64997 16.6373 5.73061 17.4805 6.03903 18.2468C6.34744 19.0131 6.86979 19.6681 7.54001 20.1289ZM9.0347 15.4572C9.26253 15.3006 9.53037 15.217 9.80437 15.217C10.1717 15.2174 10.5238 15.3678 10.7835 15.635C11.0432 15.9022 11.1893 16.2644 11.1897 16.6423C11.1897 16.9242 11.1085 17.1998 10.9563 17.4342C10.804 17.6686 10.5877 17.8513 10.3345 17.9592C10.0814 18.0671 9.80283 18.0953 9.5341 18.0403C9.26537 17.9853 9.01852 17.8495 8.82477 17.6502C8.63102 17.4509 8.49908 17.1969 8.44563 16.9204C8.39217 16.6439 8.41961 16.3573 8.52446 16.0969C8.62931 15.8364 8.80688 15.6138 9.0347 15.4572Z" fill="#252849"/>
<path fill-rule="evenodd" clip-rule="evenodd" d="M25.2082 18.6737C25.6012 18.9439 26.0633 19.0881 26.536 19.0881C27.1696 19.0873 27.7771 18.828 28.2251 18.367C28.6731 17.906 28.9252 17.281 28.9259 16.6291C28.9259 16.1428 28.7858 15.6674 28.5232 15.263C28.2605 14.8586 27.8873 14.5435 27.4506 14.3573C27.0139 14.1712 26.5333 14.1225 26.0697 14.2174C25.6061 14.3123 25.1802 14.5465 24.846 14.8904C24.5118 15.2343 24.2841 15.6724 24.1919 16.1494C24.0997 16.6264 24.147 17.1208 24.3279 17.5701C24.5088 18.0194 24.8151 18.4035 25.2082 18.6737ZM27.2727 16.6285C27.2727 17.0471 26.9429 17.3865 26.536 17.3865C26.1291 17.3865 25.7992 17.0471 25.7992 16.6285C25.7992 16.2098 26.1291 15.8705 26.536 15.8705C26.9429 15.8705 27.2727 16.2098 27.2727 16.6285Z" fill="#252849"/>
</svg>
