<svg width="20" height="21" viewBox="0 0 20 21" fill="none" xmlns="http://www.w3.org/2000/svg">
<path fill-rule="evenodd" clip-rule="evenodd" d="M10.2704 0.293487C10.167 0.293487 10.0639 0.295113 9.96131 0.298341C7.46905 -0.581463 4.97271 0.598261 3.23272 2.35231C2.02397 3.57083 1.33438 5.07793 0.701711 6.46064C0.467813 6.97182 0.241695 7.466 0 7.92231C0.325984 7.98414 0.675115 8.03593 1.04161 8.07624C0.716606 9.05502 0.540541 10.1026 0.540541 11.1916C0.540541 16.6087 4.89669 21 10.2703 21C15.6439 21 20 16.6087 20 11.1916C20 8.92958 19.2404 6.84636 17.9643 5.18708C18.0907 4.99066 18.2061 4.78631 18.3094 4.57492C16.5573 1.99004 13.6104 0.293487 10.2704 0.293487ZM3.31929 8.17057C5.43297 8.12139 7.70929 7.69525 9.36699 6.69443C10.3673 7.46469 11.6172 7.92221 12.9731 7.92221C14.272 7.92221 15.4737 7.50232 16.4518 6.78985C17.3248 8.0335 17.8378 9.55218 17.8378 11.1916C17.8378 15.4049 14.4497 18.8204 10.2703 18.8204C6.09082 18.8204 2.7027 15.4049 2.7027 11.1916C2.7027 10.1184 2.92254 9.09699 3.31929 8.17057ZM7.02703 12.2815C7.62409 12.2815 8.10811 11.7935 8.10811 11.1916C8.10811 10.5898 7.62409 10.1018 7.02703 10.1018C6.42996 10.1018 5.94595 10.5898 5.94595 11.1916C5.94595 11.7935 6.42996 12.2815 7.02703 12.2815ZM14.5946 11.1916C14.5946 11.7935 14.1106 12.2815 13.5135 12.2815C12.9164 12.2815 12.4324 11.7935 12.4324 11.1916C12.4324 10.5898 12.9164 10.1018 13.5135 10.1018C14.1106 10.1018 14.5946 10.5898 14.5946 11.1916Z" fill="#A0A3BD"/>
</svg>
