<svg width="21" height="20" viewBox="0 0 21 20" fill="none" xmlns="http://www.w3.org/2000/svg">
<path d="M15.225 0C13.398 0 11.6445 0.882834 10.5 2.27793C9.3555 0.882834 7.602 0 5.775 0C2.541 0 0 2.6376 0 5.99455C0 10.1144 3.57 13.4714 8.9775 18.5722L10.5 20L12.0225 18.5613C17.43 13.4714 21 10.1144 21 5.99455C21 2.6376 18.459 0 15.225 0ZM10.605 16.9482L10.5 17.0572L10.395 16.9482C5.397 12.2507 2.1 9.14441 2.1 5.99455C2.1 3.81471 3.675 2.17984 5.775 2.17984C7.392 2.17984 8.967 3.25886 9.5235 4.75204H11.487C12.033 3.25886 13.608 2.17984 15.225 2.17984C17.325 2.17984 18.9 3.81471 18.9 5.99455C18.9 9.14441 15.603 12.2507 10.605 16.9482Z" fill="#14142B"/>
</svg>
