<svg width="20" height="21" viewBox="0 0 20 21" fill="none" xmlns="http://www.w3.org/2000/svg">
<path fill-rule="evenodd" clip-rule="evenodd" d="M8.11907 17.0499C3.63503 17.0499 0 13.2331 0 8.52493C0 3.81674 3.63503 0 8.11907 0C12.6031 0 16.2381 3.81674 16.2381 8.52493C16.2381 10.495 15.6017 12.309 14.5329 13.7526L20 19.493L18.5647 21L13.0976 15.2596C11.7228 16.3817 9.99524 17.0499 8.11907 17.0499ZM14.2083 8.52498C14.2083 12.0561 11.482 14.9187 8.11901 14.9187C4.75598 14.9187 2.02971 12.0561 2.02971 8.52498C2.02971 4.99384 4.75598 2.13128 8.11901 2.13128C11.482 2.13128 14.2083 4.99384 14.2083 8.52498Z" fill="#A0A3BD"/>
</svg>
