<svg width="20" height="22" viewBox="0 0 20 22" fill="none" xmlns="http://www.w3.org/2000/svg">
<path d="M18.8889 6.61841L12.2222 0.839321C11.6111 0.298817 10.82 0 10 0C9.18011 0 8.38896 0.298817 7.77783 0.839321L1.11121 6.61841C0.758287 6.93051 0.476658 7.31339 0.285072 7.74153C0.0934866 8.16967 -0.00365837 8.63327 0.000105326 9.10143V18.7039C0.000105326 19.5781 0.351292 20.4165 0.976409 21.0346C1.60153 21.6527 2.44937 22 3.33342 22H16.6667C17.5507 22 18.3985 21.6527 19.0237 21.0346C19.6488 20.4165 20 19.5781 20 18.7039V9.09045C20.0021 8.62413 19.9042 8.16265 19.7127 7.73652C19.5212 7.31038 19.2404 6.92929 18.8889 6.61841ZM12.2222 19.8026H7.77783V14.3092C7.77783 14.0178 7.89489 13.7384 8.10326 13.5323C8.31164 13.3263 8.59425 13.2105 8.88893 13.2105H11.1111C11.4058 13.2105 11.6884 13.3263 11.8968 13.5323C12.1052 13.7384 12.2222 14.0178 12.2222 14.3092V19.8026ZM17.7778 18.7039C17.7778 18.9953 17.6607 19.2748 17.4523 19.4808C17.2439 19.6869 16.9613 19.8026 16.6667 19.8026H14.4444V14.3092C14.4444 13.435 14.0933 12.5967 13.4681 11.9785C12.843 11.3604 11.9952 11.0131 11.1111 11.0131H8.88893C8.00488 11.0131 7.15704 11.3604 6.53192 11.9785C5.90681 12.5967 5.55562 13.435 5.55562 14.3092V19.8026H3.33342C3.03873 19.8026 2.75612 19.6869 2.54775 19.4808C2.33937 19.2748 2.22231 18.9953 2.22231 18.7039V9.09045C2.22251 8.93445 2.2563 8.78028 2.32144 8.63821C2.38658 8.49613 2.48157 8.36939 2.60009 8.26643L9.26671 2.49834C9.46947 2.3222 9.73014 2.22505 10 2.22505C10.2699 2.22505 10.5306 2.3222 10.7334 2.49834L17.4 8.26643C17.5185 8.36939 17.6135 8.49613 17.6786 8.63821C17.7438 8.78028 17.7776 8.93445 17.7778 9.09045V18.7039Z" fill="#A0A3BD"/>
</svg>
