<svg width="9" height="12" viewBox="0 0 9 12" fill="none" xmlns="http://www.w3.org/2000/svg">
<path d="M4.5 5.4C5.21008 5.4 5.78571 4.86274 5.78571 4.2C5.78571 3.53726 5.21008 3 4.5 3C3.78992 3 3.21429 3.53726 3.21429 4.2C3.21429 4.86274 3.78992 5.4 4.5 5.4Z" fill="#fff"/>
<path fill-rule="evenodd" clip-rule="evenodd" d="M0 4.2C0 6.48247 2.36266 9.5525 3.66405 11.0704C4.15868 11.6473 4.5 12 4.5 12C4.5 12 4.84132 11.6473 5.33595 11.0704C6.63734 9.5525 9 6.48247 9 4.2C9 1.878 6.98786 0 4.5 0C2.01214 0 0 1.878 0 4.2ZM5.68419 8.61009C5.27012 9.18288 4.85454 9.70165 4.5 10.1229C4.14546 9.70165 3.72988 9.18288 3.31581 8.61009C2.77759 7.86555 2.2578 7.05147 1.87647 6.25704C1.4876 5.44689 1.28571 4.7447 1.28571 4.2C1.28571 2.54074 2.72222 1.2 4.5 1.2C6.27778 1.2 7.71429 2.54074 7.71429 4.2C7.71429 4.7447 7.5124 5.44689 7.12353 6.25704C6.7422 7.05147 6.22241 7.86555 5.68419 8.61009Z" fill="#fff"/>
</svg>
