<svg width="12" height="11" viewBox="0 0 12 11" fill="none" xmlns="http://www.w3.org/2000/svg">
<path d="M5.6115 0.724348C5.76589 0.425217 6.23411 0.425218 6.3885 0.724347L7.52313 2.9227C7.73601 3.33515 8.14122 3.61097 8.59789 3.67442L11.135 4.02694C11.5129 4.07944 11.5966 4.47658 11.3776 4.68067L9.54173 6.39185C9.20195 6.70855 9.04094 7.17215 9.12341 7.63192L9.5568 10.0481C9.60531 10.3186 9.28498 10.6297 8.92601 10.4493L6.65674 9.30851C6.24489 9.10147 5.75511 9.10147 5.34326 9.30851L3.07399 10.4493C2.71502 10.6297 2.39469 10.3186 2.4432 10.0481L2.87659 7.63192C2.95906 7.17215 2.79805 6.70855 2.45827 6.39185L0.622388 4.68067C0.403419 4.47657 0.487148 4.07944 0.864988 4.02694L3.40211 3.67442C3.85878 3.61097 4.26399 3.33515 4.47687 2.9227L5.6115 0.724348Z" stroke="#EFF0F7"/>
</svg>
