<svg width="8" height="8" viewBox="0 0 8 8" fill="none" xmlns="http://www.w3.org/2000/svg">
<path d="M3.4448 0.360019C3.6719 -0.120006 4.3281 -0.120007 4.5552 0.360018L5.31163 1.95882C5.40181 2.14944 5.57614 2.28156 5.7778 2.31213L7.46921 2.56851C7.97705 2.64548 8.17982 3.29648 7.81235 3.67013L6.58843 4.91462C6.44251 5.063 6.37592 5.27677 6.41037 5.48628L6.6993 7.24354C6.78605 7.77114 6.25518 8.17348 5.80096 7.92438L4.28811 7.09472C4.10774 6.9958 3.89226 6.9958 3.71189 7.09472L2.19904 7.92438C1.74483 8.17348 1.21395 7.77114 1.3007 7.24354L1.58963 5.48628C1.62408 5.27677 1.55749 5.063 1.41157 4.91462L0.18765 3.67013C-0.17982 3.29648 0.0229535 2.64548 0.530784 2.56851L2.2222 2.31213C2.42386 2.28156 2.59819 2.14944 2.68837 1.95882L3.4448 0.360019Z" fill="#FFC754"/>
</svg>
