<svg width="12" height="11" viewBox="0 0 12 11" fill="none" xmlns="http://www.w3.org/2000/svg">
<path d="M5.16719 0.495026C5.50786 -0.165008 6.49214 -0.165009 6.83281 0.495025L7.96744 2.69338C8.10272 2.95548 8.36421 3.13715 8.6667 3.17918L11.2038 3.5317C11.9656 3.63754 12.2697 4.53266 11.7185 5.04643L9.88265 6.75761C9.66376 6.96162 9.56388 7.25557 9.61555 7.54364L10.0489 9.95986C10.1791 10.6853 9.38276 11.2385 8.70144 10.896L6.43217 9.75523C6.16161 9.61922 5.83839 9.61922 5.56783 9.75523L3.29856 10.896C2.61724 11.2385 1.82093 10.6853 1.95105 9.95987L2.38445 7.54364C2.43612 7.25557 2.33624 6.96162 2.11735 6.75761L0.281474 5.04643C-0.26973 4.53266 0.0344303 3.63754 0.796176 3.5317L3.3333 3.17918C3.63579 3.13715 3.89728 2.95548 4.03256 2.69338L5.16719 0.495026Z" fill="#FFD973"/>
</svg>
