<svg width="37" height="21" viewBox="0 0 37 21" fill="none" xmlns="http://www.w3.org/2000/svg">
<path fill-rule="evenodd" clip-rule="evenodd" d="M17.25 2.4H5.75V3.5H17.25V2.4ZM17.25 5.83333H5.75L5.75 7.2H17.25V5.83333ZM5.75 0C4.16218 0 2.875 1.07452 2.875 2.4V7.2C2.875 8.52548 4.16218 9.6 5.75 9.6L5.75 10.8H2.875C1.28718 10.8 0 11.8745 0 13.2V14.4C0 15.7255 1.28718 16.8 2.875 16.8H5.75V19.8C5.75 20.4627 6.39359 21 7.1875 21C7.98141 21 8.625 20.4627 8.625 19.8V16.8H14.375V19.8C14.375 20.4627 15.0186 21 15.8125 21C16.6064 21 17.25 20.4627 17.25 19.8V16.8H20.125C21.7128 16.8 23 15.7255 23 14.4V13.2C23 11.8745 21.7128 10.8 20.125 10.8H17.25V9.6C18.8378 9.6 20.125 8.52548 20.125 7.2V2.4C20.125 1.07452 18.8378 0 17.25 0H5.75ZM14.375 9.6V10.8H8.625V9.6H14.375ZM20.125 13.2H2.875V14.4H20.125V13.2Z" fill="#4E4B66"/>
<path fill-rule="evenodd" clip-rule="evenodd" d="M30.4 16.9C30.4 17.5075 30.8925 18 31.5 18C32.1075 18 32.6 17.5075 32.6 16.9L32.6 13.6H35.9C36.5075 13.6 37 13.1075 37 12.5C37 11.8925 36.5075 11.4 35.9 11.4H32.6L32.6 8.1C32.6 7.49249 32.1075 7 31.5 7C30.8925 7 30.4 7.49249 30.4 8.1V11.4H27.1C26.4925 11.4 26 11.8925 26 12.5C26 13.1075 26.4925 13.6 27.1 13.6H30.4V16.9Z" fill="#4E4B66"/>
</svg>
