<svg width="19" height="24" viewBox="0 0 19 24" fill="none" xmlns="http://www.w3.org/2000/svg">
<path d="M9.3913 13.2C9.03391 13.1957 8.6838 13.3035 8.38813 13.5088C8.09245 13.714 7.86539 14.007 7.73751 14.3482C7.60963 14.6893 7.58707 15.0624 7.67287 15.4171C7.75867 15.7718 7.9487 16.0911 8.21739 16.332V18C8.21739 18.3183 8.34107 18.6235 8.56122 18.8485C8.78137 19.0736 9.07996 19.2 9.3913 19.2C9.70265 19.2 10.0012 19.0736 10.2214 18.8485C10.4415 18.6235 10.5652 18.3183 10.5652 18V16.332C10.8339 16.0911 11.0239 15.7718 11.1097 15.4171C11.1955 15.0624 11.173 14.6893 11.0451 14.3482C10.9172 14.007 10.6902 13.714 10.3945 13.5088C10.0988 13.3035 9.7487 13.1957 9.3913 13.2ZM15.2609 8.4V6C15.2609 4.4087 14.6425 2.88258 13.5417 1.75736C12.441 0.632141 10.948 0 9.3913 0C7.8346 0 6.34165 0.632141 5.24089 1.75736C4.14014 2.88258 3.52174 4.4087 3.52174 6V8.4C2.58772 8.4 1.69195 8.77928 1.03149 9.45442C0.371039 10.1295 0 11.0452 0 12V20.4C0 21.3548 0.371039 22.2705 1.03149 22.9456C1.69195 23.6207 2.58772 24 3.52174 24H15.2609C16.1949 24 17.0907 23.6207 17.7511 22.9456C18.4116 22.2705 18.7826 21.3548 18.7826 20.4V12C18.7826 11.0452 18.4116 10.1295 17.7511 9.45442C17.0907 8.77928 16.1949 8.4 15.2609 8.4ZM5.86957 6C5.86957 5.04522 6.2406 4.12955 6.90106 3.45442C7.56151 2.77928 8.45728 2.4 9.3913 2.4C10.3253 2.4 11.2211 2.77928 11.8815 3.45442C12.542 4.12955 12.913 5.04522 12.913 6V8.4H5.86957V6ZM16.4348 20.4C16.4348 20.7183 16.3111 21.0235 16.091 21.2485C15.8708 21.4736 15.5722 21.6 15.2609 21.6H3.52174C3.2104 21.6 2.91181 21.4736 2.69166 21.2485C2.47151 21.0235 2.34783 20.7183 2.34783 20.4V12C2.34783 11.6817 2.47151 11.3765 2.69166 11.1515C2.91181 10.9264 3.2104 10.8 3.52174 10.8H15.2609C15.5722 10.8 15.8708 10.9264 16.091 11.1515C16.3111 11.3765 16.4348 11.6817 16.4348 12V20.4Z" fill="#4E4B66"/>
</svg>
