<svg width="24" height="24" viewBox="0 0 24 24" fill="none" xmlns="http://www.w3.org/2000/svg">
<path d="M12 7.2C11.3635 7.2 10.753 7.45286 10.3029 7.90294C9.85286 8.35303 9.6 8.96348 9.6 9.6C9.60253 10.0188 9.71463 10.4297 9.92514 10.7918C10.1357 11.1539 10.4373 11.4546 10.8 11.664V15.6C10.8 15.9183 10.9264 16.2235 11.1515 16.4485C11.3765 16.6736 11.6817 16.8 12 16.8C12.3183 16.8 12.6235 16.6736 12.8485 16.4485C13.0736 16.2235 13.2 15.9183 13.2 15.6V11.664C13.5627 11.4546 13.8643 11.1539 14.0749 10.7918C14.2854 10.4297 14.3975 10.0188 14.4 9.6C14.4 8.96348 14.1471 8.35303 13.6971 7.90294C13.247 7.45286 12.6365 7.2 12 7.2ZM12 0C9.62663 0 7.30655 0.703788 5.33316 2.02236C3.35977 3.34094 1.8217 5.21508 0.913451 7.4078C0.00519941 9.60051 -0.232441 12.0133 0.230582 14.3411C0.693605 16.6689 1.83649 18.807 3.51472 20.4853C5.19295 22.1635 7.33115 23.3064 9.65892 23.7694C11.9867 24.2324 14.3995 23.9948 16.5922 23.0865C18.7849 22.1783 20.6591 20.6402 21.9776 18.6668C23.2962 16.6934 24 14.3734 24 12C24 10.4241 23.6896 8.8637 23.0866 7.4078C22.4835 5.95189 21.5996 4.62902 20.4853 3.51472C19.371 2.40041 18.0481 1.5165 16.5922 0.913445C15.1363 0.310389 13.5759 0 12 0ZM12 21.6C10.1013 21.6 8.24524 21.037 6.66653 19.9821C5.08782 18.9272 3.85736 17.4279 3.13076 15.6738C2.40416 13.9196 2.21405 11.9893 2.58447 10.1271C2.95488 8.26491 3.8692 6.55436 5.21178 5.21177C6.55436 3.86919 8.26492 2.95488 10.1271 2.58446C11.9894 2.21404 13.9196 2.40415 15.6738 3.13076C17.4279 3.85736 18.9272 5.08781 19.9821 6.66652C21.037 8.24524 21.6 10.1013 21.6 12C21.6 14.5461 20.5886 16.9879 18.7882 18.7882C16.9879 20.5886 14.5461 21.6 12 21.6Z" fill="#4E4B66"/>
</svg>
