<svg width="24" height="24" viewBox="0 0 24 24" fill="none" xmlns="http://www.w3.org/2000/svg">
<path fill-rule="evenodd" clip-rule="evenodd" d="M12 24C18.6274 24 24 18.6274 24 12C24 5.37258 18.6274 0 12 0C5.37258 0 0 5.37258 0 12C0 18.6274 5.37258 24 12 24ZM12 21.6C17.3019 21.6 21.6 17.3019 21.6 12C21.6 6.69807 17.3019 2.4 12 2.4C6.69807 2.4 2.4 6.69807 2.4 12C2.4 17.3019 6.69807 21.6 12 21.6Z" fill="#4E4B66"/>
<path fill-rule="evenodd" clip-rule="evenodd" d="M9.0002 6.99998C7.89563 6.99998 7.0002 7.89541 7.0002 8.99998V15C7.0002 16.1045 7.89563 17 9.0002 17H9.86658L13.2 18V17H15.0002C16.1048 17 17.0002 16.1045 17.0002 15V8.99998C17.0002 7.89541 16.1048 6.99998 15.0002 6.99998H9.0002ZM13.2 9.84V15H15.0002V8.99998H10.3999L13.2 9.84ZM11.34 11.88C11.6382 11.88 11.88 11.6382 11.88 11.34C11.88 11.0418 11.6382 10.8 11.34 10.8C11.0418 10.8 10.8 11.0418 10.8 11.34C10.8 11.6382 11.0418 11.88 11.34 11.88Z" fill="#4E4B66"/>
</svg>
