<svg width="37" height="21" viewBox="0 0 37 21" fill="none" xmlns="http://www.w3.org/2000/svg">
<path fill-rule="evenodd" clip-rule="evenodd" d="M17.25 2.4H5.75V3.5H17.25V2.4ZM17.25 5.83333H5.75L5.75 7.2H17.25V5.83333ZM5.75 0C4.16218 0 2.875 1.07452 2.875 2.4V7.2C2.875 8.52548 4.16218 9.6 5.75 9.6L5.75 10.8H2.875C1.28718 10.8 0 11.8745 0 13.2V14.4C0 15.7255 1.28718 16.8 2.875 16.8H5.75V19.8C5.75 20.4627 6.39359 21 7.1875 21C7.98141 21 8.625 20.4627 8.625 19.8V16.8H14.375V19.8C14.375 20.4627 15.0186 21 15.8125 21C16.6064 21 17.25 20.4627 17.25 19.8V16.8H20.125C21.7128 16.8 23 15.7255 23 14.4V13.2C23 11.8745 21.7128 10.8 20.125 10.8H17.25V9.6C18.8378 9.6 20.125 8.52548 20.125 7.2V2.4C20.125 1.07452 18.8378 0 17.25 0H5.75ZM14.375 9.6V10.8H8.625V9.6H14.375ZM20.125 13.2H2.875V14.4H20.125V13.2Z" fill="#4E4B66"/>
<path fill-rule="evenodd" clip-rule="evenodd" d="M30.7222 8.29289C31.1517 7.90237 31.8482 7.90237 32.2778 8.29289L36.6778 12.2929C36.9924 12.5789 37.0865 13.009 36.9162 13.3827C36.746 13.7564 36.3449 14 35.9 14H27.1C26.4925 14 26 13.5523 26 13C26 12.4477 26.4925 12 27.1 12H33.2443L30.7222 9.70711C30.2926 9.31658 30.2926 8.68342 30.7222 8.29289Z" fill="#4E4B66"/>
</svg>
