<svg width="20" height="19" viewBox="0 0 20 19" fill="none" xmlns="http://www.w3.org/2000/svg">
<path d="M10.086 0.0756836C5.00772 0.0756836 0.912354 3.64453 0.912354 7.97716C0.912354 10.7894 2.61603 13.252 5.17154 14.6581L4.30659 18.1771C4.29029 18.2298 4.28778 18.2864 4.29935 18.3406C4.31092 18.3948 4.33612 18.4444 4.37212 18.4839C4.42461 18.5344 4.49215 18.5623 4.56214 18.5624C4.62018 18.5574 4.67524 18.5324 4.71941 18.4911L8.44128 15.7573C8.99067 15.8399 9.54448 15.8828 10.0991 15.8858C15.1708 15.8858 19.2727 12.3169 19.2727 7.97716C19.2727 3.63739 15.1577 0.0756836 10.086 0.0756836Z" fill="#392020"/>
</svg>
