<svg width="23" height="24" viewBox="0 0 23 24" fill="none" xmlns="http://www.w3.org/2000/svg">
<path fill-rule="evenodd" clip-rule="evenodd" d="M22.4307 11.8007C22.4307 10.9825 22.3602 10.1958 22.2293 9.44058H11.7969V13.9039H17.7583C17.5015 15.3462 16.7211 16.5682 15.5479 17.3864V20.2815H19.1278C21.2223 18.2728 22.4307 15.3147 22.4307 11.8007Z" fill="#4285F4"/>
<path fill-rule="evenodd" clip-rule="evenodd" d="M11.7969 23.0769C14.7877 23.0769 17.2951 22.0437 19.1278 20.2815L15.548 17.3864C14.5561 18.0787 13.2873 18.4878 11.7969 18.4878C8.9119 18.4878 6.46994 16.4581 5.59889 13.7308H1.89819V16.7203C3.72085 20.4913 7.46686 23.0769 11.7969 23.0769Z" fill="#34A853"/>
<path fill-rule="evenodd" clip-rule="evenodd" d="M5.59885 13.7308C5.37731 13.0385 5.25144 12.299 5.25144 11.5385C5.25144 10.778 5.37731 10.0385 5.59885 9.34616V6.35666H1.89815C1.14794 7.91435 0.719971 9.67658 0.719971 11.5385C0.719971 13.4004 1.14794 15.1626 1.89815 16.7203L5.59885 13.7308Z" fill="#FBBC05"/>
<path fill-rule="evenodd" clip-rule="evenodd" d="M11.7969 4.58916C13.4232 4.58916 14.8834 5.17133 16.0313 6.31469L19.2084 3.00525C17.2901 1.14336 14.7827 0 11.7969 0C7.46686 0 3.72085 2.58567 1.89819 6.35665L5.59889 9.34616C6.46994 6.61889 8.9119 4.58916 11.7969 4.58916Z" fill="#EA4335"/>
</svg>
