<svg width="24" height="21" viewBox="0 0 24 21" fill="none" xmlns="http://www.w3.org/2000/svg">
<path fill-rule="evenodd" clip-rule="evenodd" d="M17.5 2.4H5.83333V3.5H17.5V2.4ZM17.5 5.83333H5.83333L5.83333 7.2H17.5V5.83333ZM5.83333 0C4.2225 0 2.91667 1.07452 2.91667 2.4V7.2C2.91667 8.52548 4.2225 9.6 5.83333 9.6L5.83333 10.8H2.91667C1.30584 10.8 0 11.8745 0 13.2V14.4C0 15.7255 1.30584 16.8 2.91667 16.8H5.83333V19.8C5.83333 20.4627 6.48625 21 7.29167 21C8.09708 21 8.75 20.4627 8.75 19.8V16.8H14.5833V19.8C14.5833 20.4627 15.2362 21 16.0417 21C16.8471 21 17.5 20.4627 17.5 19.8V16.8H20.4167C22.0275 16.8 23.3333 15.7255 23.3333 14.4V13.2C23.3333 11.8745 22.0275 10.8 20.4167 10.8H17.5V9.6C19.1108 9.6 20.4167 8.52548 20.4167 7.2V2.4C20.4167 1.07452 19.1108 0 17.5 0H5.83333ZM14.5833 9.6V10.8H8.75V9.6H14.5833ZM20.4167 13.2H2.91667V14.4H20.4167V13.2Z" fill="#4E4B66"/>
</svg>
