<svg width="328" height="313" viewBox="0 0 328 313" fill="none" xmlns="http://www.w3.org/2000/svg">
<circle cx="6" cy="6" r="6" fill="#D9DBE9"/>
<path d="M20.9889 6.288C21.0289 6.048 21.0449 5.8 21.0449 5.52C21.0449 5.24 21.0289 4.984 20.9889 4.744H21.8209V6.288H20.9889ZM19.4929 7.304C18.9969 7.304 18.6849 6.664 18.6849 5.52C18.6849 4.376 18.9969 3.728 19.4929 3.728C19.9889 3.728 20.3009 4.376 20.3009 5.52C20.3009 6.664 19.9889 7.304 19.4929 7.304ZM21.8209 4.064H20.8209C20.5729 3.352 20.0929 2.952 19.4929 2.952C18.5569 2.952 17.9409 3.928 17.9409 5.52C17.9409 7.104 18.5569 8.08 19.4929 8.08C20.1009 8.08 20.5729 7.664 20.8289 6.96H21.8209V9.272H22.5889V2.528H21.8209V4.064ZM23.2529 2.392V9.608H24.0369V2.392H23.2529ZM26.1243 4.544C26.1243 3.912 26.5963 3.504 27.2363 3.504C27.8843 3.504 28.3563 3.912 28.3563 4.544C28.3563 5.176 27.8843 5.584 27.2363 5.584C26.5963 5.584 26.1243 5.176 26.1243 4.544ZM29.1643 4.544C29.1643 3.52 28.3403 2.808 27.2363 2.808C26.1403 2.808 25.3163 3.52 25.3163 4.544C25.3163 5.568 26.1403 6.28 27.2363 6.28C28.3403 6.28 29.1643 5.568 29.1643 4.544ZM26.1163 7.656H30.0443V9.624H30.8683V6.992H26.1163V7.656ZM31.8683 4.104V3.424H30.8683V2.392H30.0443V6.672H30.8683V5.656H31.8683V4.976H30.8683V4.104H31.8683ZM37.2277 5.672C36.6437 5.752 36.0197 5.8 35.3957 5.832V5.112H36.7797V4.448H34.0677V3.448H36.7317V2.776H33.2437V5.112H34.5717V5.872C33.8757 5.896 33.2037 5.896 32.6277 5.896L32.7317 6.544C34.0117 6.544 35.7317 6.52 37.2837 6.248L37.2277 5.672ZM34.5797 7.768H37.7557V8.872H34.5797V7.768ZM33.7637 9.528H38.5637V7.112H33.7637V9.528ZM37.7317 2.392V6.784H38.5637V2.392H37.7317Z" fill="black"/>
<circle cx="58" cy="6" r="5.5" stroke="#252849"/>
<path d="M74.9508 7.768H75.7748V2.392H74.9508V4.016H73.4868V4.696H74.9508V7.768ZM74.0548 5.992C72.9748 5.6 72.3668 4.664 72.3668 3.688V2.832H71.5268V3.672C71.5268 4.744 70.9028 5.76 69.7748 6.16L70.2148 6.8C71.0468 6.48 71.6468 5.84 71.9668 5.032C72.2708 5.76 72.8388 6.344 73.6148 6.632L74.0548 5.992ZM71.9028 8.808V7.2H71.0708V9.48H75.9428V8.808H71.9028ZM80.4622 5.6C79.7502 5.736 79.1342 5.768 78.2222 5.776V4.968H80.1582V4.328H78.2222V3.568H80.2382V2.904H77.4222V6.448H77.9102C79.0302 6.448 79.7182 6.424 80.5502 6.272L80.4622 5.6ZM78.3582 7.8H82.4382V9.624H83.2622V7.136H78.3582V7.8ZM82.4782 2.392V4.224H81.6782V2.528H80.9102V6.736H81.6782V4.896H82.4782V6.784H83.2622V2.392H82.4782ZM86.6584 3.152V3.824H89.1864C89.0184 5.488 88.0664 6.76 86.2984 7.664L86.7544 8.296C89.1144 7.104 90.0104 5.248 90.0104 3.152H86.6584ZM92.9944 5.24H91.8984V2.384H91.0744V9.608H91.8984V5.928H92.9944V5.24ZM99.4578 4.312H95.3458V2.528H94.5218V4.976H99.4578V4.312ZM96.9138 8.96C95.8578 8.96 95.2658 8.712 95.2658 8.272C95.2658 7.816 95.8578 7.584 96.9138 7.584C97.9698 7.584 98.5698 7.816 98.5698 8.272C98.5698 8.712 97.9698 8.96 96.9138 8.96ZM96.9138 6.936C95.3698 6.936 94.4258 7.424 94.4258 8.272C94.4258 9.112 95.3698 9.6 96.9138 9.6C98.4658 9.6 99.4018 9.112 99.4018 8.272C99.4018 7.424 98.4658 6.936 96.9138 6.936ZM93.6658 5.704V6.376H100.202V5.704H93.6658Z" fill="black"/>
<circle cx="119" cy="6" r="6" fill="#43D2B0"/>
<path d="M135.631 7.768H136.455V2.392H135.631V4.016H134.167V4.696H135.631V7.768ZM134.735 5.992C133.655 5.6 133.047 4.664 133.047 3.688V2.832H132.207V3.672C132.207 4.744 131.583 5.76 130.455 6.16L130.895 6.8C131.727 6.48 132.327 5.84 132.647 5.032C132.951 5.76 133.519 6.344 134.295 6.632L134.735 5.992ZM132.583 8.808V7.2H131.751V9.48H136.623V8.808H132.583ZM141.142 5.6C140.43 5.736 139.814 5.768 138.902 5.776V4.968H140.838V4.328H138.902V3.568H140.918V2.904H138.102V6.448H138.59C139.71 6.448 140.398 6.424 141.23 6.272L141.142 5.6ZM139.038 7.8H143.118V9.624H143.942V7.136H139.038V7.8ZM143.158 2.392V4.224H142.358V2.528H141.59V6.736H142.358V4.896H143.158V6.784H143.942V2.392H143.158ZM151.626 5.672C151.042 5.752 150.418 5.8 149.794 5.832V5.112H151.178V4.448H148.466V3.448H151.13V2.776H147.642V5.112H148.97V5.872C148.274 5.896 147.602 5.896 147.026 5.896L147.13 6.544C148.41 6.544 150.13 6.52 151.682 6.248L151.626 5.672ZM148.978 7.768H152.154V8.872H148.978V7.768ZM148.162 9.528H152.962V7.112H148.162V9.528ZM152.13 2.392V6.784H152.962V2.392H152.13Z" fill="black"/>
<path fill-rule="evenodd" clip-rule="evenodd" d="M4 30H94.074C95.7308 30 97.074 31.3431 97.074 33V93.1042H98.074V33C98.074 30.7909 96.2831 29 94.074 29H4C1.79086 29 0 30.7909 0 33V143.894C0 146.103 1.79086 147.894 4 147.894H94.074C96.2831 147.894 98.074 146.103 98.074 143.894V122.691H97.074V143.894C97.074 145.551 95.7308 146.894 94.074 146.894H4C2.34315 146.894 1 145.551 1 143.894V33C1 31.3431 2.34315 30 4 30Z" fill="#D9DBE9"/>
<path fill-rule="evenodd" clip-rule="evenodd" d="M323.999 30H147C145.343 30 144 31.3431 144 33V95.2958H143V33C143 30.7909 144.791 29 147 29H323.999C326.209 29 327.999 30.7909 327.999 33V143.894C327.999 146.103 326.209 147.894 323.999 147.894H229.736V146.894H323.999C325.656 146.894 326.999 145.551 326.999 143.894V33C326.999 31.3431 325.656 30 323.999 30ZM205.582 146.894H147C145.343 146.894 144 145.551 144 143.894V118.855H143V143.894C143 146.103 144.791 147.894 147 147.894H205.582V146.894Z" fill="#D9DBE9"/>
<path fill-rule="evenodd" clip-rule="evenodd" d="M4 180H94.074C95.7308 180 97.074 181.343 97.074 183V259.277H98.074V183C98.074 180.791 96.2831 179 94.074 179H4C1.79086 179 0 180.791 0 183V309C0 311.209 1.79086 313 4 313H94.074C96.2831 313 98.074 311.209 98.074 309V291.387H97.074V309C97.074 310.657 95.7308 312 94.074 312H4C2.34315 312 1 310.657 1 309V183C1 181.343 2.34314 180 4 180Z" fill="#D9DBE9"/>
<path fill-rule="evenodd" clip-rule="evenodd" d="M143 160V309C143 311.209 144.791 313 147 313H222.599V312H147C145.343 312 144 310.657 144 309V160H143ZM327 160V309C327 310.657 325.657 312 324 312H241.813V313H324C326.209 313 328 311.209 328 309V160H327Z" fill="#D9DBE9"/>
<rect x="156" y="36" width="58" height="20" rx="2" fill="#3F4049"/>
<path d="M165.496 49.112C166.864 49.112 167.672 48.288 167.672 47.32C167.672 46.464 167.2 46.008 166.48 45.712L165.704 45.384C165.2 45.184 164.784 45.032 164.784 44.608C164.784 44.216 165.112 43.984 165.632 43.984C166.12 43.984 166.512 44.16 166.888 44.472L167.488 43.728C167.008 43.24 166.32 42.968 165.632 42.968C164.432 42.968 163.584 43.712 163.584 44.68C163.584 45.544 164.184 46.024 164.784 46.272L165.576 46.608C166.104 46.832 166.464 46.968 166.464 47.408C166.464 47.824 166.136 48.088 165.52 48.088C165 48.088 164.44 47.824 164.016 47.432L163.336 48.248C163.912 48.8 164.704 49.112 165.496 49.112ZM170.576 49.112C171.128 49.112 171.696 48.92 172.136 48.616L171.736 47.896C171.416 48.096 171.096 48.208 170.728 48.208C170.064 48.208 169.584 47.824 169.488 47.088H172.248C172.28 46.984 172.304 46.768 172.304 46.544C172.304 45.312 171.664 44.408 170.432 44.408C169.368 44.408 168.344 45.312 168.344 46.76C168.344 48.24 169.32 49.112 170.576 49.112ZM169.472 46.304C169.56 45.656 169.976 45.32 170.448 45.32C171.024 45.32 171.296 45.704 171.296 46.304H169.472ZM173.273 49H174.449V46.328C174.697 45.68 175.121 45.448 175.473 45.448C175.657 45.448 175.785 45.472 175.945 45.52L176.145 44.504C176.009 44.448 175.865 44.408 175.617 44.408C175.153 44.408 174.673 44.728 174.345 45.312H174.321L174.233 44.52H173.273V49ZM177.874 49H179.234L180.73 44.52H179.602L178.946 46.752C178.826 47.192 178.706 47.656 178.586 48.112H178.546C178.426 47.656 178.306 47.192 178.186 46.752L177.53 44.52H176.346L177.874 49ZM181.476 49H182.652V44.52H181.476V49ZM182.068 43.8C182.468 43.8 182.748 43.544 182.748 43.152C182.748 42.768 182.468 42.512 182.068 42.512C181.66 42.512 181.38 42.768 181.38 43.152C181.38 43.544 181.66 43.8 182.068 43.8ZM185.809 49.112C186.305 49.112 186.849 48.944 187.281 48.568L186.809 47.792C186.561 48 186.257 48.152 185.937 48.152C185.297 48.152 184.825 47.608 184.825 46.76C184.825 45.92 185.289 45.368 185.977 45.368C186.225 45.368 186.433 45.472 186.657 45.664L187.217 44.904C186.889 44.624 186.465 44.408 185.913 44.408C184.697 44.408 183.625 45.272 183.625 46.76C183.625 48.248 184.569 49.112 185.809 49.112ZM189.834 49.112C190.386 49.112 190.954 48.92 191.394 48.616L190.994 47.896C190.674 48.096 190.354 48.208 189.986 48.208C189.322 48.208 188.842 47.824 188.746 47.088H191.506C191.538 46.984 191.562 46.768 191.562 46.544C191.562 45.312 190.922 44.408 189.69 44.408C188.626 44.408 187.602 45.312 187.602 46.76C187.602 48.24 188.578 49.112 189.834 49.112ZM188.73 46.304C188.818 45.656 189.234 45.32 189.706 45.32C190.282 45.32 190.554 45.704 190.554 46.304H188.73ZM196.591 49.112C197.575 49.112 198.495 48.224 198.495 46.68C198.495 45.312 197.831 44.408 196.727 44.408C196.287 44.408 195.839 44.624 195.487 44.944L195.519 44.224V42.616H194.343V49H195.263L195.367 48.528H195.399C195.759 48.904 196.191 49.112 196.591 49.112ZM196.327 48.144C196.087 48.144 195.799 48.056 195.519 47.808V45.84C195.823 45.528 196.095 45.376 196.399 45.376C197.015 45.376 197.287 45.848 197.287 46.704C197.287 47.68 196.871 48.144 196.327 48.144ZM200.486 49.112C200.998 49.112 201.446 48.856 201.838 48.52H201.87L201.95 49H202.91V46.384C202.91 45.088 202.326 44.408 201.19 44.408C200.486 44.408 199.846 44.672 199.318 45L199.742 45.776C200.158 45.536 200.558 45.352 200.974 45.352C201.526 45.352 201.718 45.688 201.742 46.128C199.934 46.32 199.158 46.824 199.158 47.784C199.158 48.544 199.686 49.112 200.486 49.112ZM200.87 48.192C200.526 48.192 200.278 48.04 200.278 47.688C200.278 47.288 200.646 46.984 201.742 46.848V47.752C201.454 48.032 201.206 48.192 200.87 48.192ZM204.109 49H205.285V46.328C205.533 45.68 205.957 45.448 206.309 45.448C206.493 45.448 206.621 45.472 206.781 45.52L206.981 44.504C206.845 44.448 206.701 44.408 206.453 44.408C205.989 44.408 205.509 44.728 205.181 45.312H205.157L205.069 44.52H204.109V49Z" fill="white"/>
<rect x="156" y="159" width="58" height="49" rx="2" fill="#3F4049"/>
<path d="M163.728 180.8H164.792V178.328C164.792 177.768 164.696 176.944 164.64 176.384H164.672L165.144 177.776L166.064 180.264H166.744L167.656 177.776L168.136 176.384H168.176C168.112 176.944 168.024 177.768 168.024 178.328V180.8H169.104V174.872H167.792L166.808 177.648C166.68 178.016 166.576 178.408 166.448 178.784H166.408C166.288 178.408 166.176 178.016 166.048 177.648L165.04 174.872H163.728V180.8ZM172.412 180.912C172.964 180.912 173.532 180.72 173.972 180.416L173.572 179.696C173.252 179.896 172.932 180.008 172.564 180.008C171.9 180.008 171.42 179.624 171.324 178.888H174.084C174.116 178.784 174.14 178.568 174.14 178.344C174.14 177.112 173.5 176.208 172.268 176.208C171.204 176.208 170.18 177.112 170.18 178.56C170.18 180.04 171.156 180.912 172.412 180.912ZM171.308 178.104C171.396 177.456 171.812 177.12 172.284 177.12C172.86 177.12 173.132 177.504 173.132 178.104H171.308ZM177.061 180.912C177.613 180.912 178.181 180.72 178.621 180.416L178.221 179.696C177.901 179.896 177.581 180.008 177.213 180.008C176.549 180.008 176.069 179.624 175.973 178.888H178.733C178.765 178.784 178.789 178.568 178.789 178.344C178.789 177.112 178.149 176.208 176.917 176.208C175.853 176.208 174.829 177.112 174.829 178.56C174.829 180.04 175.805 180.912 177.061 180.912ZM175.957 178.104C176.045 177.456 176.461 177.12 176.933 177.12C177.509 177.12 177.781 177.504 177.781 178.104H175.957ZM181.303 180.912C181.695 180.912 182.007 180.824 182.247 180.744L182.055 179.888C181.935 179.936 181.759 179.984 181.615 179.984C181.215 179.984 181.007 179.744 181.007 179.232V177.248H182.111V176.32H181.007V175.112H180.031L179.895 176.32L179.199 176.376V177.248H179.831V179.232C179.831 180.232 180.239 180.912 181.303 180.912ZM183.023 180.8H184.199V176.32H183.023V180.8ZM183.615 175.6C184.015 175.6 184.295 175.344 184.295 174.952C184.295 174.568 184.015 174.312 183.615 174.312C183.207 174.312 182.927 174.568 182.927 174.952C182.927 175.344 183.207 175.6 183.615 175.6ZM185.452 180.8H186.628V177.72C186.956 177.392 187.188 177.216 187.556 177.216C187.996 177.216 188.188 177.456 188.188 178.152V180.8H189.364V178.008C189.364 176.88 188.948 176.208 187.98 176.208C187.372 176.208 186.916 176.528 186.524 176.912H186.5L186.412 176.32H185.452V180.8ZM192.153 182.744C193.649 182.744 194.593 182.056 194.593 181.152C194.593 180.368 194.001 180.032 192.921 180.032H192.161C191.633 180.032 191.457 179.904 191.457 179.664C191.457 179.48 191.529 179.384 191.649 179.28C191.841 179.344 192.049 179.384 192.225 179.384C193.185 179.384 193.953 178.872 193.953 177.864C193.953 177.584 193.865 177.336 193.753 177.184H194.513V176.32H192.897C192.713 176.256 192.473 176.208 192.225 176.208C191.273 176.208 190.417 176.776 190.417 177.824C190.417 178.352 190.705 178.776 191.017 179V179.032C190.745 179.224 190.513 179.536 190.513 179.872C190.513 180.24 190.689 180.472 190.921 180.624V180.664C190.513 180.896 190.281 181.216 190.281 181.592C190.281 182.384 191.097 182.744 192.153 182.744ZM192.225 178.656C191.833 178.656 191.521 178.36 191.521 177.824C191.521 177.304 191.825 177.008 192.225 177.008C192.625 177.008 192.929 177.304 192.929 177.824C192.929 178.36 192.617 178.656 192.225 178.656ZM192.329 182C191.681 182 191.265 181.784 191.265 181.408C191.265 181.224 191.353 181.048 191.553 180.888C191.713 180.928 191.905 180.952 192.177 180.952H192.721C193.201 180.952 193.465 181.032 193.465 181.352C193.465 181.704 193.001 182 192.329 182ZM163.728 192.8H164.912V190.56H165.736L166.952 192.8H168.272L166.888 190.376C167.568 190.112 168.016 189.56 168.016 188.672C168.016 187.312 167.032 186.872 165.792 186.872H163.728V192.8ZM164.912 189.624V187.816H165.68C166.44 187.816 166.864 188.032 166.864 188.672C166.864 189.304 166.44 189.624 165.68 189.624H164.912ZM170.863 192.912C171.983 192.912 173.015 192.048 173.015 190.56C173.015 189.072 171.983 188.208 170.863 188.208C169.743 188.208 168.711 189.072 168.711 190.56C168.711 192.048 169.743 192.912 170.863 192.912ZM170.863 191.952C170.255 191.952 169.911 191.408 169.911 190.56C169.911 189.72 170.255 189.168 170.863 189.168C171.471 189.168 171.815 189.72 171.815 190.56C171.815 191.408 171.471 191.952 170.863 191.952ZM175.871 192.912C176.991 192.912 178.023 192.048 178.023 190.56C178.023 189.072 176.991 188.208 175.871 188.208C174.751 188.208 173.719 189.072 173.719 190.56C173.719 192.048 174.751 192.912 175.871 192.912ZM175.871 191.952C175.263 191.952 174.919 191.408 174.919 190.56C174.919 189.72 175.263 189.168 175.871 189.168C176.479 189.168 176.823 189.72 176.823 190.56C176.823 191.408 176.479 191.952 175.871 191.952ZM179.007 192.8H180.183V189.72C180.495 189.384 180.783 189.216 181.039 189.216C181.463 189.216 181.671 189.456 181.671 190.152V192.8H182.839V189.72C183.159 189.384 183.447 189.216 183.703 189.216C184.127 189.216 184.327 189.456 184.327 190.152V192.8H185.503V190.008C185.503 188.88 185.063 188.208 184.111 188.208C183.527 188.208 183.095 188.56 182.687 188.992C182.471 188.496 182.095 188.208 181.455 188.208C180.871 188.208 180.455 188.528 180.079 188.92H180.055L179.967 188.32H179.007V192.8Z" fill="white"/>
<path d="M241 160V237H256" stroke="#BDBDC2" stroke-linejoin="round"/>
<path d="M143 252L220 252L220 237" stroke="#BDBDC2" stroke-linejoin="round"/>
<path d="M0 228L77 228L77 213" stroke="#BDBDC2" stroke-linejoin="round"/>
<path d="M0 273L77 273L77 258" stroke="#BDBDC2" stroke-linejoin="round"/>
<path d="M143 299L220 299L220 284" stroke="#BDBDC2" stroke-linejoin="round"/>
<path d="M282 160V237H297" stroke="#BDBDC2" stroke-linejoin="round"/>
<rect x="256" y="265" width="28" height="37" rx="2" fill="#3F4049"/>
<path d="M263.288 297H264.736L265.384 294.072C265.48 293.608 265.56 293.152 265.64 292.696H265.672C265.744 293.152 265.832 293.608 265.928 294.072L266.592 297H268.064L269.16 291.072H268.04L267.568 293.968C267.48 294.584 267.392 295.216 267.304 295.856H267.264C267.136 295.216 267.016 294.576 266.888 293.968L266.208 291.072H265.192L264.504 293.968C264.376 294.584 264.248 295.216 264.128 295.856H264.096C264.008 295.216 263.912 294.592 263.824 293.968L263.352 291.072H262.152L263.288 297ZM269.307 298.456H270.091L272.075 290.552H271.299L269.307 298.456ZM275.347 297.112C276.115 297.112 276.747 296.808 277.235 296.24L276.611 295.504C276.291 295.848 275.899 296.088 275.387 296.088C274.451 296.088 273.843 295.312 273.843 294.024C273.843 292.752 274.515 291.984 275.411 291.984C275.859 291.984 276.203 292.192 276.507 292.48L277.123 291.728C276.739 291.328 276.139 290.968 275.387 290.968C273.891 290.968 272.635 292.112 272.635 294.064C272.635 296.04 273.851 297.112 275.347 297.112Z" fill="#FCFCFC"/>
<path fill-rule="evenodd" clip-rule="evenodd" d="M268.354 279.28V286.049H271.963V279.28H273.317V274.317C273.317 273.324 272.505 272.512 271.512 272.512H268.805C267.812 272.512 267 273.324 267 274.317V279.28H268.354ZM271.963 269.805C271.963 270.807 271.16 271.61 270.159 271.61C269.157 271.61 268.354 270.807 268.354 269.805C268.354 268.803 269.157 268 270.159 268C271.16 268 271.963 268.803 271.963 269.805Z" fill="#FCFCFC"/>
<rect x="288" y="265" width="28" height="37" rx="2" fill="#3F4049"/>
<path d="M296.288 297H297.736L298.384 294.072C298.48 293.608 298.56 293.152 298.64 292.696H298.672C298.744 293.152 298.832 293.608 298.928 294.072L299.592 297H301.064L302.16 291.072H301.04L300.568 293.968C300.48 294.584 300.392 295.216 300.304 295.856H300.264C300.136 295.216 300.016 294.576 299.888 293.968L299.208 291.072H298.192L297.504 293.968C297.376 294.584 297.248 295.216 297.128 295.856H297.096C297.008 295.216 296.912 294.592 296.824 293.968L296.352 291.072H295.152L296.288 297ZM302.307 298.456H303.091L305.075 290.552H304.299L302.307 298.456ZM308.347 297.112C309.115 297.112 309.747 296.808 310.235 296.24L309.611 295.504C309.291 295.848 308.899 296.088 308.387 296.088C307.451 296.088 306.843 295.312 306.843 294.024C306.843 292.752 307.515 291.984 308.411 291.984C308.859 291.984 309.203 292.192 309.507 292.48L310.123 291.728C309.739 291.328 309.139 290.968 308.387 290.968C306.891 290.968 305.635 292.112 305.635 294.064C305.635 296.04 306.851 297.112 308.347 297.112Z" fill="#FCFCFC"/>
<path fill-rule="evenodd" clip-rule="evenodd" d="M303.415 280.634V286.049H300.707V280.634H298L300.292 273.749C300.536 273.009 301.231 272.512 302.007 272.512H302.115C302.891 272.512 303.577 273.009 303.83 273.749L306.122 280.634H303.415ZM303.866 269.805C303.866 270.807 303.063 271.61 302.061 271.61C301.059 271.61 300.256 270.807 300.256 269.805C300.256 268.803 301.059 268 302.061 268C303.063 268 303.866 268.803 303.866 269.805Z" fill="#FCFCFC"/>
<rect x="102" y="261" width="40" height="20" rx="2" transform="rotate(-90 102 261)" fill="#3F4049"/>
<path d="M115 253.272L115 252.088L113.336 252.088L112.336 251.312L115 249.776L115 248.48L111.408 250.608L109.072 248.8L109.072 250.104L111.648 252.064L111.648 252.088L109.072 252.088L109.072 253.272L115 253.272ZM115 247.788L115 246.604L109.072 246.604L109.072 247.788L115 247.788ZM115.112 242.795C115.112 241.227 113.936 240.147 112.016 240.147C110.096 240.147 108.968 241.227 108.968 242.795C108.968 244.363 110.088 245.443 112.016 245.443C113.936 245.443 115.112 244.363 115.112 242.795ZM114.088 242.795C114.088 243.675 113.28 244.235 112.016 244.235C110.744 244.235 109.984 243.675 109.984 242.795C109.984 241.915 110.744 241.355 112.016 241.355C113.28 241.355 114.088 241.915 114.088 242.795ZM115.112 237.223C115.112 235.855 114.288 235.047 113.32 235.047C112.464 235.047 112.008 235.519 111.712 236.239L111.384 237.015C111.184 237.519 111.032 237.935 110.608 237.935C110.216 237.935 109.984 237.607 109.984 237.087C109.984 236.599 110.16 236.207 110.472 235.831L109.728 235.231C109.24 235.711 108.968 236.399 108.968 237.087C108.968 238.287 109.712 239.135 110.68 239.135C111.544 239.135 112.024 238.535 112.272 237.935L112.608 237.143C112.832 236.615 112.968 236.255 113.408 236.255C113.824 236.255 114.088 236.583 114.088 237.199C114.088 237.719 113.824 238.279 113.432 238.703L114.248 239.383C114.8 238.807 115.112 238.015 115.112 237.223ZM115 233.999L115 232.815L113.336 232.815L112.336 232.039L115 230.503L115 229.207L111.408 231.335L109.072 229.527L109.072 230.831L111.648 232.791L111.648 232.815L109.072 232.815L109.072 233.999L115 233.999Z" fill="white"/>
<rect x="104" y="293" width="33" height="20" rx="2" fill="#3F4049"/>
<path d="M111.728 306H115.448V305.008H112.912V303.424H114.992V302.432H112.912V301.064H115.36V300.072H111.728V306ZM116.034 306H117.29L117.922 304.688C118.066 304.384 118.21 304.072 118.354 303.712H118.386C118.562 304.072 118.698 304.384 118.85 304.688L119.514 306H120.826L119.162 303L120.722 300.072H119.474L118.914 301.296C118.786 301.576 118.666 301.864 118.522 302.232H118.482C118.306 301.864 118.186 301.576 118.042 301.296L117.45 300.072H116.138L117.698 302.944L116.034 306ZM121.666 306H122.85V300.072H121.666V306ZM125.482 306H126.666V301.064H128.346V300.072H123.818V301.064H125.482V306Z" fill="white"/>
</svg>
