<svg width="22" height="22" viewBox="0 0 22 22" fill="none" xmlns="http://www.w3.org/2000/svg">
<path fill-rule="evenodd" clip-rule="evenodd" d="M20 11C20 15.9706 15.9706 20 11 20C6.02944 20 2 15.9706 2 11C2 6.02944 6.02944 2 11 2C15.9706 2 20 6.02944 20 11ZM22 11C22 17.0751 17.0751 22 11 22C4.92487 22 0 17.0751 0 11C0 4.92487 4.92487 0 11 0C17.0751 0 22 4.92487 22 11ZM15.6575 8.45659C15.9538 8.07137 15.8818 7.51886 15.4966 7.22253C15.1113 6.92621 14.5588 6.99827 14.2625 7.3835L10.434 12.3605L7.6195 9.89778C7.25374 9.57774 6.69778 9.6148 6.37774 9.98056C6.0577 10.3463 6.09477 10.9023 6.46053 11.2223L9.98053 14.3023C10.1634 14.4623 10.4044 14.5396 10.6462 14.5158C10.8881 14.492 11.1093 14.3692 11.2575 14.1766L15.6575 8.45659Z" fill="#43D2B0"/>
</svg>
