<svg width="24" height="24" viewBox="0 0 24 24" fill="none" xmlns="http://www.w3.org/2000/svg">
<path fill-rule="evenodd" clip-rule="evenodd" d="M12 21.6C17.3019 21.6 21.6 17.3019 21.6 12C21.6 6.69807 17.3019 2.4 12 2.4C6.69807 2.4 2.4 6.69807 2.4 12C2.4 17.3019 6.69807 21.6 12 21.6ZM12 24C18.6274 24 24 18.6274 24 12C24 5.37258 18.6274 0 12 0C5.37258 0 0 5.37258 0 12C0 18.6274 5.37258 24 12 24ZM13.2 12C13.2 12.6627 12.6627 13.2 12 13.2C11.3373 13.2 10.8 12.6627 10.8 12C10.8 11.3373 11.3373 10.8 12 10.8C12.6627 10.8 13.2 11.3373 13.2 12ZM10.5504 7C10.5504 6.44772 10.9981 6 11.5504 6H12.5839C13.1362 6 13.5839 6.44772 13.5839 7V7.27512C13.5839 7.44193 13.543 7.5992 13.4708 7.73748C13.6778 7.80457 13.8784 7.8861 14.0712 7.98088C14.1055 7.90186 14.1507 7.82601 14.2069 7.75542L14.3784 7.54029C14.7227 7.10843 15.3519 7.03742 15.7837 7.38168L16.5919 8.0259C17.0237 8.37016 17.0947 8.99933 16.7505 9.43119L16.579 9.64632C16.4525 9.80506 16.2874 9.91504 16.1079 9.97357C16.2221 10.1936 16.3189 10.4242 16.3964 10.6634C16.5347 10.5911 16.6921 10.5502 16.859 10.5502H17.1341C17.6864 10.5502 18.1341 10.9979 18.1341 11.5502V12.5837C18.1341 13.136 17.6864 13.5837 17.1341 13.5837H16.859C16.6921 13.5837 16.5347 13.5428 16.3964 13.4705C16.3309 13.6726 16.2517 13.8685 16.1598 14.057C16.3192 14.1189 16.4648 14.2225 16.579 14.3658L16.7505 14.5809C17.0947 15.0127 17.0237 15.6419 16.5919 15.9862L15.7837 16.6304C15.3519 16.9747 14.7227 16.9036 14.3784 16.4718L14.2069 16.2567C14.1742 16.2156 14.1453 16.1728 14.12 16.1287C13.927 16.2264 13.7261 16.3108 13.5185 16.3807C13.5608 16.4913 13.5839 16.6114 13.5839 16.7369V17.0121C13.5839 17.5644 13.1362 18.0121 12.5839 18.0121H11.5504C10.9981 18.0121 10.5504 17.5644 10.5504 17.0121V16.7369C10.5504 16.6115 10.5735 16.4915 10.6156 16.3809C10.4075 16.311 10.2061 16.2264 10.0127 16.1283C9.98742 16.1726 9.95842 16.2155 9.92564 16.2567L9.75414 16.4718C9.40988 16.9036 8.78071 16.9747 8.34885 16.6304L7.54071 15.9862C7.10885 15.6419 7.03783 15.0127 7.38209 14.5809L7.55359 14.3658C7.66798 14.2223 7.81382 14.1186 7.97343 14.0568C7.88167 13.8684 7.80254 13.6727 7.73713 13.4708C7.59894 13.543 7.44179 13.5837 7.27512 13.5837H7C6.44772 13.5837 6 13.136 6 12.5837V11.5502C6 10.9979 6.44772 10.5502 7 10.5502H7.27512C7.44179 10.5502 7.59893 10.591 7.73712 10.6631C7.81457 10.4241 7.91128 10.1937 8.0254 9.97379C7.84556 9.91532 7.68028 9.80526 7.55359 9.64632L7.38209 9.43119C7.03783 8.99933 7.10885 8.37016 7.54071 8.0259L8.34885 7.38168C8.78071 7.03742 9.40988 7.10843 9.75414 7.54029L9.92564 7.75542C9.98198 7.8261 10.0272 7.90207 10.0615 7.9812C10.2548 7.88617 10.4558 7.80445 10.6633 7.73723C10.5912 7.59901 10.5504 7.44183 10.5504 7.27512V7ZM15.1004 12.067C15.1004 13.7423 13.7423 15.1005 12.0669 15.1005C10.3916 15.1005 9.03341 13.7423 9.03341 12.067C9.03341 10.3916 10.3916 9.03348 12.0669 9.03348C13.7423 9.03348 15.1004 10.3916 15.1004 12.067Z" fill="#4E4B66"/>
</svg>
