<svg width="14" height="14" viewBox="0 0 14 14" fill="none" xmlns="http://www.w3.org/2000/svg">
<path fill-rule="evenodd" clip-rule="evenodd" d="M1.55556 0C1.98511 0 2.33333 0.313401 2.33333 0.7L2.33333 2.33333C2.76289 2.33333 3.11111 2.68156 3.11111 3.11111V4.66667C3.11111 5.09622 2.76289 5.44444 2.33333 5.44444L2.33333 13.3C2.33333 13.6866 1.98511 14 1.55556 14C1.126 14 0.777778 13.6866 0.777778 13.3V5.44444C0.348223 5.44444 0 5.09622 0 4.66667V3.11111C0 2.68156 0.348223 2.33333 0.777778 2.33333V0.7C0.777778 0.313401 1.126 0 1.55556 0ZM7 0C7.42955 0 7.77778 0.313401 7.77778 0.7L7.77778 8.55556C8.20733 8.55556 8.55556 8.90378 8.55556 9.33333V10.8889C8.55556 11.3184 8.20733 11.6667 7.77778 11.6667L7.77778 13.3C7.77778 13.6866 7.42955 14 7 14C6.57044 14 6.22222 13.6866 6.22222 13.3L6.22222 11.6667C5.79267 11.6667 5.44444 11.3184 5.44444 10.8889V9.33333C5.44444 8.90378 5.79267 8.55556 6.22222 8.55556L6.22222 0.7C6.22222 0.313401 6.57044 0 7 0ZM13.2222 0.7C13.2222 0.313401 12.874 0 12.4444 0C12.0149 0 11.6667 0.313401 11.6667 0.7L11.6667 3.88889C11.2371 3.88889 10.8889 4.23711 10.8889 4.66667V6.22222C10.8889 6.65178 11.2371 7 11.6667 7L11.6667 13.3C11.6667 13.6866 12.0149 14 12.4444 14C12.874 14 13.2222 13.6866 13.2222 13.3L13.2222 7C13.6518 7 14 6.65178 14 6.22222V4.66667C14 4.23711 13.6518 3.88889 13.2222 3.88889L13.2222 0.7Z" fill="#14142B"/>
</svg>
