<svg width="28" height="26" viewBox="0 0 28 26" fill="none" xmlns="http://www.w3.org/2000/svg">
<path fill-rule="evenodd" clip-rule="evenodd" d="M17.5701 2.60526L26.9416 19.1842C28.5283 21.9912 26.5449 25.5 23.3715 25.5H4.62853C1.45512 25.5 -0.528259 21.9912 1.05844 19.1842L10.4299 2.60526C12.0166 -0.201757 15.9834 -0.201752 17.5701 2.60526ZM15.785 3.6579C14.9917 2.25439 13.0083 2.25439 12.215 3.65789L2.84349 20.2368C2.05013 21.6404 3.04182 23.3947 4.62853 23.3947H23.3715C24.9582 23.3947 25.9499 21.6404 25.1565 20.2368L15.785 3.6579ZM12.5 10C12.5 9.17157 13.1716 8.5 14 8.5C14.8284 8.5 15.5 9.17157 15.5 10V16.5H12.5V10ZM14 20.5C14.8284 20.5 15.5 19.8284 15.5 19C15.5 18.1716 14.8284 17.5 14 17.5C13.1716 17.5 12.5 18.1716 12.5 19C12.5 19.8284 13.1716 20.5 14 20.5Z" fill="#FFD973"/>
</svg>
