<svg width="20" height="20" viewBox="0 0 20 20" fill="none" xmlns="http://www.w3.org/2000/svg">
<path d="M2.70052 5.08163C3.22274 4.71663 4.00996 4.78663 4.47885 5.17385L3.94107 4.39219C3.50829 3.77497 3.66329 3.10719 4.28107 2.67385C4.89885 2.24219 6.6494 3.40274 6.6494 3.40274C6.21274 2.77941 6.2944 1.98941 6.91774 1.55219C7.54107 1.11663 8.40107 1.26719 8.83774 1.89163L14.6266 10.0694L13.8888 17.2222L7.73163 14.9766L2.36107 7.01385C1.92052 6.38663 2.07274 5.52163 2.70052 5.08163Z" fill="#FF6047"/>
<path d="M1.4973 9.63107C1.4973 9.63107 0.86841 8.71441 1.78563 8.08607C2.70174 7.45774 3.33008 8.37385 3.33008 8.37385L6.2473 12.6283C6.34786 12.4605 6.45786 12.295 6.58063 12.1316L2.53174 6.22774C2.53174 6.22774 1.90341 5.31163 2.82008 4.6833C3.73619 4.05496 4.36452 4.97107 4.36452 4.97107L8.17286 10.525C8.31452 10.4094 8.45952 10.2933 8.60897 10.1794L4.19397 3.73996C4.19397 3.73996 3.56563 2.82385 4.4823 2.19552C5.39841 1.56719 6.02674 2.4833 6.02674 2.4833L10.4417 8.92163C10.604 8.82218 10.7645 8.73607 10.9256 8.64496L6.79897 2.62719C6.79897 2.62719 6.17063 1.71107 7.08674 1.08274C8.00285 0.454408 8.63119 1.37052 8.63119 1.37052L12.9945 7.73385L13.6579 8.70163C10.909 10.5872 10.6473 14.1344 12.2179 16.425C12.5317 16.8833 12.9901 16.5694 12.9901 16.5694C11.1051 13.82 11.6806 10.7305 14.4301 8.84552L13.6195 4.78885C13.6195 4.78885 13.3167 3.71996 14.3851 3.41663C15.454 3.11385 15.7573 4.18274 15.7573 4.18274L16.6934 6.96274C17.0645 8.06496 17.4595 9.16329 17.9823 10.2022C19.4584 13.1355 18.5767 16.7811 15.7934 18.6905C12.7573 20.7722 8.60674 19.9983 6.52452 16.9627L1.4973 9.63107Z" fill="#FFD973"/>
<path d="M6.66666 17.8012C4.44443 17.8012 2.19888 15.5556 2.19888 13.3334C2.19888 13.0262 1.97388 12.7778 1.66666 12.7778C1.35944 12.7778 1.08777 13.0262 1.08777 13.3334C1.08777 16.6667 3.33332 18.9123 6.66666 18.9123C6.97388 18.9123 7.22221 18.6406 7.22221 18.3334C7.22221 18.0262 6.97388 17.8012 6.66666 17.8012Z" fill="#6DB9C6"/>
<path d="M3.88889 18.8889C2.22222 18.8889 1.11111 17.7778 1.11111 16.1111C1.11111 15.8039 0.862778 15.5555 0.555556 15.5555C0.248333 15.5555 0 15.8039 0 16.1111C0 18.3333 1.66667 20 3.88889 20C4.19611 20 4.44444 19.7516 4.44444 19.4444C4.44444 19.1372 4.19611 18.8889 3.88889 18.8889ZM13.3333 1.11108C13.0267 1.11108 12.7778 1.35997 12.7778 1.66664C12.7778 1.97331 13.0267 2.2222 13.3333 2.2222C15.5556 2.2222 17.7778 4.21608 17.7778 6.66664C17.7778 6.97331 18.0267 7.22219 18.3333 7.22219C18.64 7.22219 18.8889 6.97331 18.8889 6.66664C18.8889 3.60331 16.6667 1.11108 13.3333 1.11108Z" fill="#6DB9C6"/>
<path d="M16.1111 0.0233154C15.8044 0.0233154 15.5555 0.248871 15.5555 0.555538C15.5555 0.862204 15.8044 1.13443 16.1111 1.13443C17.7778 1.13443 18.8655 2.37054 18.8655 3.88887C18.8655 4.19554 19.1372 4.44443 19.4444 4.44443C19.7517 4.44443 19.9767 4.19554 19.9767 3.88887C19.9767 1.7572 18.3333 0.0233154 16.1111 0.0233154Z" fill="#6DB9C6"/>
</svg>
