<svg width="15" height="15" viewBox="0 0 15 15" fill="none" xmlns="http://www.w3.org/2000/svg">
<path fill-rule="evenodd" clip-rule="evenodd" d="M1.70712 0.292908C1.3166 -0.0976158 0.683433 -0.0976158 0.292908 0.292908C-0.0976158 0.683433 -0.0976158 1.3166 0.292908 1.70712L6.0858 7.50002L0.292908 13.2929C-0.0976159 13.6834 -0.0976158 14.3166 0.292908 14.7071C0.683433 15.0976 1.3166 15.0976 1.70712 14.7071L7.50002 8.91423L13.2929 14.7071C13.6834 15.0976 14.3166 15.0976 14.7071 14.7071C15.0976 14.3166 15.0976 13.6834 14.7071 13.2929L8.91423 7.50002L14.7071 1.70712C15.0976 1.3166 15.0976 0.683433 14.7071 0.292909C14.3166 -0.0976159 13.6834 -0.0976158 13.2929 0.292909L7.50002 6.0858L1.70712 0.292908Z" fill="#4E4B66"/>
</svg>
