<svg width="328" height="284" viewBox="0 0 328 284" fill="none" xmlns="http://www.w3.org/2000/svg">
<path fill-rule="evenodd" clip-rule="evenodd" d="M4 1H94.074C95.7308 1 97.074 2.34315 97.074 4V64.1042H98.074V4C98.074 1.79086 96.2831 0 94.074 0H4C1.79086 0 0 1.79087 0 4.00001V114.894C0 117.103 1.79086 118.894 4 118.894H94.074C96.2831 118.894 98.074 117.103 98.074 114.894V93.6908H97.074V114.894C97.074 116.551 95.7308 117.894 94.074 117.894H4C2.34315 117.894 1 116.551 1 114.894V4.00001C1 2.34315 2.34315 1 4 1Z" fill="#D9DBE9"/>
<path fill-rule="evenodd" clip-rule="evenodd" d="M323.999 1H147C145.343 1 144 2.34315 144 4.00001V66.2958H143V4.00001C143 1.79087 144.791 0 147 0H323.999C326.209 0 327.999 1.79086 327.999 4V114.894C327.999 117.103 326.209 118.894 323.999 118.894H229.736V117.894H323.999C325.656 117.894 326.999 116.551 326.999 114.894V4C326.999 2.34315 325.656 1 323.999 1ZM205.582 117.894H147C145.343 117.894 144 116.551 144 114.894V89.8555H143V114.894C143 117.103 144.791 118.894 147 118.894H205.582V117.894Z" fill="#D9DBE9"/>
<path fill-rule="evenodd" clip-rule="evenodd" d="M4 151H94.074C95.7308 151 97.074 152.343 97.074 154V230.277H98.074V154C98.074 151.791 96.2831 150 94.074 150H4C1.79086 150 0 151.791 0 154V280C0 282.209 1.79086 284 4 284H94.074C96.2831 284 98.074 282.209 98.074 280V262.387H97.074V280C97.074 281.657 95.7308 283 94.074 283H4C2.34315 283 1 281.657 1 280V154C1 152.343 2.34314 151 4 151Z" fill="#D9DBE9"/>
<path fill-rule="evenodd" clip-rule="evenodd" d="M143 131V280C143 282.209 144.791 284 147 284H222.599V283H147C145.343 283 144 281.657 144 280V131H143ZM327 131V280C327 281.657 325.657 283 324 283H241.813V284H324C326.209 284 328 282.209 328 280V131H327Z" fill="#D9DBE9"/>
<rect x="156" y="7" width="58" height="20" rx="2" fill="#3F4049"/>
<path d="M165.496 20.112C166.864 20.112 167.672 19.288 167.672 18.32C167.672 17.464 167.2 17.008 166.48 16.712L165.704 16.384C165.2 16.184 164.784 16.032 164.784 15.608C164.784 15.216 165.112 14.984 165.632 14.984C166.12 14.984 166.512 15.16 166.888 15.472L167.488 14.728C167.008 14.24 166.32 13.968 165.632 13.968C164.432 13.968 163.584 14.712 163.584 15.68C163.584 16.544 164.184 17.024 164.784 17.272L165.576 17.608C166.104 17.832 166.464 17.968 166.464 18.408C166.464 18.824 166.136 19.088 165.52 19.088C165 19.088 164.44 18.824 164.016 18.432L163.336 19.248C163.912 19.8 164.704 20.112 165.496 20.112ZM170.576 20.112C171.128 20.112 171.696 19.92 172.136 19.616L171.736 18.896C171.416 19.096 171.096 19.208 170.728 19.208C170.064 19.208 169.584 18.824 169.488 18.088H172.248C172.28 17.984 172.304 17.768 172.304 17.544C172.304 16.312 171.664 15.408 170.432 15.408C169.368 15.408 168.344 16.312 168.344 17.76C168.344 19.24 169.32 20.112 170.576 20.112ZM169.472 17.304C169.56 16.656 169.976 16.32 170.448 16.32C171.024 16.32 171.296 16.704 171.296 17.304H169.472ZM173.273 20H174.449V17.328C174.697 16.68 175.121 16.448 175.473 16.448C175.657 16.448 175.785 16.472 175.945 16.52L176.145 15.504C176.009 15.448 175.865 15.408 175.617 15.408C175.153 15.408 174.673 15.728 174.345 16.312H174.321L174.233 15.52H173.273V20ZM177.874 20H179.234L180.73 15.52H179.602L178.946 17.752C178.826 18.192 178.706 18.656 178.586 19.112H178.546C178.426 18.656 178.306 18.192 178.186 17.752L177.53 15.52H176.346L177.874 20ZM181.476 20H182.652V15.52H181.476V20ZM182.068 14.8C182.468 14.8 182.748 14.544 182.748 14.152C182.748 13.768 182.468 13.512 182.068 13.512C181.66 13.512 181.38 13.768 181.38 14.152C181.38 14.544 181.66 14.8 182.068 14.8ZM185.809 20.112C186.305 20.112 186.849 19.944 187.281 19.568L186.809 18.792C186.561 19 186.257 19.152 185.937 19.152C185.297 19.152 184.825 18.608 184.825 17.76C184.825 16.92 185.289 16.368 185.977 16.368C186.225 16.368 186.433 16.472 186.657 16.664L187.217 15.904C186.889 15.624 186.465 15.408 185.913 15.408C184.697 15.408 183.625 16.272 183.625 17.76C183.625 19.248 184.569 20.112 185.809 20.112ZM189.834 20.112C190.386 20.112 190.954 19.92 191.394 19.616L190.994 18.896C190.674 19.096 190.354 19.208 189.986 19.208C189.322 19.208 188.842 18.824 188.746 18.088H191.506C191.538 17.984 191.562 17.768 191.562 17.544C191.562 16.312 190.922 15.408 189.69 15.408C188.626 15.408 187.602 16.312 187.602 17.76C187.602 19.24 188.578 20.112 189.834 20.112ZM188.73 17.304C188.818 16.656 189.234 16.32 189.706 16.32C190.282 16.32 190.554 16.704 190.554 17.304H188.73ZM196.591 20.112C197.575 20.112 198.495 19.224 198.495 17.68C198.495 16.312 197.831 15.408 196.727 15.408C196.287 15.408 195.839 15.624 195.487 15.944L195.519 15.224V13.616H194.343V20H195.263L195.367 19.528H195.399C195.759 19.904 196.191 20.112 196.591 20.112ZM196.327 19.144C196.087 19.144 195.799 19.056 195.519 18.808V16.84C195.823 16.528 196.095 16.376 196.399 16.376C197.015 16.376 197.287 16.848 197.287 17.704C197.287 18.68 196.871 19.144 196.327 19.144ZM200.486 20.112C200.998 20.112 201.446 19.856 201.838 19.52H201.87L201.95 20H202.91V17.384C202.91 16.088 202.326 15.408 201.19 15.408C200.486 15.408 199.846 15.672 199.318 16L199.742 16.776C200.158 16.536 200.558 16.352 200.974 16.352C201.526 16.352 201.718 16.688 201.742 17.128C199.934 17.32 199.158 17.824 199.158 18.784C199.158 19.544 199.686 20.112 200.486 20.112ZM200.87 19.192C200.526 19.192 200.278 19.04 200.278 18.688C200.278 18.288 200.646 17.984 201.742 17.848V18.752C201.454 19.032 201.206 19.192 200.87 19.192ZM204.109 20H205.285V17.328C205.533 16.68 205.957 16.448 206.309 16.448C206.493 16.448 206.621 16.472 206.781 16.52L206.981 15.504C206.845 15.448 206.701 15.408 206.453 15.408C205.989 15.408 205.509 15.728 205.181 16.312H205.157L205.069 15.52H204.109V20Z" fill="white"/>
<path d="M241 131V208H256" stroke="#BDBDC2" stroke-linejoin="round"/>
<path d="M143 223L220 223L220 208" stroke="#BDBDC2" stroke-linejoin="round"/>
<path d="M0 199L77 199L77 184" stroke="#BDBDC2" stroke-linejoin="round"/>
<path d="M0 244L77 244L77 229" stroke="#BDBDC2" stroke-linejoin="round"/>
<path d="M143 270L220 270L220 255" stroke="#BDBDC2" stroke-linejoin="round"/>
<path d="M282 131V208H297" stroke="#BDBDC2" stroke-linejoin="round"/>
<rect x="256" y="236" width="28" height="37" rx="2" fill="#3F4049"/>
<path d="M263.288 268H264.736L265.384 265.072C265.48 264.608 265.56 264.152 265.64 263.696H265.672C265.744 264.152 265.832 264.608 265.928 265.072L266.592 268H268.064L269.16 262.072H268.04L267.568 264.968C267.48 265.584 267.392 266.216 267.304 266.856H267.264C267.136 266.216 267.016 265.576 266.888 264.968L266.208 262.072H265.192L264.504 264.968C264.376 265.584 264.248 266.216 264.128 266.856H264.096C264.008 266.216 263.912 265.592 263.824 264.968L263.352 262.072H262.152L263.288 268ZM269.307 269.456H270.091L272.075 261.552H271.299L269.307 269.456ZM275.347 268.112C276.115 268.112 276.747 267.808 277.235 267.24L276.611 266.504C276.291 266.848 275.899 267.088 275.387 267.088C274.451 267.088 273.843 266.312 273.843 265.024C273.843 263.752 274.515 262.984 275.411 262.984C275.859 262.984 276.203 263.192 276.507 263.48L277.123 262.728C276.739 262.328 276.139 261.968 275.387 261.968C273.891 261.968 272.635 263.112 272.635 265.064C272.635 267.04 273.851 268.112 275.347 268.112Z" fill="#FCFCFC"/>
<path fill-rule="evenodd" clip-rule="evenodd" d="M268.354 250.28V257.049H271.963V250.28H273.317V245.317C273.317 244.324 272.505 243.512 271.512 243.512H268.805C267.812 243.512 267 244.324 267 245.317V250.28H268.354ZM271.963 240.805C271.963 241.807 271.16 242.61 270.159 242.61C269.157 242.61 268.354 241.807 268.354 240.805C268.354 239.803 269.157 239 270.159 239C271.16 239 271.963 239.803 271.963 240.805Z" fill="#FCFCFC"/>
<rect x="288" y="236" width="28" height="37" rx="2" fill="#3F4049"/>
<path d="M296.288 268H297.736L298.384 265.072C298.48 264.608 298.56 264.152 298.64 263.696H298.672C298.744 264.152 298.832 264.608 298.928 265.072L299.592 268H301.064L302.16 262.072H301.04L300.568 264.968C300.48 265.584 300.392 266.216 300.304 266.856H300.264C300.136 266.216 300.016 265.576 299.888 264.968L299.208 262.072H298.192L297.504 264.968C297.376 265.584 297.248 266.216 297.128 266.856H297.096C297.008 266.216 296.912 265.592 296.824 264.968L296.352 262.072H295.152L296.288 268ZM302.307 269.456H303.091L305.075 261.552H304.299L302.307 269.456ZM308.347 268.112C309.115 268.112 309.747 267.808 310.235 267.24L309.611 266.504C309.291 266.848 308.899 267.088 308.387 267.088C307.451 267.088 306.843 266.312 306.843 265.024C306.843 263.752 307.515 262.984 308.411 262.984C308.859 262.984 309.203 263.192 309.507 263.48L310.123 262.728C309.739 262.328 309.139 261.968 308.387 261.968C306.891 261.968 305.635 263.112 305.635 265.064C305.635 267.04 306.851 268.112 308.347 268.112Z" fill="#FCFCFC"/>
<path fill-rule="evenodd" clip-rule="evenodd" d="M303.415 251.634V257.049H300.707V251.634H298L300.292 244.749C300.536 244.009 301.231 243.512 302.007 243.512H302.115C302.891 243.512 303.577 244.009 303.83 244.749L306.122 251.634H303.415ZM303.866 240.805C303.866 241.807 303.063 242.61 302.061 242.61C301.059 242.61 300.256 241.807 300.256 240.805C300.256 239.803 301.059 239 302.061 239C303.063 239 303.866 239.803 303.866 240.805Z" fill="#FCFCFC"/>
<rect x="102" y="232" width="40" height="20" rx="2" transform="rotate(-90 102 232)" fill="#3F4049"/>
<path d="M115 224.272L115 223.088L113.336 223.088L112.336 222.312L115 220.776L115 219.48L111.408 221.608L109.072 219.8L109.072 221.104L111.648 223.064L111.648 223.088L109.072 223.088L109.072 224.272L115 224.272ZM115 218.788L115 217.604L109.072 217.604L109.072 218.788L115 218.788ZM115.112 213.795C115.112 212.227 113.936 211.147 112.016 211.147C110.096 211.147 108.968 212.227 108.968 213.795C108.968 215.363 110.088 216.443 112.016 216.443C113.936 216.443 115.112 215.363 115.112 213.795ZM114.088 213.795C114.088 214.675 113.28 215.235 112.016 215.235C110.744 215.235 109.984 214.675 109.984 213.795C109.984 212.915 110.744 212.355 112.016 212.355C113.28 212.355 114.088 212.915 114.088 213.795ZM115.112 208.223C115.112 206.855 114.288 206.047 113.32 206.047C112.464 206.047 112.008 206.519 111.712 207.239L111.384 208.015C111.184 208.519 111.032 208.935 110.608 208.935C110.216 208.935 109.984 208.607 109.984 208.087C109.984 207.599 110.16 207.207 110.472 206.831L109.728 206.231C109.24 206.711 108.968 207.399 108.968 208.087C108.968 209.287 109.712 210.135 110.68 210.135C111.544 210.135 112.024 209.535 112.272 208.935L112.608 208.143C112.832 207.615 112.968 207.255 113.408 207.255C113.824 207.255 114.088 207.583 114.088 208.199C114.088 208.719 113.824 209.279 113.432 209.703L114.248 210.383C114.8 209.807 115.112 209.015 115.112 208.223ZM115 204.999L115 203.815L113.336 203.815L112.336 203.039L115 201.503L115 200.207L111.408 202.335L109.072 200.527L109.072 201.831L111.648 203.791L111.648 203.815L109.072 203.815L109.072 204.999L115 204.999Z" fill="white"/>
<rect x="104" y="264" width="33" height="20" rx="2" fill="#3F4049"/>
<path d="M111.728 277H115.448V276.008H112.912V274.424H114.992V273.432H112.912V272.064H115.36V271.072H111.728V277ZM116.034 277H117.29L117.922 275.688C118.066 275.384 118.21 275.072 118.354 274.712H118.386C118.562 275.072 118.698 275.384 118.85 275.688L119.514 277H120.826L119.162 274L120.722 271.072H119.474L118.914 272.296C118.786 272.576 118.666 272.864 118.522 273.232H118.482C118.306 272.864 118.186 272.576 118.042 272.296L117.45 271.072H116.138L117.698 273.944L116.034 277ZM121.666 277H122.85V271.072H121.666V277ZM125.482 277H126.666V272.064H128.346V271.072H123.818V272.064H125.482V277Z" fill="white"/>
</svg>
