<svg width="62" height="62" viewBox="0 0 62 62" fill="none" xmlns="http://www.w3.org/2000/svg">
<circle cx="31" cy="31" r="31" fill="#FCFCFC"/>
<path fill-rule="evenodd" clip-rule="evenodd" d="M22.3333 20C22.9777 20 23.5 20.4701 23.5 21.05V23.5C24.1443 23.5 24.6667 24.0223 24.6667 24.6667V27C24.6667 27.6443 24.1443 28.1667 23.5 28.1667V39.95C23.5 40.5299 22.9777 41 22.3333 41C21.689 41 21.1667 40.5299 21.1667 39.95V28.1667C20.5223 28.1667 20 27.6443 20 27V24.6667C20 24.0223 20.5223 23.5 21.1667 23.5V21.05C21.1667 20.4701 21.689 20 22.3333 20ZM30.5 20C31.1443 20 31.6667 20.4701 31.6667 21.05L31.6667 32.8333C32.311 32.8333 32.8333 33.3557 32.8333 34V36.3333C32.8333 36.9777 32.311 37.5 31.6667 37.5L31.6667 39.95C31.6667 40.5299 31.1443 41 30.5 41C29.8557 41 29.3333 40.5299 29.3333 39.95L29.3333 37.5C28.689 37.5 28.1667 36.9777 28.1667 36.3333V34C28.1667 33.3557 28.689 32.8333 29.3333 32.8333L29.3333 21.05C29.3333 20.4701 29.8557 20 30.5 20ZM39.8333 21.05C39.8333 20.4701 39.311 20 38.6667 20C38.0223 20 37.5 20.4701 37.5 21.05L37.5 25.8333C36.8557 25.8333 36.3333 26.3557 36.3333 27V29.3333C36.3333 29.9777 36.8557 30.5 37.5 30.5L37.5 39.95C37.5 40.5299 38.0223 41 38.6667 41C39.311 41 39.8333 40.5299 39.8333 39.95L39.8333 30.5C40.4777 30.5 41 29.9777 41 29.3333V27C41 26.3557 40.4777 25.8333 39.8333 25.8333L39.8333 21.05Z" fill="#14142B"/>
</svg>
