<svg width="108" height="134" viewBox="0 0 108 134" fill="none" xmlns="http://www.w3.org/2000/svg">
<g filter="url(#filter0_ddd_346_8372)">
<circle cx="61" cy="61" r="31" fill="#252849"/>
</g>
<g filter="url(#filter1_d_346_8372)">
<path d="M69.542 68.051C70.1997 67.1694 70.651 66.1513 70.8627 65.072C71.0744 63.9926 71.041 62.8795 70.765 61.8148C70.489 60.7501 69.9774 59.7609 69.2681 58.9203C68.5588 58.0797 67.6698 57.4091 66.6666 56.9581C66.4481 55.7009 65.946 54.5101 65.1983 53.4761C64.4507 52.4421 63.4772 51.5921 62.3518 50.9908C61.2264 50.3895 59.9788 50.0525 58.7037 50.0057C57.4287 49.9588 56.1597 50.2032 54.9932 50.7203C53.8267 51.2374 52.7934 52.0136 51.9719 52.9899C51.1503 53.9662 50.5621 55.1169 50.2519 56.3546C49.9417 57.5923 49.9177 58.8845 50.1817 60.1329C50.4457 61.3813 50.9907 62.5531 51.7754 63.5592L50.3167 65.0075C50.1711 65.1551 50.0725 65.3425 50.0333 65.5461C49.994 65.7497 50.016 65.9603 50.0964 66.1514C50.1751 66.3431 50.3088 66.5072 50.4806 66.6229C50.6524 66.7387 50.8547 66.8011 51.0618 66.8021H57.033C57.6277 68.0558 58.5652 69.1155 59.7371 69.8584C60.909 70.6013 62.2673 70.9971 63.6548 71H69.9513C70.1585 70.999 70.3607 70.9366 70.5325 70.8208C70.7043 70.705 70.838 70.541 70.9168 70.3493C70.9971 70.1582 71.0191 69.9476 70.9799 69.744C70.9406 69.5404 70.842 69.353 70.6964 69.2054L69.542 68.051ZM56.3089 63.6537C56.3104 64.0051 56.3384 64.356 56.3929 64.7032H53.5909L53.9582 64.3463C54.0566 64.2488 54.1346 64.1327 54.1879 64.0048C54.2412 63.8769 54.2686 63.7398 54.2686 63.6012C54.2686 63.4627 54.2412 63.3255 54.1879 63.1976C54.1346 63.0697 54.0566 62.9537 53.9582 62.8561C53.3701 62.2744 52.9038 61.5812 52.5867 60.8172C52.2696 60.0532 52.1079 59.2336 52.1112 58.4063C52.1112 56.7363 52.7746 55.1347 53.9554 53.9538C55.1363 52.7729 56.7378 52.1095 58.4077 52.1095C59.7108 52.1017 60.9835 52.5024 62.047 53.2554C63.1106 54.0084 63.9114 55.0757 64.3369 56.3074C64.1061 56.3074 63.8857 56.3074 63.6548 56.3074C61.7066 56.3074 59.8381 57.0814 58.4605 58.4591C57.0829 59.8368 56.3089 61.7053 56.3089 63.6537ZM67.3697 68.9011L67.4222 68.9535H63.6548C62.441 68.9514 61.2655 68.5284 60.3285 67.7567C59.3915 66.985 58.7511 65.9123 58.5162 64.7214C58.2814 63.5304 58.4667 62.2949 59.0406 61.2252C59.6145 60.1556 60.5415 59.318 61.6636 58.8552C62.7857 58.3924 64.0336 58.3329 65.1947 58.687C66.3557 59.0411 67.3581 59.7867 68.031 60.797C68.704 61.8072 69.0059 63.0196 68.8853 64.2274C68.7647 65.4353 68.2291 66.564 67.3697 67.4213C67.172 67.6151 67.0589 67.8791 67.0549 68.1559C67.0555 68.2948 67.0836 68.4321 67.1377 68.56C67.1917 68.688 67.2706 68.8039 67.3697 68.9011V68.9011Z" fill="#FCFCFC"/>
</g>
<defs>
<filter id="filter0_ddd_346_8372" x="0" y="0" width="134" height="134" filterUnits="userSpaceOnUse" color-interpolation-filters="sRGB">
<feFlood flood-opacity="0" result="BackgroundImageFix"/>
<feColorMatrix in="SourceAlpha" type="matrix" values="0 0 0 0 0 0 0 0 0 0 0 0 0 0 0 0 0 0 127 0" result="hardAlpha"/>
<feOffset dx="6" dy="6"/>
<feGaussianBlur stdDeviation="18"/>
<feColorMatrix type="matrix" values="0 0 0 0 0 0 0 0 0 0 0 0 0 0 0 0 0 0 0.06 0"/>
<feBlend mode="normal" in2="BackgroundImageFix" result="effect1_dropShadow_346_8372"/>
<feColorMatrix in="SourceAlpha" type="matrix" values="0 0 0 0 0 0 0 0 0 0 0 0 0 0 0 0 0 0 127 0" result="hardAlpha"/>
<feOffset dx="-4" dy="-4"/>
<feGaussianBlur stdDeviation="6.5"/>
<feColorMatrix type="matrix" values="0 0 0 0 1 0 0 0 0 1 0 0 0 0 1 0 0 0 0.2 0"/>
<feBlend mode="normal" in2="effect1_dropShadow_346_8372" result="effect2_dropShadow_346_8372"/>
<feColorMatrix in="SourceAlpha" type="matrix" values="0 0 0 0 0 0 0 0 0 0 0 0 0 0 0 0 0 0 127 0" result="hardAlpha"/>
<feOffset dx="4" dy="4"/>
<feGaussianBlur stdDeviation="3.5"/>
<feColorMatrix type="matrix" values="0 0 0 0 0 0 0 0 0 0 0 0 0 0 0 0 0 0 0.07 0"/>
<feBlend mode="multiply" in2="effect2_dropShadow_346_8372" result="effect3_dropShadow_346_8372"/>
<feBlend mode="normal" in="SourceGraphic" in2="effect3_dropShadow_346_8372" result="shape"/>
</filter>
<filter id="filter1_d_346_8372" x="30" y="50" width="61" height="61" filterUnits="userSpaceOnUse" color-interpolation-filters="sRGB">
<feFlood flood-opacity="0" result="BackgroundImageFix"/>
<feColorMatrix in="SourceAlpha" type="matrix" values="0 0 0 0 0 0 0 0 0 0 0 0 0 0 0 0 0 0 127 0" result="hardAlpha"/>
<feOffset dy="20"/>
<feGaussianBlur stdDeviation="10"/>
<feComposite in2="hardAlpha" operator="out"/>
<feColorMatrix type="matrix" values="0 0 0 0 0.608333 0 0 0 0 0.572847 0 0 0 0 0.572847 0 0 0 0.25 0"/>
<feBlend mode="normal" in2="BackgroundImageFix" result="effect1_dropShadow_346_8372"/>
<feBlend mode="normal" in="SourceGraphic" in2="effect1_dropShadow_346_8372" result="shape"/>
</filter>
</defs>
</svg>
