<svg width="145" height="146" viewBox="0 0 145 146" fill="none" xmlns="http://www.w3.org/2000/svg">
<g clip-path="url(#clip0_70_1614)">
<path d="M44.3121 0H40.281V4.03506H44.3121V0Z" fill="black"/>
<path d="M64.4527 0H60.4216V4.03506H64.4527V0Z" fill="black"/>
<path d="M92.6405 0H88.6094V4.03506H92.6405V0Z" fill="black"/>
<path d="M56.3906 8.07013V4.03506H52.3595V0H48.3284V4.03506V8.07013V12.0901H52.3595V8.07013H56.3906Z" fill="black"/>
<path d="M96.6717 4.03503H92.6406V8.0701H96.6717V4.03503Z" fill="black"/>
<path d="M104.719 12.0901V16.1252H108.75V12.0901V8.0701V4.03503H104.719V8.0701V12.0901Z" fill="black"/>
<path d="M40.2811 12.0902V8.07019H36.25V12.0902V16.1253H40.2811V12.0902Z" fill="black"/>
<path d="M104.734 0H100.703V4.03506H104.734V0Z" fill="black"/>
<path d="M96.6716 16.1253H100.703V12.0902V8.07019H96.6716V12.0902V16.1253Z" fill="black"/>
<path d="M48.3434 16.1252H44.3123V20.1602H48.3434V16.1252Z" fill="black"/>
<path d="M64.4527 16.1252H60.4216V20.1602H64.4527V16.1252Z" fill="black"/>
<path d="M44.3121 20.1602H40.281V24.1953H44.3121V20.1602Z" fill="black"/>
<path d="M80.5624 20.1602H76.5312V24.1953H80.5624V20.1602Z" fill="black"/>
<path d="M40.2811 24.1953H36.25V28.2304H40.2811V24.1953Z" fill="black"/>
<path d="M84.5934 24.1953H80.5623V28.2304H84.5934V24.1953Z" fill="black"/>
<path d="M52.3595 28.2303V24.1953V20.1602H48.3284V24.1953V28.2303V32.2504H52.3595V28.2303Z" fill="black"/>
<path d="M60.4217 28.2303V24.1953V20.1602H56.3906V24.1953V28.2303V32.2504H60.4217V28.2303Z" fill="black"/>
<path d="M80.5624 28.2304H76.5312V32.2504V36.2855H80.5624V32.2504V28.2304Z" fill="black"/>
<path d="M32.2189 36.2855H28.1877V40.3206H32.2189V36.2855Z" fill="black"/>
<path d="M80.5623 40.3206V44.3556H84.5783V40.3206V36.2855H80.5623V40.3206Z" fill="black"/>
<path d="M112.781 36.2854H108.75V32.2504H104.719V36.2854H100.703V40.3205H104.719V44.3556H108.75H112.781V40.3205V36.2854Z" fill="black"/>
<path d="M4.03112 40.3206H0V44.3556H4.03112V40.3206Z" fill="black"/>
<path d="M20.1405 40.3206V36.2855H16.1094V40.3206V44.3556H20.1405V40.3206Z" fill="black"/>
<path d="M100.703 40.3206H96.6716V44.3556H100.703V40.3206Z" fill="black"/>
<path d="M120.843 40.3206H116.812V44.3556H120.843V40.3206Z" fill="black"/>
<path d="M16.1093 48.3756V44.3556H12.0782V40.3206V36.2855H8.06213H4.03101V40.3206H8.06213V44.3556V48.3756H12.0782H16.1093Z" fill="black"/>
<path d="M92.6405 44.3555H88.6094V48.3906H92.6405V44.3555Z" fill="black"/>
<path d="M132.922 48.3757V44.3556V40.3206V36.2855H128.89V40.3206H124.859V44.3556V48.3757V52.4107H128.89V48.3757H132.922Z" fill="black"/>
<path d="M8.06213 48.3755H4.03101V52.4106H8.06213V48.3755Z" fill="black"/>
<path d="M108.75 20.1602H104.719V24.1953H108.75V20.1602Z" fill="black"/>
<path d="M104.734 24.1953H100.703V28.2304H104.734V24.1953Z" fill="black"/>
<path d="M20.1405 48.3755H16.1094V52.4106H20.1405V48.3755Z" fill="black"/>
<path d="M48.3283 48.3755V44.3555H44.3123V48.3755V52.4106V56.4457H48.3283V52.4106H52.3595V48.3755H48.3283Z" fill="black"/>
<path d="M116.812 52.4106V48.3755V44.3555H112.781V48.3755H108.75V52.4106H112.781H116.812Z" fill="black"/>
<path d="M12.0934 52.4106H8.06226V56.4457H12.0934V52.4106Z" fill="black"/>
<path d="M24.1717 56.4457V60.4807H28.2029H32.2189H36.2501H40.2812V56.4457V52.4106H36.2501V56.4457H32.2189H28.2029V52.4106H32.2189V48.3755V44.3555H28.2029H24.1717V48.3755V52.4106H20.1406V56.4457H24.1717Z" fill="black"/>
<path d="M104.719 56.4457H108.75V52.4106H104.719H100.703V56.4457V60.4808H96.6716V64.5158V68.5358H100.703V64.5158H104.719V60.4808V56.4457Z" fill="black"/>
<path d="M120.843 56.4457H116.812H112.781V60.4807H116.812H120.843V64.5158H124.86H128.891V60.4807V56.4457H124.86H120.843Z" fill="black"/>
<path d="M4.03112 60.4807V56.4457H0V60.4807V64.5158H4.03112V60.4807Z" fill="black"/>
<path d="M48.3434 60.4807H44.3123V64.5158H48.3434V60.4807Z" fill="black"/>
<path d="M72.5 60.4807V64.5157H76.5311H80.5622H84.5783V60.4807V56.4456H88.6094H92.6406H96.6717V52.4106V48.3755H92.6406V52.4106H88.6094H84.5783V48.3755H80.5622V52.4106V56.4456H76.5311V60.4807H72.5Z" fill="black"/>
<path d="M108.75 64.5158H104.719V68.5358V72.5709H108.75V68.5358H112.781V64.5158V60.4807H108.75V64.5158Z" fill="black"/>
<path d="M44.3122 68.5359V64.5159H40.2811H36.25V68.5359H40.2811H44.3122Z" fill="black"/>
<path d="M52.3594 68.5509V72.5859H56.3906V84.6309H60.4217V88.7412H72.4549V80.641H68.4689V84.6761H64.4528V80.641H60.4217V72.5859H68.4689V76.6059H72.5602V80.641H80.6224V84.6761H84.5934V80.641H88.6245V76.6059H84.5934V72.5859H80.5622V76.6059H76.5311V72.5859H72.5602V68.5509H64.4528V56.5059H68.4689V60.541H72.5602V56.4457H76.5913V48.3906H72.5602V52.4257H68.4689V48.3906H72.5602V44.3555H76.5913V40.3205H72.5602V36.3005H68.4689V40.3205H64.4528V36.3005H68.4689V32.2654H72.5602V16.1402H84.5934V20.1602H88.6245V24.1953H92.6556V28.2304H88.6094V32.2654H84.5934V36.3005H88.6245V40.3205H92.6556V36.3005H96.6265V20.1602H92.6405V8.11527H88.6094V4.03503H76.5762V8.0701H80.6074V12.1052H68.5742V4.03503H64.4528V8.0701H56.3906V12.1052H52.3594V16.1402H60.4217V12.1052H64.4528V16.1402H68.4689V24.1953H64.4528V32.2654H60.4217V36.3005H56.3906V32.2654H52.3594V36.3005H48.3283V32.2654H44.3122V36.3005H36.25V40.3205H56.3906V52.3654H52.3594V64.4104H48.3283V68.4455L52.3594 68.5509ZM60.4217 48.3906V44.3555H64.4528V52.4257H60.4217V48.3906ZM56.3906 56.4457H60.4217V60.4807H56.3906V56.4457ZM60.4217 64.5158V68.5509H56.3906V64.5158H60.4217Z" fill="black"/>
<path d="M88.6095 68.5359H92.6406V64.5159H88.6095H84.5784V68.5359H88.6095Z" fill="black"/>
<path d="M4.03112 68.5358H0V72.5709H4.03112V68.5358Z" fill="black"/>
<path d="M44.3121 72.5709H40.281V76.606H44.3121V80.641H48.3282H52.3593V76.606H48.3282V72.5709V68.5358H44.3121V72.5709Z" fill="black"/>
<path d="M28.2029 76.606H32.2189H36.2501V72.5709V68.5359H32.2189V64.5159H28.2029H24.1717H20.1406V68.5359H24.1717V72.5709H28.2029V76.606Z" fill="black"/>
<path d="M92.6405 72.5709H88.6094V76.6059H92.6405V72.5709Z" fill="black"/>
<path d="M108.75 72.586V76.606H104.719V80.641H112.781V84.6761H116.812V100.786H112.781V104.821H108.75V100.786H112.781V96.7662H100.748V100.786H104.764V104.821H100.703V108.856H96.6265V116.911H100.658V112.831H104.674V116.866H100.703V120.901H104.719V124.936H100.703V128.971H104.719V132.991H108.75V128.971H112.781V124.936H116.812V128.971H112.781V132.991H116.812V137.027H120.843V141.062H116.812V137.027H112.781V141.062H108.75V145.097H132.922V141.062H136.953V137.027H128.89V141.062H124.859V137.027H128.89V132.991H120.843V124.936H124.859V116.927H132.922V112.831H136.953V108.871H128.89V112.831H124.859V108.871H128.89V104.836H120.843V88.7413H124.859V96.7964H128.89V88.7413H132.922V84.6761H120.888V80.641H116.812V76.606H120.843V80.641H124.859V76.606H128.89V72.586H124.859V68.5509H112.826V72.586H108.75ZM120.783 120.962H108.75V108.917H120.783V120.962Z" fill="black"/>
<path d="M100.703 76.6059H104.719V72.5709H100.703H96.6716V76.6059V80.641H100.703V76.6059Z" fill="black"/>
<path d="M132.922 76.6059H128.891V80.641H132.922V76.6059Z" fill="black"/>
<path d="M28.2028 80.6411H24.1716V84.6761H28.2028V80.6411Z" fill="black"/>
<path d="M96.6717 80.6411H92.6406V84.6761H96.6717V80.6411Z" fill="black"/>
<path d="M80.5624 84.661H76.5312V88.6961H80.5624V84.661Z" fill="black"/>
<path d="M100.703 88.6961H104.719V84.661H100.703H96.6716V88.6961V92.7311H100.703V88.6961Z" fill="black"/>
<path d="M108.75 88.696H104.719V92.7311H108.75V88.696Z" fill="black"/>
<path d="M60.4217 92.7312H56.3906V96.7663H60.4217V92.7312Z" fill="black"/>
<path d="M68.484 92.7312H64.4529V96.7663H68.484V92.7312Z" fill="black"/>
<path d="M76.5311 92.7312H72.5V96.7663H76.5311V92.7312Z" fill="black"/>
<path d="M64.4527 96.7662H60.4216V100.801H64.4527V96.7662Z" fill="black"/>
<path d="M72.5001 96.7662H68.469V100.801H72.5001V96.7662Z" fill="black"/>
<path d="M20.1406 100.801V96.7662V92.7311V88.6961V84.661H16.1094H12.0783V80.641V76.6059H16.1094V80.641H20.1406H24.1717V76.6059V72.5709H20.1406H16.1094V68.5358V64.5158V60.4807V56.4457H12.0783V60.4807V64.5158V68.5358V72.5709H8.06224H4.03112V76.6059H8.06224V80.641H4.03112V76.6059H0V80.641V84.661H4.03112V88.6961H0V92.7311V96.7662V100.801V104.821V108.856H4.03112H8.06224H12.0783V104.821H8.06224V100.801H4.03112V96.7662V92.7311H8.06224H12.0783V88.6961H16.1094V92.7311V96.7662V100.801H12.0783V104.821H16.1094H20.1406V108.856H24.1717V104.821H28.2028V100.801H24.1717H20.1406Z" fill="black"/>
<path d="M60.4216 104.821V100.801H56.3905V96.7661H52.3594V100.801H48.3283V96.7661H52.3594V92.7311V88.696V84.661H48.3283H44.3122V88.696H48.3283V92.7311H44.3122H40.2811H36.25H32.2188V88.696H36.25H40.2811V84.661H44.3122V80.641H40.2811V76.6059H36.25V80.641V84.661H32.2188H28.2028V88.696V92.7311H24.1716V96.7661H28.2028V100.801H32.2188V96.7661H36.25V100.801H40.2811V96.7661H44.3122V100.801V104.821H40.2811H36.25V100.801H32.2188V104.821V108.856H36.25H40.2811V112.891H36.25V116.926H40.2811V120.961H44.3122V116.926V112.891V108.856H48.3283V104.821H52.3594V108.856H56.3905V104.821H60.4216Z" fill="black"/>
<path d="M84.5783 104.821H88.6095V100.801H92.6406H96.6717V96.7663V92.7312H92.6406V96.7663H88.6095H84.5783V92.7312H80.5623V96.7663V100.801H84.5783V104.821Z" fill="black"/>
<path d="M100.703 100.801H96.6716V104.836H100.703V100.801Z" fill="black"/>
<path d="M80.5624 104.821V100.801H76.5312V104.821V108.856H80.5624V104.821Z" fill="black"/>
<path d="M96.6717 104.821H92.6406V108.856H96.6717V104.821Z" fill="black"/>
<path d="M88.6095 112.891H92.6406V108.856H88.6095H84.5783H80.5623V112.891H84.5783H88.6095Z" fill="black"/>
<path d="M52.3595 112.891H48.3284V116.926H52.3595H56.3906V112.891H52.3595Z" fill="black"/>
<path d="M116.812 112.891H112.781V116.926H116.812V112.891Z" fill="black"/>
<path d="M60.4217 116.926H56.3906V120.962H60.4217V116.926Z" fill="black"/>
<path d="M132.922 120.962H128.891V124.997H132.922V120.962Z" fill="black"/>
<path d="M40.2811 124.982H36.25V129.017H40.2811V124.982Z" fill="black"/>
<path d="M56.3905 124.982V120.962H52.3594V124.982V129.017V133.052H56.3905V129.017V124.982Z" fill="black"/>
<path d="M96.6717 124.982H92.6406V129.017H96.6717V124.982Z" fill="black"/>
<path d="M48.3434 129.017H44.3123V133.052H48.3434V129.017Z" fill="black"/>
<path d="M64.4527 129.017H60.4216V133.052H64.4527V129.017Z" fill="black"/>
<path d="M44.3122 133.052H40.2811H36.25V137.087V141.107H40.2811V137.087H44.3122V133.052Z" fill="black"/>
<path d="M60.4217 133.052H56.3906V137.087H60.4217V133.052Z" fill="black"/>
<path d="M84.5934 133.052H88.6245V129.032H80.5623V137.087H76.5312V133.052H72.5602V129.032H80.6225V124.997H92.6557V120.961H80.6225V112.831H76.5312V108.871H68.4689V104.836H60.4217V108.871H56.3906V112.831H64.4529V128.971H68.4689V132.991H64.4529V141.062H68.4689V137.026H72.5602V141.062H84.5934V132.991V133.052ZM68.484 121.007H72.5602V116.926H68.4689V112.831H72.5602V116.866H76.5914V124.936H68.4689L68.484 121.007Z" fill="black"/>
<path d="M52.3595 137.087H48.3284V141.122H52.3595V137.087Z" fill="black"/>
<path d="M48.3434 141.107H44.3123V145.142H48.3434V141.107Z" fill="black"/>
<path d="M56.3905 141.107H52.3594V145.142H56.3905H60.4216H64.4527V141.107H60.4216H56.3905Z" fill="black"/>
<path d="M72.5001 141.107H68.469V145.142H72.5001V141.107Z" fill="black"/>
<path d="M136.953 92.7312H132.922V96.7663V100.801H136.953V96.7663V92.7312Z" fill="black"/>
<path d="M136.953 80.641H132.922V84.661H136.953H140.969V88.696H145V84.661V80.641V76.6059H140.969V80.641H136.953Z" fill="black"/>
<path d="M140.969 76.606V72.5709H136.953V68.5358H132.922V72.5709V76.606H136.953H140.969Z" fill="black"/>
<path d="M136.953 52.4106H132.922H128.891V56.4457H132.922V60.4808V64.5158H136.953V60.4808H140.969V56.4457H145V52.4106H140.969H136.953Z" fill="black"/>
<path d="M140.969 100.801H136.953V104.821H140.969V108.856V112.891H145V108.856V104.821V100.801V96.7662H140.969V100.801Z" fill="black"/>
<path d="M100.703 129.017H96.6716V133.052H100.703V129.017Z" fill="black"/>
<path d="M112.781 133.052H108.75V137.087H112.781V133.052Z" fill="black"/>
<path d="M104.719 137.087V133.052H100.703V137.087H96.6717V133.052H92.6406V137.087H88.6095V141.107H84.5784V145.142H88.6095H92.6406V141.107H96.6717V145.142H100.703V141.107H104.719H108.75V137.087H104.719Z" fill="black"/>
<path d="M136.953 124.982H132.922V129.017H136.953V124.982Z" fill="black"/>
<path d="M140.969 129.017H136.953V133.052H140.969V137.087V141.107H145V137.087V133.052V129.017V124.982H140.969V129.017Z" fill="black"/>
<path d="M32.2189 0H0V32.2654H32.2189V0ZM28.1878 28.2304H4.03112V4.03506H28.1878V28.2304Z" fill="black"/>
<path d="M24.1717 8.07019H8.06226V24.1954H24.1717V8.07019Z" fill="black"/>
<path d="M0 145.955H32.2189V113.75H0V145.955ZM4.03112 117.74H28.1878V141.92H4.03112V117.74Z" fill="black"/>
<path d="M24.1717 121.805H8.06226V137.93H24.1717V121.805Z" fill="black"/>
<path d="M112.781 0V32.2654H145V0H112.781ZM140.969 28.2304H116.812V4.03506H140.969V28.2304Z" fill="black"/>
<path d="M136.953 8.07019H120.843V24.1954H136.953V8.07019Z" fill="black"/>
</g>
<defs>
<clipPath id="clip0_70_1614">
<rect width="145" height="146" fill="white"/>
</clipPath>
</defs>
</svg>
