<svg width="49" height="26" viewBox="0 0 49 26" fill="none" xmlns="http://www.w3.org/2000/svg">
<g clip-path="url(#clip0_540_9789)">
<path d="M12.697 10.3846C13.3043 10.3846 13.898 10.5629 14.4031 10.8969C14.9081 11.2309 15.3017 11.7057 15.5343 12.2612C15.7669 12.8167 15.8279 13.428 15.7096 14.0178C15.5913 14.6076 15.2991 15.1494 14.8699 15.5749C14.4407 16.0003 13.8937 16.2901 13.2981 16.4078C12.7025 16.5255 12.0851 16.4657 11.5238 16.236C10.9625 16.0063 10.4826 15.617 10.1447 15.1173C9.80688 14.6177 9.62622 14.03 9.62561 13.4287C9.62643 12.6221 9.95019 11.8488 10.5259 11.2782C11.1017 10.7076 11.8824 10.3863 12.697 10.3846Z" fill="#14142B"/>
<path fill-rule="evenodd" clip-rule="evenodd" d="M22.8359 20.9838C24.6502 18.598 25.5462 15.6501 25.3631 12.6693C25.18 9.68838 23.9298 6.86972 21.8369 4.71924C22.1826 4.54389 22.558 4.43283 22.9442 4.39156C22.9947 4.38849 23.0453 4.38849 23.0958 4.39156C23.1456 4.37993 23.1963 4.37174 23.2473 4.36706L29.8417 3.65657C30.2672 3.60022 30.6997 3.62868 31.1139 3.74026C31.5281 3.85184 31.9156 4.04429 32.2536 4.3063C32.5916 4.56832 32.8732 4.8946 33.082 5.26595C33.2908 5.63731 33.4224 6.04626 33.4692 6.46873C33.5161 6.89121 33.4771 7.31869 33.3546 7.72603C33.2321 8.13337 33.0286 8.51236 32.756 8.84069C32.4835 9.16903 32.1474 9.44009 31.7674 9.63793C31.3875 9.83577 30.9715 9.95641 30.5438 9.99273L26.8322 10.3909L27.3116 14.7885L31.0232 14.3873C31.8597 14.3207 32.6895 14.5797 33.3361 15.1093C33.9827 15.639 34.3951 16.3974 34.4858 17.2234C34.5764 18.0494 34.3381 18.8779 33.8214 19.5327C33.3048 20.1874 32.5506 20.6168 31.7192 20.7296L25.1248 21.4401C24.853 21.4673 24.5788 21.4621 24.3082 21.4248C23.7882 21.4005 23.2823 21.249 22.8359 20.9838ZM20.145 8.37271C19.2789 7.12634 18.1085 6.11711 16.7426 5.43891C15.4881 4.80844 14.1007 4.48102 12.6939 4.48343C11.0548 4.48027 9.44581 4.91877 8.03928 5.75194C6.63275 6.5851 5.48173 7.78153 4.70957 9.21298C3.93742 10.6444 3.57325 12.2569 3.6561 13.8777C3.73894 15.4984 4.26567 17.0663 5.17984 18.4132C6.09401 19.7602 7.36115 20.8354 8.84545 21.5238C10.3298 22.2121 11.9752 22.4875 13.6056 22.3205C15.2359 22.1535 16.7896 21.5504 18.1002 20.5759C19.4107 19.6013 20.4287 18.292 21.0451 16.7883C21.4885 15.7195 21.7155 14.575 21.7132 13.4196C21.7174 11.6191 21.1707 9.85953 20.145 8.37271ZM18.7902 2.40098C16.7951 1.31778 14.5426 0.785202 12.2684 0.858933C9.9942 0.932664 7.78176 1.61 5.86244 2.82011C3.94312 4.03022 2.38742 5.72866 1.358 7.73783C0.328583 9.74699 -0.136736 11.9931 0.0107003 14.2413C0.158137 16.4894 0.912912 18.6571 2.1961 20.5176C3.4793 22.3781 5.24377 23.8631 7.30503 24.8173C9.36628 25.7715 11.6486 26.1599 13.9134 25.9418C16.1781 25.7237 18.3421 24.9072 20.179 23.5777C21.2624 24.4317 22.5832 24.9381 23.9649 25.0292C24.239 25.0608 24.5148 25.0772 24.7907 25.0782C25.0345 25.0783 25.2782 25.066 25.5207 25.0415L32.1182 24.331C33.5475 24.1755 34.8919 23.5811 35.963 22.6313C37.0341 21.6814 37.7783 20.4236 38.0913 19.034C38.4043 17.6445 38.2705 16.1928 37.7085 14.8823C37.1466 13.5718 36.1847 12.4682 34.9576 11.7261C35.9497 10.7859 36.6348 9.57322 36.9245 8.24414C37.2142 6.91507 37.0954 5.53054 36.5832 4.26895C36.0711 3.00736 35.1891 1.9265 34.051 1.16566C32.9128 0.404816 31.5707 -0.00115975 30.1974 3.94137e-05C29.9452 -0.000854656 29.6931 0.013463 29.4427 0.0429132L22.8483 0.753396L22.6998 0.77177H22.5452C21.1546 0.921286 19.8438 1.48999 18.7902 2.40098Z" fill="#14142B"/>
<path d="M43.7016 5.79712C42.6534 5.79651 41.6286 6.10374 40.7568 6.67994C39.885 7.25614 39.2055 8.07541 38.8041 9.03411C38.4026 9.9928 38.2975 11.0478 38.5018 12.0657C38.7061 13.0836 39.2108 14.0187 39.952 14.7525C40.6932 15.4863 41.6376 15.986 42.6656 16.1883C43.6937 16.3907 44.7593 16.2865 45.7276 15.8891C46.6958 15.4917 47.5233 14.8188 48.1053 13.9556C48.6872 13.0925 48.9975 12.0778 48.9969 11.04C48.9945 9.65024 48.4358 8.31811 47.4432 7.3354C46.4507 6.3527 45.1053 5.79955 43.7016 5.79712ZM43.7016 12.657C43.3786 12.657 43.0629 12.5621 42.7943 12.3844C42.5257 12.2068 42.3164 11.9542 42.1928 11.6588C42.0692 11.3633 42.0369 11.0382 42.0999 10.7245C42.1629 10.4109 42.3184 10.1228 42.5468 9.89663C42.7752 9.67049 43.0662 9.51649 43.383 9.4541C43.6998 9.39171 44.0282 9.42373 44.3266 9.54612C44.625 9.6685 44.8801 9.87575 45.0595 10.1417C45.239 10.4076 45.3348 10.7202 45.3348 11.04C45.3352 11.2524 45.2932 11.4629 45.2113 11.6593C45.1293 11.8556 45.0091 12.034 44.8573 12.1843C44.7056 12.3345 44.5254 12.4536 44.3271 12.5347C44.1288 12.6158 43.9162 12.6574 43.7016 12.657Z" fill="#14142B"/>
</g>
<defs>
<clipPath id="clip0_540_9789">
<rect width="49" height="26" fill="#14142B"/>
</clipPath>
</defs>
</svg>
