<svg width="40" height="40" viewBox="0 0 40 40" fill="none" xmlns="http://www.w3.org/2000/svg">
<rect x="2.79071" y="1.86047" width="37.2093" height="37.2093" rx="6" fill="#FFC754"/>
<rect x="1.5" y="5.22092" width="33.2791" height="33.2791" rx="4.5" fill="#F7F7FC" stroke="#A0A3BD" stroke-width="3"/>
<path fill-rule="evenodd" clip-rule="evenodd" d="M6.51162 0C7.53913 0 8.37208 0.832959 8.37208 1.86047V6.51163C8.37208 7.53913 7.53913 8.37209 6.51162 8.37209C5.48411 8.37209 4.65115 7.53913 4.65115 6.51163V1.86047C4.65115 0.832959 5.48411 0 6.51162 0Z" fill="#A0A3BD"/>
<path fill-rule="evenodd" clip-rule="evenodd" d="M13.9535 0C14.981 0 15.8139 0.832959 15.8139 1.86047V6.51163C15.8139 7.53913 14.981 8.37209 13.9535 8.37209C12.926 8.37209 12.093 7.53913 12.093 6.51163V1.86047C12.093 0.832959 12.926 0 13.9535 0Z" fill="#A0A3BD"/>
<path fill-rule="evenodd" clip-rule="evenodd" d="M21.3953 0C22.4229 0 23.2558 0.832959 23.2558 1.86047V6.51163C23.2558 7.53913 22.4229 8.37209 21.3953 8.37209C20.3678 8.37209 19.5349 7.53913 19.5349 6.51163V1.86047C19.5349 0.832959 20.3678 0 21.3953 0Z" fill="#A0A3BD"/>
<path fill-rule="evenodd" clip-rule="evenodd" d="M28.8372 0C29.8647 0 30.6977 0.832959 30.6977 1.86047V6.51163C30.6977 7.53913 29.8647 8.37209 28.8372 8.37209C27.8097 8.37209 26.9767 7.53913 26.9767 6.51163V1.86047C26.9767 0.832959 27.8097 0 28.8372 0Z" fill="#A0A3BD"/>
<path d="M5.86509 14.9488C6.64183 14.9488 6.99997 14.3907 6.99997 13.7116V11.4186H6.16742V13.6465C6.16742 14.0977 6.02323 14.2326 5.75346 14.2326C5.58602 14.2326 5.40928 14.1256 5.28835 13.8884L4.72556 14.3116C4.97207 14.7395 5.32556 14.9488 5.86509 14.9488Z" fill="#A0A3BD"/>
<path d="M9.16247 14.9488C10.0834 14.9488 10.5485 14.4233 10.5485 13.2558V11.4186H9.74852V13.3442C9.74852 14 9.53922 14.2326 9.16247 14.2326C8.78108 14.2326 8.58573 14 8.58573 13.3442V11.4186H7.75782V13.2558C7.75782 14.4233 8.23689 14.9488 9.16247 14.9488Z" fill="#A0A3BD"/>
<path d="M11.3238 14.8837H13.5052V14.1861H12.1564V11.4186H11.3238V14.8837Z" fill="#A0A3BD"/>
<circle cx="8.3721" cy="20.4651" r="0.930233" fill="#A0A3BD"/>
<circle cx="13.0233" cy="20.4651" r="0.930233" fill="#A0A3BD"/>
<circle cx="17.6744" cy="20.4651" r="0.930233" fill="#A0A3BD"/>
<circle cx="22.3256" cy="20.4651" r="0.930233" fill="#A0A3BD"/>
<circle cx="26.9767" cy="20.4651" r="0.930233" fill="#A0A3BD"/>
<circle cx="8.3721" cy="25.1163" r="0.930233" fill="#A0A3BD"/>
<circle cx="13.0233" cy="25.1163" r="0.930233" fill="#A0A3BD"/>
<circle cx="17.6744" cy="25.1163" r="0.930233" fill="#A0A3BD"/>
<circle cx="22.3256" cy="25.1163" r="0.930233" fill="#A0A3BD"/>
<circle cx="26.9767" cy="25.1163" r="0.930233" fill="#A0A3BD"/>
<circle cx="8.3721" cy="29.7675" r="0.930233" fill="#A0A3BD"/>
<circle cx="13.0233" cy="29.7675" r="0.930233" fill="#A0A3BD"/>
<circle cx="17.6744" cy="29.7675" r="0.930233" fill="#A0A3BD"/>
<circle cx="22.3256" cy="29.7675" r="0.930233" fill="#A0A3BD"/>
<circle cx="26.9767" cy="29.7675" r="0.930233" fill="#A0A3BD"/>
</svg>
