<svg width="86" height="87" viewBox="0 0 86 87" fill="none" xmlns="http://www.w3.org/2000/svg">
<circle cx="43" cy="43" r="43" fill="#EFF0F7"/>
<mask id="mask0_503_10710" style="mask-type:alpha" maskUnits="userSpaceOnUse" x="1" y="3" width="84" height="84">
<circle cx="43" cy="45" r="42" fill="#C4C4C4"/>
</mask>
<g mask="url(#mask0_503_10710)">
<path d="M12.4519 61.212C12.9415 56.9692 24.8269 52.9847 30.6064 52.6447C30.6064 53.3927 32.8094 55.0109 42.4375 51.4208C54.4725 46.9332 77.3187 61.212 79.5625 63.4559C81.3575 65.2509 77.9986 71.6152 76.9107 77.7347L64.8757 90.7896L40.6016 91.8096L15.9196 86.506L12.4519 76.3068C12.2479 73.0431 11.9623 65.4549 12.4519 61.212Z" fill="#D9DBE9"/>
<path fill-rule="evenodd" clip-rule="evenodd" d="M78.1646 61.6071C79.0275 62.2035 79.6715 62.6995 79.9952 63.0232C80.6452 63.6732 80.751 64.6508 80.6682 65.635C80.5832 66.6457 80.2818 67.8516 79.9053 69.1448C79.704 69.8358 79.4804 70.556 79.2503 71.2969C78.6049 73.3756 77.9086 75.6179 77.5132 77.8419C77.4928 77.9569 77.4398 78.0637 77.3606 78.1495L65.3256 91.2045C65.2158 91.3236 65.0632 91.3943 64.9014 91.4011L40.6273 92.421C40.5756 92.4232 40.5237 92.4188 40.4731 92.4079L15.7911 87.1044C15.5807 87.0591 15.4095 86.9068 15.3403 86.703L11.8725 76.5039C11.8551 76.4526 11.8445 76.3992 11.8412 76.3451C11.6373 73.0839 11.3474 65.4455 11.844 61.142C11.9961 59.8241 13.004 58.6462 14.3102 57.6455C15.6412 56.6259 17.406 55.6956 19.3095 54.9002C23.1122 53.3113 27.5967 52.2088 30.5705 52.0339C30.7388 52.024 30.9037 52.0839 31.0263 52.1996C31.1372 52.3041 31.2046 52.4459 31.2165 52.5967C31.2322 52.6192 31.2789 52.6719 31.4011 52.7406C31.6414 52.8757 32.1091 53.0249 32.9287 53.0479C34.5673 53.094 37.4386 52.6318 42.2237 50.8475C45.3827 49.6696 49.1954 49.7393 53.1154 50.4916C57.0449 51.2458 61.1448 52.6983 64.9176 54.3537C68.693 56.0103 72.1581 57.8777 74.8219 59.4728C76.154 60.2704 77.2889 61.0019 78.1646 61.6071ZM31.2095 52.5848C31.2096 52.5848 31.2101 52.5857 31.2108 52.5877C31.2098 52.5858 31.2095 52.5848 31.2095 52.5848ZM52.8847 51.6936C49.0661 50.9607 45.5099 50.9284 42.6513 51.9943C37.8084 53.8001 34.7641 54.3239 32.8943 54.2713C31.9595 54.2451 31.2748 54.0738 30.8011 53.8073C30.5602 53.6718 30.3509 53.4954 30.206 53.2875C27.3993 53.529 23.3015 54.5587 19.7814 56.0295C17.9299 56.8031 16.2703 57.6857 15.0545 58.6171C13.8139 59.5675 13.1526 60.4787 13.0598 61.2823C12.5812 65.4301 12.854 72.8788 13.0576 76.1873L16.3874 85.9806L40.6539 91.1949L64.5972 90.1889L76.3403 77.4507C76.7556 75.2009 77.4665 72.9121 78.101 70.869C78.3258 70.1452 78.541 69.4521 78.7302 68.8026C79.105 67.5154 79.3747 66.4112 79.4486 65.5324C79.5248 64.6273 79.3773 64.1362 79.1298 63.8886C78.8926 63.6514 78.3317 63.2104 77.4688 62.6139C76.6186 62.0263 75.5065 61.3092 74.1932 60.5228C71.5661 58.9498 68.1469 57.1072 64.4258 55.4745C60.7022 53.8407 56.6938 52.4247 52.8847 51.6936Z" fill="#A0A3BD"/>
<path d="M37.27 66.1777C31.0985 67.892 28.8414 58.3205 28.27 53.3205C35.47 58.1205 41.6985 54.1777 44.1271 51.6063C44.4128 55.7491 43.4414 64.4634 37.27 66.1777Z" fill="#EFF0F7"/>
<path fill-rule="evenodd" clip-rule="evenodd" d="M46.6154 47.3362C44.8207 52.155 40.296 55.5748 34.9979 55.5748C28.1259 55.5748 22.5549 49.8212 22.5549 42.7238C22.5549 35.6264 28.1259 29.8729 34.9979 29.8729C40.296 29.8729 44.8207 33.2926 46.6154 38.1114C46.883 38.0594 47.1589 38.0322 47.4409 38.0322C49.9194 38.0322 51.9286 40.1327 51.9286 42.7238C51.9286 45.3149 49.9194 47.4154 47.4409 47.4154C47.1589 47.4154 46.883 47.3883 46.6154 47.3362Z" fill="#D9DBE9"/>
<path fill-rule="evenodd" clip-rule="evenodd" d="M45.8306 45.9369L46.849 46.1348C47.0401 46.172 47.2378 46.1915 47.4409 46.1915C49.1927 46.1915 50.7047 44.6908 50.7047 42.7238C50.7047 40.7568 49.1927 39.2561 47.4409 39.2561C47.2378 39.2561 47.0401 39.2757 46.849 39.3128L45.8306 39.5108L45.4685 38.5386C43.8392 34.1642 39.7488 31.0968 34.9979 31.0968C28.8387 31.0968 23.7788 36.2649 23.7788 42.7238C23.7788 49.1828 28.8387 54.3509 34.9979 54.3509C39.7488 54.3509 43.8392 51.2835 45.4685 46.9091L45.8306 45.9369ZM46.6154 38.1114C44.8207 33.2926 40.296 29.8729 34.9979 29.8729C28.1259 29.8729 22.5549 35.6264 22.5549 42.7238C22.5549 49.8212 28.1259 55.5748 34.9979 55.5748C40.296 55.5748 44.8207 52.155 46.6154 47.3362C46.883 47.3883 47.1589 47.4154 47.4409 47.4154C49.9194 47.4154 51.9286 45.3149 51.9286 42.7238C51.9286 40.1327 49.9194 38.0322 47.4409 38.0322C47.1589 38.0322 46.883 38.0594 46.6154 38.1114Z" fill="#A0A3BD"/>
<path d="M28.6741 43.9478C28.6741 44.7364 28.3088 45.3757 27.8582 45.3757C27.4076 45.3757 27.0423 44.7364 27.0423 43.9478C27.0423 43.1592 27.4076 42.52 27.8582 42.52C28.3088 42.52 28.6741 43.1592 28.6741 43.9478Z" fill="#A0A3BD"/>
<path d="M36.4258 43.9478C36.4258 44.7364 36.0604 45.3757 35.6098 45.3757C35.1592 45.3757 34.7939 44.7364 34.7939 43.9478C34.7939 43.1592 35.1592 42.52 35.6098 42.52C36.0604 42.52 36.4258 43.1592 36.4258 43.9478Z" fill="#A0A3BD"/>
<path fill-rule="evenodd" clip-rule="evenodd" d="M30.4113 45.8527C30.3564 45.9214 30.3065 46.0392 30.3065 46.1916C30.3065 46.3441 30.3564 46.4618 30.4113 46.5305C30.4654 46.5981 30.5043 46.5996 30.5104 46.5996C30.8484 46.5996 31.1224 46.8736 31.1224 47.2115C31.1224 47.5495 30.8484 47.8235 30.5104 47.8235C29.6015 47.8235 29.0826 46.9584 29.0826 46.1916C29.0826 45.4249 29.6015 44.5598 30.5104 44.5598C30.8484 44.5598 31.1224 44.8337 31.1224 45.1717C31.1224 45.5097 30.8484 45.7837 30.5104 45.7837C30.5043 45.7837 30.4654 45.7851 30.4113 45.8527Z" fill="#A0A3BD"/>
<path d="M35.2019 50.0672C35.2019 50.6305 34.7453 51.0871 34.182 51.0871C33.6187 51.0871 33.1621 50.6305 33.1621 50.0672C33.1621 49.5039 33.6187 49.0473 34.182 49.0473C34.7453 49.0473 35.2019 49.5039 35.2019 50.0672Z" fill="#A0A3BD"/>
<path d="M46.1091 38.9778C40.3976 35.7141 29.5865 35.8501 24.8948 36.326C24.0789 34.0822 39.7856 18.9874 39.3777 17.3556C38.9697 15.7237 42.2334 13.2759 44.8852 15.9277C47.537 18.5795 49.3729 34.2862 46.1091 38.9778Z" fill="#D9DBE9"/>
<path fill-rule="evenodd" clip-rule="evenodd" d="M40.7368 14.4755C42.0543 13.8934 43.8057 13.9827 45.318 15.495C45.7307 15.9077 46.0864 16.5266 46.3953 17.2454C46.709 17.9753 46.9947 18.8565 47.2468 19.8357C47.7512 21.7947 48.1321 24.189 48.3256 26.6397C48.5191 29.09 48.5267 31.6165 48.2758 33.8385C48.0274 36.0389 47.5169 38.0259 46.6115 39.3273C46.4305 39.5875 46.0808 39.6664 45.8056 39.5092C43.0714 37.9467 39.053 37.1724 35.0717 36.8596C31.1089 36.5483 27.2701 36.7002 24.9567 36.9349C24.6779 36.9632 24.4156 36.7985 24.3198 36.5352C24.201 36.2085 24.2587 35.8618 24.3413 35.5856C24.4293 35.2919 24.579 34.9705 24.7648 34.6363C25.1376 33.9657 25.7045 33.1572 26.386 32.2716C27.7522 30.4962 29.64 28.3329 31.5254 26.2055C31.9162 25.7644 32.307 25.3249 32.6933 24.8904C34.1775 23.2211 35.5957 21.626 36.7024 20.3004C37.4006 19.4642 37.9615 18.7509 38.3326 18.2037C38.5193 17.9285 38.6455 17.7134 38.7175 17.557C38.7442 17.499 38.7594 17.4578 38.7675 17.4313C38.642 16.8216 38.8507 16.2115 39.1907 15.722C39.5492 15.2059 40.093 14.76 40.7368 14.4755ZM38.7753 17.4002C38.7754 17.4001 38.7752 17.4015 38.7747 17.4043C38.775 17.4016 38.7753 17.4002 38.7753 17.4002ZM40.1959 16.4203C39.9693 16.7464 39.9258 17.0249 39.9714 17.2072C40.017 17.3895 39.9947 17.561 39.9659 17.6854C39.9356 17.8162 39.8857 17.9462 39.8292 18.0688C39.7164 18.3139 39.5477 18.5926 39.3455 18.8907C38.939 19.4901 38.3461 20.2414 37.6419 21.0848C36.5217 22.4265 35.0862 24.0411 33.6003 25.7123C33.2158 26.1447 32.8279 26.5809 32.4413 27.0172C30.553 29.148 28.6926 31.2811 27.356 33.018C26.6861 33.8885 26.1629 34.6402 25.8345 35.231C25.7485 35.3858 25.6791 35.5237 25.625 35.6451C28.0281 35.449 31.5453 35.3549 35.1675 35.6395C38.9625 35.9376 42.9513 36.6565 45.8903 38.1637C46.4608 37.1034 46.8503 35.5557 47.0597 33.7012C47.2996 31.5758 47.2945 29.1303 47.1055 26.736C46.9165 24.3421 46.5452 22.0193 46.0616 20.1408C45.8197 19.2013 45.5524 18.3837 45.2709 17.7287C44.9846 17.0627 44.7028 16.6106 44.4526 16.3604C43.3131 15.2209 42.1068 15.2082 41.2314 15.595C40.7788 15.795 40.4174 16.1013 40.1959 16.4203Z" fill="#A0A3BD"/>
<path fill-rule="evenodd" clip-rule="evenodd" d="M14.6959 51.4209C13.344 51.4209 12.2481 52.5168 12.2481 53.8687V59.5802C12.2481 60.9321 13.344 62.028 14.6959 62.028H17.5516L17.5516 73.8591H21.6313L21.6313 62.028H24.4871C25.839 62.028 26.9349 60.9321 26.9349 59.5802V53.8687C26.9349 52.5168 25.839 51.4209 24.4871 51.4209H14.6959Z" fill="#F7F7FC"/>
<path fill-rule="evenodd" clip-rule="evenodd" d="M18.4171 61.1626C18.6466 61.3921 18.7756 61.7034 18.7756 62.028L18.7755 72.6352H20.4074L20.4074 62.028C20.4074 61.3521 20.9554 60.8041 21.6313 60.8041H24.4871C25.163 60.8041 25.711 60.2562 25.711 59.5802V53.8687C25.711 53.1928 25.163 52.6448 24.4871 52.6448H14.6959C14.0199 52.6448 13.472 53.1928 13.472 53.8687V59.5802C13.472 60.2562 14.0199 60.8041 14.6959 60.8041H17.5516C17.8762 60.8041 18.1876 60.9331 18.4171 61.1626ZM21.6313 62.028H24.4871C25.839 62.028 26.9349 60.9321 26.9349 59.5802V53.8687C26.9349 52.5168 25.839 51.4209 24.4871 51.4209H14.6959C13.344 51.4209 12.2481 52.5168 12.2481 53.8687V59.5802C12.2481 60.9321 13.344 62.028 14.6959 62.028H17.5516L17.5516 73.8591H21.6313L21.6313 62.028Z" fill="#A0A3BD"/>
<path d="M19.1834 54.4807C19.1834 54.1427 19.4574 53.8687 19.7954 53.8687C20.1333 53.8687 20.4073 54.1427 20.4073 54.4807V57.7444C20.4073 58.0824 20.1333 58.3564 19.7954 58.3564C19.4574 58.3564 19.1834 58.0824 19.1834 57.7444V54.4807Z" fill="#D9DBE9"/>
<path d="M20.4073 59.3762C20.4073 59.7142 20.1334 59.9882 19.7954 59.9882C19.4574 59.9882 19.1834 59.7142 19.1834 59.3762C19.1834 59.0383 19.4574 58.7643 19.7954 58.7643C20.1334 58.7643 20.4073 59.0383 20.4073 59.3762Z" fill="#D9DBE9"/>
<path fill-rule="evenodd" clip-rule="evenodd" d="M7.18227 66.1757C7.45005 64.6214 8.93943 63.4878 10.5089 63.6437L11.8435 63.7763C13.413 63.9322 14.4682 65.3187 14.2004 66.873L13.6158 70.2663L18.1842 68.2634C19.6287 67.6301 21.5735 68.1345 22.528 69.39L22.6103 69.4982C23.2467 70.3354 23.2823 71.2951 22.807 72.0295C23.4974 72.2558 24.123 72.6673 24.5503 73.2293L24.6325 73.3374C25.5871 74.593 25.1899 76.1242 23.7455 76.7575L15.8413 80.2229C14.3968 80.8563 12.452 80.3518 11.4975 79.0963L11.4153 78.9882C10.7788 78.151 10.7433 77.1913 11.2185 76.4569C10.5281 76.2305 9.90248 75.819 9.47522 75.2571L9.39301 75.1489L9.39288 75.1487L8.5414 75.0642C6.97193 74.9082 5.9167 73.5218 6.18447 71.9675L7.18227 66.1757Z" fill="#D9DBE9"/>
<path fill-rule="evenodd" clip-rule="evenodd" d="M12.0234 72.3009L12.9943 66.6652C13.1414 65.811 12.585 65.0799 11.7225 64.9942L10.3879 64.8616C9.45726 64.7692 8.54719 65.4619 8.38841 66.3835L7.3906 72.1753C7.24344 73.0295 7.79986 73.7606 8.6624 73.8462L10.0437 73.9835L10.4495 74.5163C10.7051 74.8524 11.1093 75.133 11.5998 75.2939L13.1087 75.7886L12.246 77.1218C12.0813 77.3763 12.03 77.7745 12.3896 78.2474L12.4718 78.3556C13.0842 79.1611 14.4231 79.5084 15.3499 79.102L23.254 75.6366C23.673 75.4529 23.8481 75.1887 23.9039 74.9735C23.9597 74.7583 23.9351 74.4424 23.6582 74.0782L23.576 73.97C23.3205 73.6339 22.9163 73.3533 22.4257 73.1925L20.9168 72.6978L21.7795 71.3646C21.9442 71.11 21.9955 70.7118 21.636 70.2389L21.5537 70.1308L22.528 69.39L22.6103 69.4982C22.9901 69.9978 23.1559 70.541 23.1269 71.054C23.1072 71.4006 22.9987 71.7333 22.807 72.0295C23.2004 72.1584 23.5727 72.3475 23.8993 72.5902C24.1459 72.7736 24.3665 72.9875 24.5503 73.2293L24.6325 73.3374C25.5871 74.593 25.1899 76.1242 23.7455 76.7575L15.8413 80.2229C14.3968 80.8563 12.452 80.3518 11.4975 79.0963L11.4153 78.9882C11.0354 78.4886 10.8696 77.9453 10.8987 77.4324C10.9183 77.0858 11.0269 76.753 11.2185 76.4569C10.8252 76.3279 10.4528 76.1388 10.1262 75.8961C9.8796 75.7128 9.65905 75.4988 9.47522 75.2571L9.39301 75.1489L8.5414 75.0642C6.97193 74.9082 5.9167 73.5218 6.18447 71.9675L7.18227 66.1757C7.45005 64.6214 8.93943 63.4878 10.5089 63.6437L11.8435 63.7763C13.413 63.9322 14.4682 65.3187 14.2004 66.873L13.6158 70.2663L18.1842 68.2634C19.6287 67.6301 21.5735 68.1345 22.528 69.39L21.5537 70.1308C20.9413 69.3253 19.6024 68.978 18.6757 69.3843L12.0234 72.3009Z" fill="#A0A3BD"/>
<path fill-rule="evenodd" clip-rule="evenodd" d="M22.4136 72.231C22.5241 72.5504 22.3549 72.8989 22.0355 73.0095L16.7319 74.8453C16.4125 74.9559 16.064 74.7866 15.9534 74.4672C15.8429 74.1479 16.0122 73.7993 16.3316 73.6888L21.6351 71.8529C21.9545 71.7424 22.303 71.9117 22.4136 72.231Z" fill="#A0A3BD"/>
<path d="M42.2788 28.2524C41.4222 27.2582 42.6357 26.1811 43.3495 25.7668C43.8849 25.2145 45.3839 24.4412 47.0971 25.7668C49.2386 27.4239 47.0971 29.0809 44.9556 29.9094C42.8141 30.738 43.3495 29.4952 42.2788 28.2524Z" fill="#A0A3BD"/>
<path d="M30.1303 29.1874C29.8962 27.9736 31.2232 27.3222 31.916 27.1483C32.5323 26.7873 33.9485 26.5142 34.6821 28.3096C35.5991 30.5538 33.3549 31.4708 31.4424 31.5976C29.53 31.7243 30.4229 30.7047 30.1303 29.1874Z" fill="#A0A3BD"/>
<path d="M38.0927 20.451C37.7838 18.9145 39.4767 18.1012 40.3617 17.8866C41.1476 17.4349 42.9573 17.1006 43.9098 19.3762C45.1005 22.2207 42.2361 23.3629 39.7902 23.5083C37.3443 23.6538 38.4788 22.3716 38.0927 20.451Z" fill="#A0A3BD"/>
<path d="M36.3564 33.1762C36.75 31.6592 38.6281 31.6675 39.5179 31.8612C40.4221 31.7984 42.1961 32.2885 42.0583 34.7516C41.8861 37.8305 38.8106 37.606 36.5471 36.6679C34.2835 35.7299 35.8643 35.0724 36.3564 33.1762Z" fill="#A0A3BD"/>
</g>
</svg>
