<svg width="86" height="86" viewBox="0 0 86 86" fill="none" xmlns="http://www.w3.org/2000/svg">
<circle cx="43" cy="43" r="43" fill="#EFF0F7"/>
<mask id="mask0_78_3098" style="mask-type:alpha" maskUnits="userSpaceOnUse" x="0" y="0" width="86" height="86">
<circle cx="43" cy="43" r="43" fill="#EFF0F7"/>
</mask>
<g mask="url(#mask0_78_3098)">
<path fill-rule="evenodd" clip-rule="evenodd" d="M26 40.8727C26 37.077 29.077 34 32.8727 34H60.3636C64.1593 34 67.2364 37.077 67.2364 40.8727V56.9091C67.2364 60.7048 64.1593 63.7818 60.3636 63.7818H52.3455L52.3455 97H40.8909L40.8909 63.7818H32.8727C29.077 63.7818 26 60.7048 26 56.9091V40.8727Z" fill="#FFD973"/>
<path fill-rule="evenodd" clip-rule="evenodd" d="M28.8727 30C25.077 30 22 33.077 22 36.8727V52.9091C22 56.7048 25.077 59.7818 28.8727 59.7818H36.8909L36.8909 93H48.3455L48.3455 59.7818H56.3636C60.1593 59.7818 63.2364 56.7048 63.2364 52.9091V36.8727C63.2364 33.077 60.1593 30 56.3636 30H28.8727Z" fill="#F7F7FC"/>
<path fill-rule="evenodd" clip-rule="evenodd" d="M39.3208 57.3519C39.9652 57.9964 40.3273 58.8704 40.3273 59.7818L40.3273 89.5636H44.9091L44.9091 59.7818C44.9091 57.884 46.4476 56.3455 48.3455 56.3455H56.3636C58.2615 56.3455 59.8 54.8069 59.8 52.9091V36.8727C59.8 34.9749 58.2615 33.4364 56.3636 33.4364H28.8727C26.9749 33.4364 25.4364 34.9749 25.4364 36.8727V52.9091C25.4364 54.8069 26.9749 56.3455 28.8727 56.3455H36.8909C37.8023 56.3455 38.6763 56.7075 39.3208 57.3519ZM48.3455 59.7818H56.3636C60.1593 59.7818 63.2364 56.7048 63.2364 52.9091V36.8727C63.2364 33.077 60.1593 30 56.3636 30H28.8727C25.077 30 22 33.077 22 36.8727V52.9091C22 56.7048 25.077 59.7818 28.8727 59.7818H36.8909L36.8909 93H48.3455L48.3455 59.7818Z" fill="#A0A3BD"/>
<path d="M41.4734 38.5909C41.4734 37.642 42.2426 36.8728 43.1916 36.8728C44.1405 36.8728 44.9098 37.642 44.9098 38.5909V47.7546C44.9098 48.7035 44.1405 49.4728 43.1916 49.4728C42.2426 49.4728 41.4734 48.7035 41.4734 47.7546V38.5909Z" fill="#A0A3BD"/>
<path d="M44.9095 52.3363C44.9095 53.2852 44.1403 54.0545 43.1913 54.0545C42.2424 54.0545 41.4731 53.2852 41.4731 52.3363C41.4731 51.3874 42.2424 50.6181 43.1913 50.6181C44.1403 50.6181 44.9095 51.3874 44.9095 52.3363Z" fill="#A0A3BD"/>
</g>
</svg>
