<svg width="138" height="138" viewBox="0 0 138 138" fill="none" xmlns="http://www.w3.org/2000/svg">
<circle cx="69" cy="69" r="69" fill="#EFF0F7"/>
<path fill-rule="evenodd" clip-rule="evenodd" d="M93.6243 94.2769C87.3445 103.054 77.0651 108.775 65.4496 108.775C46.3298 108.775 30.8301 93.2751 30.8301 74.1553C30.8301 55.0355 46.3298 39.5358 65.4496 39.5358C81.91 39.5358 95.6874 51.0237 99.2015 66.4193C105.762 67.6739 110.721 73.4424 110.721 80.369C110.721 88.213 104.362 94.5719 96.518 94.5719C95.5264 94.5719 94.5586 94.4703 93.6243 94.2769Z" fill="#FFC754"/>
<path fill-rule="evenodd" clip-rule="evenodd" d="M90.0733 88.9508C83.7936 97.7282 73.5141 103.449 61.8985 103.449C42.7787 103.449 27.2791 87.9491 27.2791 68.8292C27.2791 49.7094 42.7787 34.2097 61.8985 34.2097C78.359 34.2097 92.1363 45.6976 95.6504 61.0932C102.212 62.3476 107.17 68.1162 107.17 75.043C107.17 82.887 100.811 89.2459 92.9673 89.2459C91.9756 89.2459 91.0077 89.1442 90.0733 88.9508Z" fill="#F7F7FC"/>
<path fill-rule="evenodd" clip-rule="evenodd" d="M86.0016 86.0377C87.1542 84.4266 89.1484 83.6467 91.0882 84.0482C91.6907 84.173 92.3186 84.2394 92.9673 84.2394C98.0463 84.2394 102.164 80.122 102.164 75.043C102.164 70.5635 98.9559 66.8224 94.7103 66.0106C92.7582 65.6374 91.2117 64.1449 90.7695 62.2073C87.7637 49.0388 75.9722 39.2163 61.8985 39.2163C45.5437 39.2163 32.2856 52.4744 32.2856 68.8292C32.2856 85.184 45.5437 98.4422 61.8985 98.4422C71.8304 98.4422 80.6214 93.5577 86.0016 86.0377ZM95.6504 61.0932C92.1363 45.6976 78.359 34.2097 61.8985 34.2097C42.7787 34.2097 27.2791 49.7094 27.2791 68.8292C27.2791 87.9491 42.7787 103.449 61.8985 103.449C73.5141 103.449 83.7936 97.7282 90.0733 88.9508C91.0077 89.1442 91.9756 89.2459 92.9673 89.2459C100.811 89.2459 107.17 82.887 107.17 75.043C107.17 68.1162 102.212 62.3476 95.6504 61.0932Z" fill="#A0A3BD"/>
<ellipse cx="42.2986" cy="65.385" rx="3.33767" ry="5.00651" fill="#A0A3BD"/>
<ellipse cx="67.3311" cy="65.385" rx="3.33767" ry="5.00651" fill="#A0A3BD"/>
<path fill-rule="evenodd" clip-rule="evenodd" d="M46.0686 67.4352C47.0574 65.0362 49.7772 63.1163 52.7314 63.8841C53.6234 64.116 54.1586 65.0271 53.9268 65.9191C53.6949 66.8111 52.7838 67.3463 51.8918 67.1145C50.8878 66.8535 49.6497 67.5055 49.1544 68.7071C48.9311 69.2487 48.9067 69.823 49.1283 70.3723C49.3501 70.9222 49.8892 71.6178 51.1024 72.2485C51.9202 72.6736 52.2385 73.6811 51.8134 74.4989C51.3883 75.3167 50.3808 75.635 49.563 75.2099C47.8077 74.2975 46.6152 73.0643 46.033 71.6209C45.4505 70.177 45.5497 68.6939 46.0686 67.4352Z" fill="#A0A3BD"/>
<path d="M62.4017 56.9926C52.3578 57.7922 41.4769 49.9956 37.292 45.9974C59.5044 22.0079 98.1346 52.9943 89.4428 58.9917C82.4894 63.7896 74.9565 54.9935 72.0592 49.9956C73.025 51.9948 72.4455 56.1929 62.4017 56.9926Z" fill="#A0A3BD"/>
<path fill-rule="evenodd" clip-rule="evenodd" d="M76.2515 74.2019C76.9684 74.6169 77.2132 75.5346 76.7981 76.2516C73.7921 81.4438 69.2395 83.8438 64.7756 84.4848C60.3761 85.1165 56.0132 84.0506 53.1974 82.2672C52.4975 81.824 52.2895 80.8973 52.7327 80.1974C53.176 79.4976 54.1027 79.2895 54.8025 79.7328C56.9867 81.1161 60.6238 82.0502 64.3493 81.5152C68.0104 80.9895 71.7078 79.0562 74.2018 74.7485C74.6169 74.0315 75.5346 73.7868 76.2515 74.2019Z" fill="#A0A3BD"/>
</svg>
