<svg width="44" height="21" viewBox="0 0 44 21" fill="none" xmlns="http://www.w3.org/2000/svg">
<g filter="url(#filter0_d_38_1015)">
<path d="M29.5306 9.05497V3.17739C29.5306 2.21227 28.7667 1.42993 27.8244 1.42993C26.8821 1.42993 26.1182 2.21227 26.1182 3.17739V9.05497C26.1182 10.0201 26.8821 10.8024 27.8244 10.8024C28.7667 10.8024 29.5306 10.0201 29.5306 9.05497Z" fill="#252849"/>
<path d="M38.2601 9.98027H36.5898C36.6131 9.8761 36.6248 9.76958 36.6248 9.66273V9.60595H38.4614C38.6607 9.61355 38.8595 9.57994 39.0458 9.50711C39.2321 9.43428 39.4022 9.32374 39.5458 9.1821C39.6894 9.04047 39.8037 8.87064 39.8817 8.68277C39.9598 8.49491 40 8.29287 40 8.08873C40 7.88459 39.9598 7.68254 39.8817 7.49468C39.8037 7.30681 39.6894 7.137 39.5458 6.99536C39.4022 6.85372 39.2321 6.74318 39.0458 6.67035C38.8595 6.59753 38.6607 6.5639 38.4614 6.5715H34.2662V6.10467H37.4568C37.7311 6.10489 37.9992 6.02136 38.2268 5.86478C38.4544 5.7082 38.6313 5.48567 38.7347 5.22566C38.8214 5.03165 38.8663 4.82078 38.8662 4.60742V1.53721C38.8663 1.17972 38.745 0.833312 38.5231 0.557272C38.3881 0.383063 38.2163 0.242427 38.0206 0.145911C37.8249 0.0493961 37.6104 -0.000494702 37.3931 3.6977e-06H32.4275C32.0461 3.6977e-06 31.6803 0.155099 31.4106 0.431155C31.1409 0.707212 30.9893 1.08162 30.9893 1.47202V1.54982C30.9893 1.94023 31.1409 2.31464 31.4106 2.5907C31.6803 2.86676 32.0461 3.02184 32.4275 3.02184H35.0264V3.26367H31.807C31.6259 3.2634 31.4465 3.29971 31.2791 3.37053C31.1118 3.44134 30.9597 3.54526 30.8316 3.67634C30.7036 3.80743 30.602 3.96308 30.5328 4.1344C30.4637 4.30572 30.4282 4.48933 30.4285 4.67471C30.4285 4.69995 30.4285 4.72307 30.4285 4.7462C30.4285 4.76933 30.4285 4.80718 30.4285 4.83662V8.01618C30.4286 8.32648 30.5184 8.62982 30.6865 8.888C30.8547 9.14619 31.0937 9.34769 31.3735 9.46717C31.5572 9.54767 31.7551 9.58916 31.9549 9.58914H33.7916V9.64591C33.7916 9.75276 33.8034 9.85927 33.8266 9.96344H32.1563C31.9652 9.96344 31.7761 10.002 31.5997 10.0768C31.4232 10.1516 31.2628 10.2613 31.1277 10.3995C30.9927 10.5378 30.8855 10.7019 30.8124 10.8825C30.7393 11.0632 30.7017 11.2568 30.7017 11.4523V11.5091C30.7015 11.7048 30.7388 11.8986 30.8118 12.0795C30.8848 12.2603 30.9919 12.4247 31.127 12.5632C31.2621 12.7017 31.4225 12.8115 31.5992 12.8865C31.7758 12.9614 31.9651 13 32.1563 13H38.2622C38.4534 13 38.6427 12.9614 38.8193 12.8865C38.9959 12.8115 39.1564 12.7017 39.2915 12.5632C39.4266 12.4247 39.5336 12.2603 39.6066 12.0795C39.6796 11.8986 39.717 11.7048 39.7167 11.5091V11.4523C39.7124 11.06 39.557 10.6853 39.2842 10.4096C39.0115 10.134 38.6434 9.97969 38.2601 9.98027V9.98027Z" fill="#252849"/>
<path d="M24.1294 4.93331C24.5229 4.93331 24.9005 4.77342 25.179 4.48874C25.4575 4.20407 25.6142 3.8179 25.6148 3.41504V2.96081C25.6148 2.55758 25.4583 2.17087 25.1797 1.88574C24.9011 1.60061 24.5233 1.44043 24.1294 1.44043H20.1684C19.9052 1.44069 19.6469 1.51332 19.4205 1.65072C19.1494 1.80013 18.9229 2.02199 18.7652 2.29267C18.6075 2.56336 18.5244 2.87275 18.5248 3.18792V9.07598C18.5258 9.31274 18.574 9.54678 18.6665 9.76376C18.7591 9.98073 18.894 10.1761 19.063 10.3377C19.2013 10.4983 19.3713 10.6269 19.5619 10.715C19.7525 10.8032 19.9592 10.8487 20.1684 10.8487H24.1294C24.5233 10.8487 24.9011 10.6885 25.1797 10.4034C25.4583 10.1183 25.6148 9.73156 25.6148 9.32833V8.8741C25.6142 8.47124 25.4575 8.08507 25.179 7.80039C24.9005 7.51572 24.5229 7.35583 24.1294 7.35583H21.9372V4.93331H24.1294Z" fill="#252849"/>
<path d="M15.9218 1.4132C15.4693 1.41376 15.0356 1.59811 14.7159 1.92577C14.3961 2.25343 14.2165 2.6976 14.2165 3.16069V4.44555H13.288C12.9065 3.35875 12.1621 2.44488 11.1862 1.86531C10.2104 1.28575 9.06583 1.07779 7.9547 1.27814C6.84358 1.4785 5.83736 2.07428 5.11375 2.96029C4.39013 3.8463 3.99569 4.96553 4.00004 6.12033C4.00438 7.27513 4.40726 8.39122 5.13752 9.27149C5.86778 10.1518 6.87842 10.7396 7.99102 10.9312C9.10362 11.1228 10.2466 10.9058 11.218 10.3186C12.1895 9.73133 12.927 8.81162 13.3003 7.72184H14.2165V9.04035C14.2319 9.49304 14.4184 9.92195 14.7367 10.2366C15.055 10.5513 15.4803 10.7272 15.9228 10.7272C16.3654 10.7272 16.7906 10.5513 17.1089 10.2366C17.4272 9.92195 17.6137 9.49304 17.6291 9.04035V3.15229C17.6269 2.69028 17.4461 2.24796 17.1261 1.92206C16.8062 1.59616 16.3731 1.4132 15.9218 1.4132V1.4132ZM8.78452 7.7639C8.46253 7.76431 8.14767 7.66693 7.87977 7.48408C7.61187 7.30124 7.40299 7.04116 7.27958 6.73674C7.15617 6.43233 7.12376 6.09727 7.18648 5.77401C7.2492 5.45074 7.40425 5.15379 7.63194 4.92074C7.85962 4.68769 8.14974 4.52904 8.46557 4.46484C8.78139 4.40065 9.10872 4.4338 9.40613 4.56012C9.70354 4.68643 9.9576 4.90023 10.1362 5.17443C10.3149 5.44864 10.4101 5.77094 10.4096 6.10051C10.4091 6.5415 10.2377 6.96427 9.93304 7.27609C9.6284 7.58792 9.21536 7.76334 8.78452 7.7639V7.7639Z" fill="#252849"/>
</g>
<defs>
<filter id="filter0_d_38_1015" x="0" y="0" width="44" height="21" filterUnits="userSpaceOnUse" color-interpolation-filters="sRGB">
<feFlood flood-opacity="0" result="BackgroundImageFix"/>
<feColorMatrix in="SourceAlpha" type="matrix" values="0 0 0 0 0 0 0 0 0 0 0 0 0 0 0 0 0 0 127 0" result="hardAlpha"/>
<feOffset dy="4"/>
<feGaussianBlur stdDeviation="2"/>
<feComposite in2="hardAlpha" operator="out"/>
<feColorMatrix type="matrix" values="0 0 0 0 0 0 0 0 0 0 0 0 0 0 0 0 0 0 0.25 0"/>
<feBlend mode="normal" in2="BackgroundImageFix" result="effect1_dropShadow_38_1015"/>
<feBlend mode="normal" in="SourceGraphic" in2="effect1_dropShadow_38_1015" result="shape"/>
</filter>
</defs>
</svg>
