<svg width="73" height="39" viewBox="0 0 73 39" fill="none" xmlns="http://www.w3.org/2000/svg">
<path fill-rule="evenodd" clip-rule="evenodd" d="M39.2917 30.8585C35.9927 35.4695 30.5926 38.4747 24.4906 38.4747C14.4464 38.4747 6.30396 30.3322 6.30396 20.288C6.30396 10.2438 14.4464 2.10132 24.4906 2.10132C33.1378 2.10132 40.3755 8.13624 42.2215 16.224C45.6682 16.8831 48.2731 19.9135 48.2731 23.5523C48.2731 27.673 44.9326 31.0135 40.8119 31.0135C40.2909 31.0135 39.7825 30.9601 39.2917 30.8585Z" fill="#FFC754"/>
<path fill-rule="evenodd" clip-rule="evenodd" d="M63.4569 31.3838C60.1579 35.9948 54.7578 39 48.6558 39C38.6116 39 30.4692 30.8575 30.4692 20.8133C30.4692 10.7691 38.6116 2.62665 48.6558 2.62665C57.303 2.62665 64.5407 8.66157 66.3867 16.7494C69.8334 17.4084 72.4382 20.4388 72.4382 24.0776C72.4382 28.1983 69.0978 31.5388 64.977 31.5388C64.4561 31.5388 63.9477 31.4854 63.4569 31.3838Z" fill="#FFC754"/>
<path fill-rule="evenodd" clip-rule="evenodd" d="M32.9877 28.7571C29.6888 33.3682 24.2887 36.3733 18.1867 36.3733C8.14245 36.3733 0 28.2309 0 18.1867C0 8.14245 8.14245 0 18.1867 0C26.8339 0 34.0715 6.03491 35.9176 14.1227C39.3644 14.7817 41.9693 17.8121 41.9693 21.451C41.9693 25.5717 38.6288 28.9122 34.5081 28.9122C33.9871 28.9122 33.4786 28.8588 32.9877 28.7571Z" fill="#F7F7FC"/>
<path fill-rule="evenodd" clip-rule="evenodd" d="M30.8487 27.2268C31.4543 26.3805 32.5019 25.9707 33.5209 26.1817C33.8374 26.2472 34.1672 26.2821 34.5081 26.2821C37.1762 26.2821 39.3392 24.1191 39.3392 21.451C39.3392 19.0977 37.654 17.1324 35.4237 16.706C34.3982 16.5099 33.5858 15.7258 33.3534 14.708C31.7744 7.79016 25.58 2.63007 18.1867 2.63007C9.595 2.63007 2.63007 9.595 2.63007 18.1867C2.63007 26.7783 9.595 33.7433 18.1867 33.7433C23.4042 33.7433 28.0224 31.1773 30.8487 27.2268ZM35.9176 14.1227C34.0715 6.03491 26.8339 0 18.1867 0C8.14245 0 0 8.14245 0 18.1867C0 28.2309 8.14245 36.3733 18.1867 36.3733C24.2887 36.3733 29.6888 33.3682 32.9877 28.7571C33.4786 28.8588 33.9871 28.9122 34.5081 28.9122C38.6288 28.9122 41.9693 25.5717 41.9693 21.451C41.9693 17.8121 39.3644 14.7817 35.9176 14.1227Z" fill="#A0A3BD"/>
<ellipse cx="8.05734" cy="16.814" rx="1.75338" ry="2.63007" fill="#A0A3BD"/>
<ellipse cx="21.2076" cy="16.814" rx="1.75338" ry="2.63007" fill="#A0A3BD"/>
<path fill-rule="evenodd" clip-rule="evenodd" d="M10.0378 17.891C10.5572 16.6308 11.986 15.6222 13.5379 16.0255C14.0066 16.1473 14.2877 16.6259 14.1659 17.0946C14.0441 17.5632 13.5655 17.8443 13.0969 17.7225C12.5694 17.5855 11.919 17.9279 11.6588 18.5592C11.5416 18.8437 11.5287 19.1454 11.6451 19.434C11.7616 19.7228 12.0448 20.0883 12.6822 20.4196C13.1118 20.6429 13.279 21.1722 13.0557 21.6018C12.8324 22.0314 12.3031 22.1986 11.8735 21.9753C10.9514 21.496 10.3249 20.8481 10.0191 20.0899C9.71308 19.3314 9.76518 18.5523 10.0378 17.891Z" fill="#A0A3BD"/>
<path d="M18.451 11.9685C13.1747 12.3886 7.45861 8.2928 5.26013 6.1924C16.929 -6.41 37.2226 9.8681 32.6566 13.0187C29.0037 15.5392 25.0464 10.9183 23.5244 8.2928C24.0318 9.343 23.7274 11.5484 18.451 11.9685Z" fill="#A0A3BD"/>
<path fill-rule="evenodd" clip-rule="evenodd" d="M25.8938 21.4457C26.2704 21.6638 26.399 22.1459 26.1809 22.5225C24.6018 25.2502 22.2102 26.511 19.8652 26.8477C17.554 27.1795 15.262 26.6196 13.7828 25.6827C13.4151 25.4499 13.3058 24.9631 13.5387 24.5954C13.7715 24.2277 14.2583 24.1184 14.626 24.3513C15.7734 25.078 17.6841 25.5687 19.6412 25.2877C21.5645 25.0115 23.5069 23.9959 24.817 21.7329C25.0351 21.3562 25.5172 21.2277 25.8938 21.4457Z" fill="#A0A3BD"/>
<path fill-rule="evenodd" clip-rule="evenodd" d="M60.3049 28.7571C57.006 33.3682 51.6059 36.3733 45.5039 36.3733C35.4596 36.3733 27.3172 28.2309 27.3172 18.1867C27.3172 8.14245 35.4596 0 45.5039 0C54.151 0 61.3887 6.03491 63.2348 14.1227C66.6815 14.7817 69.2864 17.8121 69.2864 21.451C69.2864 25.5717 65.9459 28.9122 61.8252 28.9122C61.3043 28.9122 60.7958 28.8588 60.3049 28.7571Z" fill="#F7F7FC"/>
<path fill-rule="evenodd" clip-rule="evenodd" d="M58.1659 27.2268C58.7714 26.3805 59.819 25.9707 60.8381 26.1817C61.1546 26.2472 61.4844 26.2821 61.8252 26.2821C64.4934 26.2821 66.6564 24.1191 66.6564 21.451C66.6564 19.0977 64.9712 17.1324 62.7409 16.706C61.7154 16.5099 60.903 15.7258 60.6706 14.708C59.0916 7.79016 52.8972 2.63007 45.5039 2.63007C36.9122 2.63007 29.9473 9.595 29.9473 18.1867C29.9473 26.7783 36.9122 33.7433 45.5039 33.7433C50.7214 33.7433 55.3396 31.1773 58.1659 27.2268ZM63.2348 14.1227C61.3887 6.03491 54.151 0 45.5039 0C35.4596 0 27.3172 8.14245 27.3172 18.1867C27.3172 28.2309 35.4596 36.3733 45.5039 36.3733C51.6059 36.3733 57.006 33.3682 60.3049 28.7571C60.7958 28.8588 61.3043 28.9122 61.8252 28.9122C65.9459 28.9122 69.2864 25.5717 69.2864 21.451C69.2864 17.8121 66.6815 14.7817 63.2348 14.1227Z" fill="#A0A3BD"/>
<path d="M45.7682 11.9685C40.4918 12.3886 34.7758 8.2928 32.5773 6.1924C44.2462 -6.41 64.5398 9.8681 59.9737 13.0187C56.3209 15.5392 52.3636 10.9183 50.8416 8.2928C51.3489 9.343 51.0445 11.5484 45.7682 11.9685Z" fill="#A0A3BD"/>
<ellipse cx="37.4759" cy="16.814" rx="1.75338" ry="2.63007" fill="#A0A3BD"/>
<ellipse cx="50.6261" cy="16.814" rx="1.75338" ry="2.63007" fill="#A0A3BD"/>
<path fill-rule="evenodd" clip-rule="evenodd" d="M39.4563 17.891C39.9757 16.6308 41.4045 15.6222 42.9564 16.0255C43.4251 16.1473 43.7062 16.6259 43.5844 17.0946C43.4626 17.5632 42.984 17.8443 42.5154 17.7225C41.988 17.5855 41.3375 17.9279 41.0773 18.5592C40.9601 18.8437 40.9472 19.1454 41.0636 19.434C41.1801 19.7228 41.4633 20.0883 42.1007 20.4196C42.5303 20.6429 42.6975 21.1722 42.4742 21.6018C42.2509 22.0314 41.7216 22.1986 41.292 21.9753C40.3699 21.496 39.7434 20.8481 39.4376 20.0899C39.1316 19.3314 39.1837 18.5523 39.4563 17.891Z" fill="#A0A3BD"/>
<path fill-rule="evenodd" clip-rule="evenodd" d="M55.3123 21.4457C55.6889 21.6638 55.8175 22.1459 55.5994 22.5225C54.0203 25.2502 51.6287 26.511 49.2837 26.8477C46.9725 27.1795 44.6805 26.6196 43.2013 25.6827C42.8336 25.4499 42.7243 24.9631 42.9572 24.5954C43.19 24.2277 43.6768 24.1184 44.0445 24.3513C45.1919 25.078 47.1026 25.5687 49.0597 25.2877C50.983 25.0115 52.9254 23.9959 54.2355 21.7329C54.4536 21.3562 54.9357 21.2277 55.3123 21.4457Z" fill="#A0A3BD"/>
</svg>
