<svg width="51" height="51" viewBox="0 0 51 51" fill="none" xmlns="http://www.w3.org/2000/svg">
<path d="M6.88645 12.9582C8.21812 12.0275 10.2255 12.206 11.4212 13.1934L10.0499 11.2002C8.94628 9.62624 9.34153 7.92341 10.9169 6.81841C12.4922 5.71766 16.9561 8.67707 16.9561 8.67707C15.8426 7.08757 16.0509 5.07307 17.6404 3.95816C19.2299 2.84749 21.4229 3.23141 22.5364 4.82374L37.298 25.6771L35.4167 43.9167L19.7158 38.1905L6.02087 17.8854C4.89745 16.286 5.28562 14.0802 6.88645 12.9582Z" fill="#FF6047"/>
<path d="M3.81803 24.5593C3.81803 24.5593 2.21437 22.2218 4.55328 20.6196C6.88937 19.0173 8.49162 21.3534 8.49162 21.3534L15.9305 32.2022C16.1869 31.7744 16.4675 31.3522 16.7805 30.9357L6.45587 15.8808C6.45587 15.8808 4.85362 13.5447 7.19112 11.9425C9.5272 10.3402 11.1294 12.6763 11.1294 12.6763L20.8407 26.8387C21.202 26.5441 21.5717 26.248 21.9528 25.9576L10.6945 9.53699C10.6945 9.53699 9.09228 7.20091 11.4298 5.59866C13.7659 3.99641 15.3681 6.33249 15.3681 6.33249L26.6264 22.7502C27.04 22.4967 27.4494 22.2771 27.8603 22.0447L17.3373 6.69941C17.3373 6.69941 15.735 4.36333 18.0711 2.76108C20.4072 1.15883 22.0095 3.49491 22.0095 3.49491L33.1359 19.7214L34.8274 22.1892C27.8178 26.9974 27.1505 36.0428 31.1555 41.8837C31.9559 43.0525 33.1246 42.2521 33.1246 42.2521C28.3179 35.241 29.7855 27.3629 36.7966 22.5562L34.7297 12.2117C34.7297 12.2117 33.9576 9.48599 36.6819 8.71249C39.4075 7.94041 40.181 10.6661 40.181 10.6661L42.5681 17.7551C43.5145 20.5657 44.5217 23.3665 45.8548 26.0157C49.6189 33.4957 47.3706 42.7918 40.2731 47.6609C32.531 52.9692 21.9471 50.9957 16.6375 43.2551L3.81803 24.5593Z" fill="#FFD973"/>
<path d="M17.0001 45.3929C11.3334 45.3929 5.60726 39.6667 5.60726 34C5.60726 33.2166 5.03351 32.5834 4.25009 32.5834C3.46668 32.5834 2.77393 33.2166 2.77393 34C2.77393 42.5 8.50009 48.2262 17.0001 48.2262C17.7835 48.2262 18.4168 47.5335 18.4168 46.75C18.4168 45.9666 17.7835 45.3929 17.0001 45.3929Z" fill="#6DB9C6"/>
<path d="M9.91667 48.1666C5.66667 48.1666 2.83333 45.3333 2.83333 41.0833C2.83333 40.2999 2.20008 39.6666 1.41667 39.6666C0.63325 39.6666 0 40.2999 0 41.0833C0 46.75 4.25 51 9.91667 51C10.7001 51 11.3333 50.3667 11.3333 49.5833C11.3333 48.7999 10.7001 48.1666 9.91667 48.1666ZM34 2.83331C33.218 2.83331 32.5833 3.46798 32.5833 4.24998C32.5833 5.03198 33.218 5.66665 34 5.66665C39.6667 5.66665 45.3333 10.7511 45.3333 17C45.3333 17.782 45.968 18.4166 46.75 18.4166C47.532 18.4166 48.1667 17.782 48.1667 17C48.1667 9.18848 42.5 2.83331 34 2.83331Z" fill="#6DB9C6"/>
<path d="M41.0834 0.0595093C40.3014 0.0595093 39.6667 0.634676 39.6667 1.41668C39.6667 2.19868 40.3014 2.89284 41.0834 2.89284C45.3334 2.89284 48.1072 6.04493 48.1072 9.91668C48.1072 10.6987 48.8 11.3333 49.5834 11.3333C50.3668 11.3333 50.9406 10.6987 50.9406 9.91668C50.9406 4.48093 46.7501 0.0595093 41.0834 0.0595093Z" fill="#6DB9C6"/>
</svg>
