<svg width="100" height="100" viewBox="0 0 100 100" fill="none" xmlns="http://www.w3.org/2000/svg">
<path d="M60.3679 1.47406C53.3627 -0.273301 45.9915 -0.522989 38.8189 1.02543C38.2646 1.14509 37.9123 1.69146 38.0319 2.24577C38.1516 2.80008 38.698 3.15244 39.2523 3.03277C46.1212 1.5499 53.1971 1.7944 59.9275 3.48128C76.0229 7.51536 89.4203 19.6168 94.523 35.4247C96.4964 41.538 97.3347 48.0476 97.5025 54.8698C97.5165 55.4367 97.9874 55.885 98.5543 55.871C99.1212 55.8571 99.5694 55.3862 99.5555 54.8193C99.3854 47.9035 98.5372 41.2264 96.5151 34.9113C91.2159 18.3617 77.2134 5.67602 60.3679 1.47406Z" fill="#D9DBE9"/>
<path d="M33.6082 4.58067C34.1548 4.42987 34.4757 3.86445 34.3249 3.31779C34.1741 2.77113 33.6087 2.45023 33.062 2.60104C25.561 4.67036 15.0092 11.8206 8.4881 21.3728C8.48557 21.3765 8.48305 21.3802 8.48056 21.384C2.75461 30.013 -0.834756 40.8569 0.167384 51.3794C0.168338 51.3894 0.16944 51.3994 0.170688 51.4094C0.410859 53.3308 0.814051 55.2486 1.21772 57.1686C2.06791 61.2126 2.9202 65.2666 2.25589 69.3849C2.16558 69.9448 2.54622 70.4718 3.10606 70.5621C3.66591 70.6525 4.19296 70.2718 4.28327 69.712C4.97769 65.407 4.11543 61.2079 3.253 57.0079C2.85415 55.0655 2.45526 53.123 2.21029 51.1697C1.26776 41.2267 4.6627 30.854 10.188 22.5251C16.461 13.3395 26.619 6.50878 33.6082 4.58067Z" fill="#D9DBE9"/>
<path d="M47.0823 6.87476C59.9737 6.08755 72.8624 11.3487 81.5183 21.428C81.8877 21.8583 81.8385 22.5065 81.4083 22.876C80.9781 23.2454 80.3298 23.1962 79.9604 22.766C71.729 13.1809 59.4642 8.17412 47.2013 8.92491C47.1969 8.92518 47.1925 8.92542 47.1882 8.92563C31.6802 9.67602 17.1569 20.1964 11.815 34.938C11.6218 35.4712 11.0329 35.7468 10.4998 35.5536C9.96663 35.3604 9.69105 34.7715 9.88425 34.2384C15.5118 18.7086 30.7622 7.66721 47.0823 6.87476Z" fill="#D9DBE9"/>
<path d="M84.6464 25.9138C84.3303 25.4431 83.6923 25.3177 83.2216 25.6339C82.7508 25.95 82.6255 26.588 82.9416 27.0587C87.7402 34.2038 89.7242 41.979 90.5086 51.2058C90.5566 51.7708 91.0536 52.1899 91.6187 52.1419C92.1837 52.0939 92.6028 51.5969 92.5548 51.0318C91.7533 41.6033 89.7072 33.4493 84.6464 25.9138Z" fill="#D9DBE9"/>
<path d="M91.8683 55.3912C92.4343 55.3559 92.9218 55.786 92.9572 56.352C93.3442 62.5435 93.3477 69.5487 92.6628 74.7255C92.5884 75.2876 92.0724 75.6831 91.5102 75.6087C90.948 75.5343 90.5526 75.0183 90.627 74.4561C91.2871 69.4666 91.2907 62.61 90.9076 56.4801C90.8722 55.9141 91.3024 55.4266 91.8683 55.3912Z" fill="#D9DBE9"/>
<path d="M10.2644 39.9113C10.3975 39.3601 10.0585 38.8053 9.50729 38.6722C8.95605 38.5391 8.40128 38.8781 8.26819 39.4293C7.51454 42.5507 7.12331 45.7573 7.10781 48.9668C7.09183 52.2749 7.70865 55.5039 8.32571 58.7342C8.83048 61.3767 9.33541 64.02 9.49424 66.7081C9.70288 70.2392 8.96016 73.7754 7.67671 77.141C7.47465 77.6709 7.74039 78.2642 8.27025 78.4663C8.80011 78.6683 9.39345 78.4026 9.59551 77.8727C10.9521 74.3152 11.7745 70.4831 11.5443 66.587C11.3865 63.9173 10.8816 61.2893 10.3769 58.6624C9.76109 55.457 9.14555 52.253 9.16137 48.9767C9.1761 45.927 9.54791 42.8788 10.2644 39.9113Z" fill="#D9DBE9"/>
<path d="M37.2071 17.0938C37.4184 17.62 37.1632 18.2179 36.6369 18.4293C25.9919 22.7042 17.9982 32.351 16.3674 43.7268C15.6861 48.4795 16.4222 53.1872 17.1581 57.8937C17.5725 60.5442 17.9868 63.1943 18.1479 65.8517C18.4972 71.6141 17.8409 77.9436 14.0907 83.7025C13.7812 84.1777 13.1451 84.3121 12.6699 84.0026C12.1947 83.6932 12.0604 83.0571 12.3698 82.5818C15.7866 77.3349 16.4334 71.5069 16.0981 65.976C15.9346 63.2796 15.5229 60.5988 15.1114 57.9198C14.3731 53.113 13.6356 48.3117 14.3346 43.4354C16.0758 31.2891 24.5893 21.0544 35.8716 16.5236C36.3979 16.3123 36.9958 16.5676 37.2071 17.0938Z" fill="#D9DBE9"/>
<path d="M73.2536 22.9396C64.8557 15.0741 52.6841 12.3288 41.6221 14.7551C41.0682 14.8766 40.7176 15.4242 40.8391 15.9781C40.9606 16.532 41.5082 16.8825 42.0621 16.761C52.5369 14.4635 63.998 17.0844 71.8498 24.4385C78.4678 30.637 82.3108 39.6563 83.3168 49.4967C83.3744 50.0608 83.8785 50.4714 84.4427 50.4137C85.0068 50.356 85.4174 49.852 85.3597 49.2878C84.3151 39.0699 80.3099 29.5487 73.2536 22.9396Z" fill="#D9DBE9"/>
<path d="M85.1449 54.1779C85.709 54.1199 86.2132 54.5303 86.2712 55.0944C87.2463 64.5891 86.826 74.8443 85.3539 84.765C85.2707 85.326 84.7485 85.7132 84.1875 85.63C83.6266 85.5468 83.2393 85.0246 83.3226 84.4636C84.7742 74.6808 85.183 64.5998 84.2283 55.3042C84.1704 54.7401 84.5807 54.2358 85.1449 54.1779Z" fill="#D9DBE9"/>
<path d="M49.3469 20.8677C33.6125 20.8677 20.8283 33.4206 20.8283 48.9405C20.8283 50.5983 20.9754 52.2226 21.2558 53.8021C21.3549 54.3605 21.8879 54.7327 22.4463 54.6336C23.0046 54.5345 23.3769 54.0015 23.2778 53.4431C23.0181 51.9808 22.8818 50.4765 22.8818 48.9405C22.8818 34.5863 34.7149 22.9213 49.3469 22.9213C55.9592 22.9213 62.0005 25.3045 66.6375 29.2424C67.0698 29.6095 67.7178 29.5567 68.0848 29.1244C68.4519 28.6922 68.3991 28.0442 67.9668 27.6771C62.97 23.4336 56.4608 20.8677 49.3469 20.8677Z" fill="#D9DBE9"/>
<path d="M70.2674 31.5055C70.6767 31.113 71.3267 31.1266 71.7192 31.5359C76.2506 36.2613 77.7012 43.6882 78.6609 49.9209C79.742 56.9416 79.9071 63.7907 79.9071 66.9663C79.9071 67.5334 79.4474 67.9931 78.8803 67.9931C78.3132 67.9931 77.8535 67.5334 77.8535 66.9663C77.8535 63.8421 77.69 57.1089 76.6313 50.2335C75.7402 44.4471 74.4558 37.3566 70.237 32.9573C69.8445 32.548 69.8581 31.898 70.2674 31.5055Z" fill="#D9DBE9"/>
<path d="M79.6464 72.8467C79.6915 72.2814 79.2697 71.7867 78.7044 71.7416C78.1392 71.6965 77.6444 72.1182 77.5993 72.6835C77.095 79.0084 76.4361 85.3262 75.0991 91.1624C74.9725 91.7152 75.318 92.2659 75.8707 92.3925C76.4235 92.5192 76.9743 92.1737 77.1009 91.621C78.4731 85.631 79.1408 79.1885 79.6464 72.8467Z" fill="#D9DBE9"/>
<path d="M22.9086 57.5813C23.465 57.4717 24.0048 57.8339 24.1144 58.3903C26.2854 69.4152 24.7856 79.4304 19.0364 88.2034C18.7256 88.6777 18.0891 88.8102 17.6148 88.4994C17.1405 88.1885 17.0079 87.552 17.3188 87.0777C22.7282 78.8233 24.184 69.3727 22.0995 58.7871C21.9899 58.2307 22.3522 57.6908 22.9086 57.5813Z" fill="#D9DBE9"/>
<path d="M49.3469 27.5485C39.1332 27.5485 29.1135 35.4547 28.0908 45.3912C27.643 49.7414 28.272 54.0263 28.9012 58.313C29.4506 62.0562 30.0002 65.8006 29.8334 69.5908C29.4515 78.2654 26.9063 85.4259 22.533 91.3235C22.1952 91.779 22.2907 92.4221 22.7462 92.7599C23.2017 93.0977 23.8448 93.0022 24.1825 92.5467C28.8209 86.2915 31.4867 78.7281 31.885 69.6812C32.0511 65.908 31.4998 62.1755 30.9489 58.4454C30.3189 54.1799 29.6893 49.9177 30.1336 45.6015C31.032 36.8724 40.0167 29.6021 49.3469 29.6021C53.6986 29.6021 64.958 31.9585 68.5395 43.6257C70.784 50.9372 71.3961 60.8321 70.8525 70.4451C70.3089 80.0569 68.618 89.25 66.3442 95.145C66.1401 95.6741 66.4036 96.2684 66.9327 96.4725C67.4618 96.6766 68.0561 96.4131 68.2602 95.884C70.6391 89.7165 72.3526 80.2907 72.9028 70.5611C73.4529 60.8327 72.8482 50.6638 70.5027 43.0231C66.527 30.072 54.0644 27.5485 49.3469 27.5485Z" fill="#D9DBE9"/>
<path d="M33.5454 88.2049C34.0204 88.5147 34.1543 89.1509 33.8445 89.6259C33.2078 90.6021 32.6476 91.6235 32.0875 92.645C31.5274 93.6665 30.9671 94.6881 30.3303 95.6645C30.0205 96.1395 29.3843 96.2734 28.9093 95.9636C28.4343 95.6538 28.3004 95.0176 28.6102 94.5426C29.2469 93.5664 29.8071 92.545 30.3672 91.5235C30.9274 90.502 31.4876 89.4804 32.1244 88.504C32.4342 88.029 33.0704 87.8951 33.5454 88.2049Z" fill="#D9DBE9"/>
<path d="M42.3375 38.2071C42.8088 37.8918 42.9354 37.2541 42.6201 36.7827C42.3048 36.3114 41.6671 36.1848 41.1958 36.5001C37.1298 39.2197 34.6353 42.9594 34.6353 48.4378C34.6353 51.7 35.2132 54.3665 35.8059 57.1014C36.6929 61.1939 37.2945 65.2776 37.1864 69.4812C37.0551 74.5857 36.0564 79.2502 34.1365 83.6937C33.9116 84.2142 34.1513 84.8186 34.6719 85.0435C35.1924 85.2684 35.7968 85.0287 36.0217 84.5082C38.0516 79.8099 39.1017 74.8853 39.2393 69.534C39.3517 65.1659 38.7334 60.9206 37.8134 56.6671C37.2193 53.9203 36.6889 51.4678 36.6889 48.4378C36.6889 43.7439 38.7538 40.604 42.3375 38.2071Z" fill="#D9DBE9"/>
<path d="M46.3451 34.5994C50.6059 33.7308 55.191 34.8041 58.5659 37.5357C64.5941 42.4149 65.3958 51.3129 66.0454 58.5233L66.0786 58.8906C66.9181 68.1851 65.9571 77.2129 64.0213 86.2791C63.9029 86.8337 63.3573 87.1873 62.8027 87.0688C62.2481 86.9504 61.8946 86.4048 62.013 85.8503C63.9198 76.92 64.8491 68.107 64.0333 59.0754C64.0063 58.7764 63.9794 58.4731 63.9523 58.1662L63.9519 58.1617C63.3748 51.6459 62.652 43.4849 57.2739 39.1319C54.3885 36.7966 50.4313 35.8622 46.7553 36.6116C46.1996 36.7249 45.6574 36.3662 45.5441 35.8106C45.4308 35.2549 45.7894 34.7127 46.3451 34.5994Z" fill="#D9DBE9"/>
<path d="M62.57 91.3883C62.71 90.8388 62.3779 90.2799 61.8283 90.1399C61.2788 90 60.7199 90.3321 60.5799 90.8817C59.9592 93.3199 59.0027 95.5208 57.7899 97.547C57.4987 98.0336 57.6571 98.6641 58.1436 98.9553C58.6302 99.2466 59.2608 99.0882 59.552 98.6016C60.859 96.418 61.8965 94.0337 62.57 91.3883Z" fill="#D9DBE9"/>
<path d="M57.549 76.4877C58.1121 76.5544 58.5146 77.0649 58.448 77.6281C57.4782 85.8229 55.2889 93.1316 51.776 99.4707C51.5011 99.9667 50.8762 100.146 50.3802 99.8711C49.8841 99.5962 49.7049 98.9713 49.9798 98.4753C53.3417 92.4087 55.4644 85.3654 56.4086 77.3867C56.4753 76.8236 56.9858 76.4211 57.549 76.4877Z" fill="#D9DBE9"/>
<path d="M57.3374 47.8993C56.6255 44.0957 53.3609 41.1861 49.3977 41.1861C44.031 41.1861 40.2658 46.5956 41.5926 51.6285C43.8377 60.5124 44.2063 69.0745 42.6864 77.321L42.6853 77.3271C41.3664 84.7312 38.8336 91.3919 35.3788 97.0361C35.0827 97.5198 35.2348 98.1519 35.7185 98.448C36.2022 98.744 36.8342 98.5919 37.1303 98.1083C40.7265 92.2332 43.3454 85.3295 44.7066 77.6902C46.2846 69.1255 45.8936 60.2632 43.5822 51.12L43.5795 51.1092C42.5842 47.3445 45.3584 43.2397 49.3977 43.2397C52.3128 43.2397 54.7741 45.3841 55.3175 48.2701C56.8121 56.9393 57.5905 64.9784 57.0363 71.9C56.991 72.4653 57.4125 72.9602 57.9778 73.0055C58.5431 73.0507 59.038 72.6292 59.0833 72.0639C59.6578 64.8896 58.8469 56.6526 57.34 47.9137C57.3391 47.9089 57.3383 47.9041 57.3374 47.8993Z" fill="#D9DBE9"/>
<path d="M46.3338 92.3705C46.8382 92.6297 47.037 93.2487 46.7778 93.7531L44.0571 99.0478C43.7979 99.5522 43.1789 99.7509 42.6745 99.4917C42.1701 99.2326 41.9713 98.6136 42.2305 98.1092L44.9513 92.8145C45.2105 92.3101 45.8295 92.1113 46.3338 92.3705Z" fill="#D9DBE9"/>
<path d="M50.1614 48.8894C50.0317 48.3374 49.4791 47.995 48.927 48.1247C48.375 48.2544 48.0326 48.807 48.1623 49.3591C51.6249 64.0987 51.1493 77.0416 46.9316 88.0671C46.729 88.5968 46.9942 89.1904 47.5238 89.393C48.0535 89.5956 48.6471 89.3305 48.8497 88.8008C53.2473 77.3047 53.6943 63.9283 50.1614 48.8894Z" fill="#D9DBE9"/>
</svg>
