<svg width="40" height="16" viewBox="0 0 40 16" fill="none" xmlns="http://www.w3.org/2000/svg">
<g clip-path="url(#clip0_132_4113)">
<path d="M28.4131 11.137V3.90581C28.4131 2.7201 27.5632 1.7589 26.5148 1.7589H26.5134C25.465 1.7589 24.6151 2.7201 24.6151 3.90581V11.137C24.6151 12.3227 25.465 13.2839 26.5134 13.2839H26.5148C27.5632 13.2839 28.4131 12.3227 28.4131 11.137Z" fill="#252849"/>
<path d="M38.1265 12.2674H36.2664C36.2926 12.1396 36.306 12.0089 36.3061 11.8777V11.8072H38.349C38.7867 11.8072 39.2064 11.6106 39.5159 11.2606C39.8253 10.9106 39.9992 10.4359 39.9992 9.94088C39.9992 9.4459 39.8253 8.97119 39.5159 8.62118C39.2064 8.27118 38.7867 8.07456 38.349 8.07456H33.6806V7.50055H37.2376C37.542 7.49987 37.8394 7.39675 38.0919 7.2043C38.3443 7.01186 38.5404 6.73879 38.6552 6.41988C38.7501 6.18096 38.7984 5.92178 38.797 5.65989V1.89037C38.7978 1.45073 38.6624 1.02468 38.4142 0.686242C38.2643 0.471976 38.0734 0.298918 37.8559 0.180062C37.6383 0.0612069 37.3998 -0.000355637 37.1582 1.54541e-06H31.6292C31.2028 1.54541e-06 30.7939 0.191564 30.4924 0.532545C30.1909 0.873527 30.0215 1.336 30.0215 1.81822V1.91442C30.0215 2.39664 30.1909 2.85911 30.4924 3.20009C30.7939 3.54108 31.2028 3.73264 31.6292 3.73264H34.5227V4.02445H30.9345C30.7329 4.02445 30.5332 4.06937 30.347 4.15663C30.1607 4.2439 29.9914 4.37181 29.8489 4.53305C29.7063 4.69429 29.5932 4.88572 29.5161 5.09639C29.4389 5.30707 29.3992 5.53287 29.3992 5.7609C29.3992 5.79137 29.3992 5.81862 29.3992 5.84748C29.3992 5.87634 29.3992 5.92284 29.3992 5.95972V9.86872C29.3992 10.2504 29.4991 10.6235 29.6863 10.9411C29.8735 11.2586 30.1396 11.5064 30.4511 11.6533C30.6558 11.7528 30.8762 11.8041 31.099 11.804H33.1419V11.8809C33.1423 12.012 33.1551 12.1426 33.1801 12.2706H31.3216C30.8922 12.2706 30.4804 12.4635 30.1768 12.8069C29.8731 13.1503 29.7026 13.616 29.7026 14.1016V14.1722C29.7026 14.6578 29.8731 15.1235 30.1768 15.4669C30.4804 15.8103 30.8922 16.0032 31.3216 16.0032H38.1179C38.5472 16.0028 38.9588 15.8097 39.2623 15.4664C39.5659 15.1231 39.7366 14.6576 39.7369 14.1722V14.1016C39.7377 13.6171 39.5686 13.152 39.2668 12.8082C38.9649 12.4644 38.5549 12.2699 38.1265 12.2674Z" fill="#252849"/>
<path d="M22.4015 6.05432C22.8397 6.05389 23.2598 5.85674 23.5695 5.50618C23.8792 5.15562 24.0531 4.68035 24.0531 4.18479V3.62522C24.0528 3.12995 23.8786 2.65508 23.569 2.30486C23.2593 1.95465 22.8395 1.75772 22.4015 1.75729H17.994C17.7008 1.75734 17.4131 1.8459 17.1604 2.01383C16.8598 2.19879 16.609 2.47202 16.4344 2.80473C16.2597 3.13743 16.1677 3.51728 16.168 3.9042V11.1354C16.1682 11.4285 16.2215 11.7184 16.3247 11.9873C16.4278 12.2561 16.5786 12.4982 16.7676 12.6987C16.9223 12.8954 17.112 13.0529 17.3244 13.1607C17.5367 13.2684 17.7669 13.3241 17.9996 13.324H22.4072C22.844 13.3223 23.2624 13.125 23.5709 12.7752C23.8794 12.4254 24.0528 11.9517 24.0531 11.4577V10.8997C24.0531 10.4043 23.8791 9.92918 23.5694 9.57888C23.2597 9.22857 22.8396 9.03177 22.4015 9.03177H19.9603V6.05432H22.4015Z" fill="#252849"/>
<path d="M13.2695 1.73805C12.766 1.73805 12.283 1.96419 11.9267 2.36676C11.5705 2.76934 11.3702 3.31541 11.3698 3.88496V5.46748H10.3378C9.96596 4.30051 9.28524 3.29145 8.38826 2.57766C7.49128 1.86386 6.4216 1.47999 5.32483 1.4783C3.91293 1.48042 2.55942 2.11581 1.56118 3.24509C0.562951 4.37437 0.00150038 5.90533 0 7.50215C0.00150038 9.09898 0.562951 10.6299 1.56118 11.7592C2.55942 12.8885 3.91293 13.5239 5.32483 13.526C6.42805 13.5243 7.50368 13.136 8.4037 12.4144C9.30371 11.6929 9.98386 10.6735 10.3505 9.49674H11.3698V11.1177C11.3698 11.3998 11.419 11.6791 11.5145 11.9397C11.61 12.2003 11.7499 12.437 11.9263 12.6364C12.1027 12.8358 12.3122 12.9939 12.5427 13.1017C12.7731 13.2095 13.0201 13.2649 13.2695 13.2647C13.773 13.2647 14.2558 13.0385 14.6118 12.6358C14.9678 12.2332 15.1678 11.6871 15.1678 11.1177V3.88656C15.1678 3.31702 14.9679 2.77078 14.6119 2.3679C14.256 1.96502 13.7731 1.73847 13.2695 1.73805ZM5.33051 9.54805C4.85073 9.5472 4.39083 9.33116 4.0517 8.94732C3.71258 8.56347 3.52192 8.04317 3.52154 7.50055C3.52192 6.95807 3.71262 6.43794 4.05179 6.05435C4.39096 5.67076 4.85086 5.45508 5.33051 5.45465C5.81029 5.45507 6.27032 5.67071 6.60971 6.05425C6.94911 6.43779 7.14013 6.95793 7.14088 7.50055C7.14051 7.76985 7.09324 8.03644 7.00178 8.28508C6.91031 8.53372 6.77643 8.75955 6.60779 8.94968C6.43916 9.1398 6.23906 9.29051 6.01893 9.39318C5.7988 9.49584 5.56295 9.54847 5.32483 9.54805H5.33051Z" fill="#252849"/>
</g>
<defs>
<clipPath id="clip0_132_4113">
<rect width="40" height="16" fill="white"/>
</clipPath>
</defs>
</svg>
