<svg width="86" height="86" viewBox="0 0 86 86" fill="none" xmlns="http://www.w3.org/2000/svg">
<circle cx="43" cy="43" r="43" fill="#EFF0F7"/>
<path fill-rule="evenodd" clip-rule="evenodd" d="M58.3455 58.7522C54.4321 64.2222 48.026 67.7872 40.7874 67.7872C28.8721 67.7872 19.2129 58.128 19.2129 46.2127C19.2129 34.2975 28.8721 24.6382 40.7874 24.6382C51.0453 24.6382 59.6312 31.7973 61.8211 41.3917C65.9099 42.1735 69 45.7684 69 50.085C69 54.9733 65.0373 58.9361 60.149 58.9361C59.531 58.9361 58.9278 58.8728 58.3455 58.7522Z" fill="#FFC754"/>
<path d="M61.2556 19.6797C61.2556 18.752 62.1067 18 63.1566 18C64.2065 18 65.0575 18.752 65.0575 19.6797V28.638C65.0575 29.5657 64.2065 30.3177 63.1566 30.3177C62.1067 30.3177 61.2556 29.5657 61.2556 28.638V19.6797Z" fill="#A0A3BD"/>
<path d="M65.0573 33.1171C65.0573 34.0448 64.2062 34.7968 63.1563 34.7968C62.1065 34.7968 61.2554 34.0448 61.2554 33.1171C61.2554 32.1895 62.1065 31.4374 63.1563 31.4374C64.2062 31.4374 65.0573 32.1895 65.0573 33.1171Z" fill="#A0A3BD"/>
<path fill-rule="evenodd" clip-rule="evenodd" d="M56.1327 55.4331C52.2192 60.9031 45.8131 64.4681 38.5745 64.4681C26.6592 64.4681 17 54.8088 17 42.8936C17 30.9783 26.6592 21.3191 38.5745 21.3191C48.8324 21.3191 57.4183 28.4782 59.6083 38.0726C63.6971 38.8543 66.7872 42.4493 66.7872 46.7659C66.7872 51.6542 62.8245 55.617 57.9362 55.617C57.3182 55.617 56.7149 55.5537 56.1327 55.4331Z" fill="#F7F7FC"/>
<path fill-rule="evenodd" clip-rule="evenodd" d="M53.5952 53.6177C54.3135 52.6137 55.5563 52.1276 56.7651 52.3779C57.1406 52.4556 57.5319 52.497 57.9362 52.497C61.1013 52.497 63.6672 49.9311 63.6672 46.7659C63.6672 43.9743 61.6682 41.6429 59.0224 41.1371C57.8059 40.9045 56.8421 39.9744 56.5665 38.7669C54.6933 30.5604 47.345 24.4391 38.5745 24.4391C28.3823 24.4391 20.12 32.7015 20.12 42.8936C20.12 53.0857 28.3823 61.3481 38.5745 61.3481C44.7639 61.3481 50.2423 58.3041 53.5952 53.6177ZM59.6083 38.0726C57.4183 28.4782 48.8324 21.3191 38.5745 21.3191C26.6592 21.3191 17 30.9783 17 42.8936C17 54.8088 26.6592 64.4681 38.5745 64.4681C45.8131 64.4681 52.2192 60.9031 56.1327 55.4331C56.7149 55.5537 57.3182 55.617 57.9362 55.617C62.8245 55.617 66.7872 51.6542 66.7872 46.7659C66.7872 42.4493 63.6971 38.8543 59.6083 38.0726Z" fill="#A0A3BD"/>
<ellipse cx="26.36" cy="40.7472" rx="2.08" ry="3.12" fill="#A0A3BD"/>
<ellipse cx="41.9599" cy="40.7472" rx="2.08" ry="3.12" fill="#A0A3BD"/>
<path fill-rule="evenodd" clip-rule="evenodd" d="M28.7094 42.0248C29.3256 40.5298 31.0206 39.3333 32.8616 39.8118C33.4175 39.9563 33.751 40.5241 33.6065 41.08C33.462 41.6359 32.8943 41.9694 32.3383 41.8249C31.7127 41.6623 30.9411 42.0686 30.6324 42.8175C30.4933 43.1549 30.4781 43.5129 30.6161 43.8552C30.7544 44.1978 31.0903 44.6314 31.8464 45.0244C32.356 45.2893 32.5544 45.9172 32.2895 46.4268C32.0246 46.9365 31.3967 47.1348 30.8871 46.8699C29.7932 46.3013 29.05 45.5328 28.6872 44.6333C28.3242 43.7335 28.386 42.8092 28.7094 42.0248Z" fill="#A0A3BD"/>
<path d="M40.92 53.2272C40.92 54.376 39.88 55.3072 38.32 55.3072C36.76 55.3072 35.72 54.376 35.72 53.2272C35.72 52.0785 36.24 51.1472 38.32 51.1472C39.7559 51.1472 40.92 51.6672 40.92 53.2272Z" fill="#A0A3BD"/>
<path d="M38.888 35.5171C32.6288 36.0154 25.848 31.1567 23.24 28.665C37.0825 13.7151 61.1564 33.0255 55.7398 36.7629C51.4065 39.7529 46.7121 34.2713 44.9065 31.1567C45.5084 32.4025 45.1473 35.0188 38.888 35.5171Z" fill="#A0A3BD"/>
</svg>
