<svg width="41" height="41" viewBox="0 0 41 41" fill="none" xmlns="http://www.w3.org/2000/svg">
<rect x="2.86047" y="0.953491" width="38.1395" height="38.1395" rx="6" fill="#FFC754"/>
<rect x="1.5" y="4.36047" width="34.186" height="34.186" rx="4.5" fill="#F7F7FC" stroke="#A0A3BD" stroke-width="3"/>
<path fill-rule="evenodd" clip-rule="evenodd" d="M39.5523 0.398524C40.1692 0.967818 40.2147 1.93698 39.6538 2.5632L29.5892 13.8007C29.3075 14.1153 28.9098 14.2969 28.4911 14.3022C28.0723 14.3075 27.6702 14.1361 27.3809 13.8288L22.3486 8.48507C21.7724 7.87329 21.794 6.90328 22.3967 6.31849C22.9994 5.7337 23.9551 5.75558 24.5312 6.36736L28.4445 10.5228L37.4197 0.501604C37.9805 -0.124619 38.9353 -0.17077 39.5523 0.398524Z" fill="#A0A3BD"/>
<path fill-rule="evenodd" clip-rule="evenodd" d="M18.4806 15.3142C18.4806 15.3142 18.645 15.2877 18.7509 15.2758C19.1523 15.2308 19.7841 15.2758 19.7841 15.2758C20.3548 15.2758 20.8174 15.7731 20.8174 16.3865V25.2724H21.8506C22.4212 25.2724 22.8838 25.7697 22.8838 26.3832V27.4939C22.8838 28.1073 22.4212 28.6046 21.8506 28.6046H16.6845C16.1139 28.6046 15.6513 28.1073 15.6513 27.4939L15.6513 26.3832C15.6513 25.7697 16.1139 25.2724 16.6845 25.2724H17.7177V20.104C17.1429 20.5546 16.3345 20.5324 15.7794 20.005C15.138 19.3957 15.0776 18.3427 15.6444 17.6532L17.1161 15.8628C17.4707 15.4315 18.4806 15.3142 18.4806 15.3142Z" fill="#A0A3BD"/>
</svg>
