<svg width="23" height="20" viewBox="0 0 23 20" fill="none" xmlns="http://www.w3.org/2000/svg">
<path fill-rule="evenodd" clip-rule="evenodd" d="M11.4711 17.2501C11.6405 17.4138 11.7931 17.5905 11.9281 17.7778H20.7V14.479C20.2015 14.2401 19.7416 13.9229 19.3407 13.5355C18.3702 12.5979 17.825 11.3261 17.825 10C17.825 8.67392 18.3702 7.40215 19.3407 6.46447C19.7416 6.07713 20.2015 5.75991 20.7 5.52096V2.22222H11.9281C11.7931 2.40954 11.6405 2.58624 11.4711 2.74986C11.2371 2.97597 10.9772 3.17135 10.6982 3.33334C10.9772 3.49532 11.2371 3.6907 11.4711 3.91681C12.2259 4.64612 12.65 5.63527 12.65 6.66667C12.65 7.69806 12.2259 8.68722 11.4711 9.41653C11.2371 9.64263 10.9772 9.83802 10.6982 10C10.9772 10.162 11.2371 10.3574 11.4711 10.5835C12.2259 11.3128 12.65 12.3019 12.65 13.3333C12.65 14.3647 12.2259 15.3539 11.4711 16.0832C11.2371 16.3093 10.9772 16.5047 10.6982 16.6667C10.9772 16.8286 11.2371 17.024 11.4711 17.2501ZM6.55179 16.6667C6.27278 16.8286 6.01291 17.024 5.7789 17.2501C5.60955 17.4138 5.45685 17.5905 5.32186 17.7778H2.3V2.22222H5.32186C5.45685 2.40954 5.60955 2.58624 5.7789 2.74986C6.01291 2.97596 6.27278 3.17135 6.55178 3.33333C6.27278 3.49532 6.01291 3.6907 5.7789 3.91681C5.02406 4.64612 4.6 5.63527 4.6 6.66667C4.6 7.69806 5.02406 8.68722 5.7789 9.41653C6.01291 9.64263 6.27278 9.83802 6.55179 10C6.27278 10.162 6.01291 10.3574 5.7789 10.5835C5.02406 11.3128 4.6 12.3019 4.6 13.3333C4.6 14.3647 5.02406 15.3539 5.7789 16.0832C6.01291 16.3093 6.27278 16.5047 6.55179 16.6667ZM10.35 0H21.85C22.155 0 22.4475 0.117063 22.6632 0.325437C22.8788 0.533811 23 0.816426 23 1.11111V7.22222C22.2375 7.22222 21.5062 7.51488 20.9671 8.03581C20.4279 8.55675 20.125 9.26329 20.125 10C20.125 10.7367 20.4279 11.4433 20.9671 11.9642C21.5062 12.4851 22.2375 12.7778 23 12.7778V18.8889C23 19.1836 22.8788 19.4662 22.6632 19.6746C22.4475 19.8829 22.155 20 21.85 20H10.35C10.35 19.558 10.1683 19.1341 9.84476 18.8215C9.52126 18.5089 9.0825 18.3333 8.625 18.3333C8.1675 18.3333 7.72874 18.5089 7.40524 18.8215C7.08174 19.1341 6.9 19.558 6.9 20H1.15C0.845001 20 0.552494 19.8829 0.336827 19.6746C0.12116 19.4662 0 19.1836 0 18.8889V1.11111C0 0.816426 0.12116 0.533811 0.336827 0.325437C0.552494 0.117063 0.845001 0 1.15 0H6.9C6.9 0.442027 7.08174 0.865951 7.40524 1.17851C7.72874 1.49107 8.1675 1.66667 8.625 1.66667C9.0825 1.66667 9.52126 1.49107 9.84476 1.17851C10.1683 0.865951 10.35 0.442027 10.35 0ZM9.84476 7.84518C9.52126 8.15774 9.0825 8.33333 8.625 8.33333C8.1675 8.33333 7.72874 8.15774 7.40524 7.84518C7.08174 7.53262 6.9 7.10869 6.9 6.66667C6.9 6.22464 7.08174 5.80072 7.40524 5.48816C7.72874 5.17559 8.1675 5 8.625 5C9.0825 5 9.52126 5.17559 9.84476 5.48816C10.1683 5.80072 10.35 6.22464 10.35 6.66667C10.35 7.10869 10.1683 7.53262 9.84476 7.84518ZM9.84476 14.5118C9.52126 14.8244 9.0825 15 8.625 15C8.1675 15 7.72874 14.8244 7.40524 14.5118C7.08174 14.1993 6.9 13.7754 6.9 13.3333C6.9 12.8913 7.08174 12.4674 7.40524 12.1548C7.72874 11.8423 8.1675 11.6667 8.625 11.6667C9.0825 11.6667 9.52126 11.8423 9.84476 12.1548C10.1683 12.4674 10.35 12.8913 10.35 13.3333C10.35 13.7754 10.1683 14.1993 9.84476 14.5118Z" fill="#FCFCFC"/>
</svg>
