<svg width="162" height="164" viewBox="0 0 162 164" fill="none" xmlns="http://www.w3.org/2000/svg">
<circle cx="73.5" cy="73.5" r="73.5" fill="#EFF0F9"/>
<path fill-rule="evenodd" clip-rule="evenodd" d="M100.153 98.4198C93.418 107.833 82.3937 113.968 69.9364 113.968C49.4311 113.968 32.8083 97.3454 32.8083 76.8401C32.8083 56.3348 49.4311 39.712 69.9364 39.712C87.5897 39.712 102.365 52.0323 106.134 68.5436C113.171 69.8891 118.488 76.0756 118.488 83.5041C118.488 91.9166 111.669 98.7362 103.256 98.7362C102.193 98.7362 101.155 98.6272 100.153 98.4198Z" fill="#FFC754"/>
<path fill-rule="evenodd" clip-rule="evenodd" d="M96.3446 92.7078C89.6098 102.121 78.5854 108.256 66.1282 108.256C45.6228 108.256 29 91.6335 29 71.1282C29 50.6228 45.6228 34 66.1282 34C83.7814 34 98.5571 46.3203 102.326 62.8315C109.362 64.1769 114.68 70.3635 114.68 77.7922C114.68 86.2046 107.861 93.0242 99.4483 93.0242C98.3847 93.0242 97.3466 92.9152 96.3446 92.7078Z" fill="#F7F7FC"/>
<path fill-rule="evenodd" clip-rule="evenodd" d="M91.9778 89.5836C93.214 87.8558 95.3526 87.0193 97.433 87.45C98.0791 87.5837 98.7525 87.6549 99.4483 87.6549C104.895 87.6549 109.311 83.2392 109.311 77.7922C109.311 72.9881 105.871 68.9759 101.318 68.1053C99.224 67.7051 97.5655 66.1044 97.0912 64.0264C93.8676 49.9036 81.2217 39.3693 66.1282 39.3693C48.5882 39.3693 34.3693 53.5882 34.3693 71.1282C34.3693 88.6681 48.5882 102.887 66.1282 102.887C76.7797 102.887 86.2078 97.6486 91.9778 89.5836ZM102.326 62.8315C98.5571 46.3203 83.7814 34 66.1282 34C45.6228 34 29 50.6228 29 71.1282C29 91.6335 45.6228 108.256 66.1282 108.256C78.5854 108.256 89.6098 102.121 96.3446 92.7078C97.3466 92.9152 98.3847 93.0242 99.4483 93.0242C107.861 93.0242 114.68 86.2046 114.68 77.7922C114.68 70.3635 109.362 64.1769 102.326 62.8315Z" fill="#A0A3BD"/>
<ellipse cx="45.1084" cy="67.4344" rx="3.57953" ry="5.3693" fill="#A0A3BD"/>
<ellipse cx="71.9546" cy="67.4344" rx="3.57953" ry="5.3693" fill="#A0A3BD"/>
<path fill-rule="evenodd" clip-rule="evenodd" d="M49.151 69.6331C50.2115 67.0603 53.1284 65.0013 56.2966 65.8247C57.2533 66.0733 57.8273 67.0504 57.5787 68.0071C57.33 68.9638 56.3529 69.5378 55.3962 69.2891C54.3195 69.0093 52.9916 69.7085 52.4604 70.9972C52.221 71.578 52.1948 72.194 52.4324 72.783C52.6703 73.3727 53.2485 74.1188 54.5497 74.7952C55.4267 75.2511 55.7681 76.3316 55.3122 77.2087C54.8563 78.0857 53.7757 78.4271 52.8987 77.9712C51.0162 76.9927 49.7372 75.67 49.1128 74.1221C48.4882 72.5736 48.5945 70.983 49.151 69.6331Z" fill="#A0A3BD"/>
<path d="M66.6682 58.4338C55.8965 59.2914 44.2272 50.9298 39.739 46.6418C63.561 20.914 104.991 54.1458 95.6689 60.5778C88.2115 65.7233 80.1328 56.2898 77.0256 50.9298C78.0613 53.0738 77.4399 57.5762 66.6682 58.4338Z" fill="#A0A3BD"/>
<path d="M79 77.5C76.6 79.9 67.5 85.5 57 84.5C46.5 83.5 57 93 57 93C57 93 72 103 79 77.5Z" fill="#A0A3BD"/>
<g filter="url(#filter0_ddd_392_14551)">
<path d="M120 101C120 112.598 110.598 122 99 122C87.402 122 78 112.598 78 101C78 89.402 87.402 80 99 80C110.598 80 120 89.402 120 101Z" fill="#FCFCFC"/>
<path fill-rule="evenodd" clip-rule="evenodd" d="M99 118.294C108.551 118.294 116.294 110.551 116.294 101C116.294 91.4487 108.551 83.7059 99 83.7059C89.4487 83.7059 81.7059 91.4487 81.7059 101C81.7059 110.551 89.4487 118.294 99 118.294ZM99 122C110.598 122 120 112.598 120 101C120 89.402 110.598 80 99 80C87.402 80 78 89.402 78 101C78 112.598 87.402 122 99 122Z" fill="#43D2B0"/>
<path fill-rule="evenodd" clip-rule="evenodd" d="M108.265 95.2956C109.028 95.9779 109.093 97.1494 108.41 97.912L97.9103 109.647C97.5351 110.067 96.9897 110.293 96.4279 110.262C95.866 110.231 95.3487 109.947 95.0216 109.489L88.8451 100.842C88.2503 100.009 88.4432 98.8517 89.2759 98.2569C90.1087 97.6621 91.2659 97.855 91.8607 98.6877L96.6919 105.451L105.649 95.4409C106.331 94.6783 107.502 94.6132 108.265 95.2956Z" fill="#43D2B0"/>
</g>
<defs>
<filter id="filter0_ddd_392_14551" x="48" y="50" width="114" height="114" filterUnits="userSpaceOnUse" color-interpolation-filters="sRGB">
<feFlood flood-opacity="0" result="BackgroundImageFix"/>
<feColorMatrix in="SourceAlpha" type="matrix" values="0 0 0 0 0 0 0 0 0 0 0 0 0 0 0 0 0 0 127 0" result="hardAlpha"/>
<feOffset dx="6" dy="6"/>
<feGaussianBlur stdDeviation="18"/>
<feColorMatrix type="matrix" values="0 0 0 0 0 0 0 0 0 0 0 0 0 0 0 0 0 0 0.06 0"/>
<feBlend mode="normal" in2="BackgroundImageFix" result="effect1_dropShadow_392_14551"/>
<feColorMatrix in="SourceAlpha" type="matrix" values="0 0 0 0 0 0 0 0 0 0 0 0 0 0 0 0 0 0 127 0" result="hardAlpha"/>
<feOffset dx="-4" dy="-4"/>
<feGaussianBlur stdDeviation="6.5"/>
<feColorMatrix type="matrix" values="0 0 0 0 1 0 0 0 0 1 0 0 0 0 1 0 0 0 0.2 0"/>
<feBlend mode="normal" in2="effect1_dropShadow_392_14551" result="effect2_dropShadow_392_14551"/>
<feColorMatrix in="SourceAlpha" type="matrix" values="0 0 0 0 0 0 0 0 0 0 0 0 0 0 0 0 0 0 127 0" result="hardAlpha"/>
<feOffset dx="4" dy="4"/>
<feGaussianBlur stdDeviation="3.5"/>
<feColorMatrix type="matrix" values="0 0 0 0 0 0 0 0 0 0 0 0 0 0 0 0 0 0 0.07 0"/>
<feBlend mode="multiply" in2="effect2_dropShadow_392_14551" result="effect3_dropShadow_392_14551"/>
<feBlend mode="normal" in="SourceGraphic" in2="effect3_dropShadow_392_14551" result="shape"/>
</filter>
</defs>
</svg>
