<svg width="59" height="32" viewBox="0 0 59 32" fill="none" xmlns="http://www.w3.org/2000/svg">
<g clip-path="url(#clip0_89_2100)">
<path d="M29.8542 30.869C29.5203 30.8688 29.1866 30.8486 28.8551 30.8083C26.9188 30.6746 25.0912 29.8536 23.6943 28.4898C22.2974 27.126 21.4208 25.307 21.219 23.3532L19.8049 10.2165C19.6866 9.12114 19.7828 8.01288 20.0878 6.95508C20.3929 5.89729 20.9008 4.91069 21.5827 4.05165C22.2646 3.19262 23.107 2.47797 24.0618 1.94854C25.0166 1.41912 26.0651 1.08529 27.1474 0.966121L27.3303 0.949008L27.5117 0.925673L35.4568 0.0497905C35.7564 0.0168774 36.0576 0.000257796 36.359 5.71296e-06C38.014 -0.00194886 39.6317 0.497674 41.0037 1.43452C42.3757 2.37136 43.4392 3.70251 44.0571 5.25651C44.6751 6.81051 44.8192 8.51618 44.4709 10.1538C44.1226 11.7914 43.2979 13.286 42.103 14.445C43.5768 15.3607 44.7313 16.7194 45.4051 18.3314C46.079 19.9434 46.2385 21.7282 45.8615 23.4364C45.4845 25.1447 44.5897 26.6911 43.3022 27.8596C42.0146 29.0281 40.3987 29.7604 38.68 29.9542L30.7288 30.8223C30.4383 30.8535 30.1463 30.8691 29.8542 30.869Z" fill="#252849"/>
<path d="M36.7741 12.2935C37.7965 12.1807 38.7328 11.6616 39.377 10.8502C40.0212 10.0389 40.3207 9.00174 40.2095 7.96694C40.1547 7.45435 40.0007 6.9577 39.7562 6.5054C39.5117 6.0531 39.1815 5.65401 38.7845 5.33094C38.3875 5.00788 37.9315 4.76717 37.4426 4.62259C36.9536 4.478 36.4413 4.43237 35.9349 4.48831L27.9899 5.36419C27.9284 5.36419 27.8684 5.38286 27.8085 5.39219C27.7485 5.40153 27.6871 5.39219 27.6256 5.40308C26.6031 5.51618 25.6668 6.03564 25.0226 6.84725C24.3784 7.65885 24.079 8.69617 24.1902 9.73115L25.6043 22.8678C25.7045 23.7971 26.1294 24.6595 26.8024 25.2996C27.4754 25.9398 28.3523 26.3154 29.2748 26.3589C29.5979 26.4083 29.9259 26.4156 30.2509 26.3807L38.1959 25.5048C39.2183 25.3921 40.1546 24.8729 40.7988 24.0616C41.443 23.2502 41.7425 22.2131 41.6313 21.1783C41.5199 20.1435 41.007 19.1958 40.2054 18.5438C39.4038 17.8917 38.3791 17.5886 37.3567 17.7012L32.8992 18.1913L32.3182 12.7835L36.7741 12.2935Z" fill="white"/>
<path d="M15.2875 32.0016C12.2635 32.0019 9.30738 31.0946 6.79289 29.3943C4.27841 27.6941 2.31852 25.2774 1.16109 22.4497C0.00365632 19.6221 -0.299339 16.5105 0.290422 13.5086C0.880182 10.5066 2.33621 7.74912 4.47437 5.58476C6.61253 3.42039 9.33679 1.94639 12.3026 1.34916C15.2685 0.751934 18.3427 1.0583 21.1365 2.22951C23.9303 3.40073 26.3182 5.38419 27.9983 7.92906C29.6783 10.4739 30.5751 13.4659 30.5751 16.5266C30.5706 20.6292 28.9586 24.5624 26.0926 27.4635C23.2266 30.3646 19.3408 31.9966 15.2875 32.0016Z" fill="#252849"/>
<path d="M15.2875 27.535C13.1365 27.5347 11.0338 26.8888 9.24545 25.679C7.45706 24.4692 6.06327 22.7498 5.24031 20.7383C4.41735 18.7267 4.20218 16.5133 4.62202 14.378C5.04185 12.2427 6.07784 10.2813 7.59896 8.74193C9.12009 7.20253 11.0581 6.15424 13.1678 5.7296C15.2775 5.30497 17.4643 5.52306 19.4516 6.35631C21.4389 7.18955 23.1374 8.60053 24.3324 10.4108C25.5275 12.2211 26.1653 14.3494 26.1653 16.5266C26.1621 19.4455 25.0149 22.2438 22.9756 24.3076C20.9363 26.3714 18.1714 27.5321 15.2875 27.535ZM15.2875 12.785C14.5564 12.785 13.8417 13.0045 13.2338 13.4156C12.6259 13.8267 12.1521 14.4111 11.8723 15.0948C11.5925 15.7784 11.5193 16.5308 11.6619 17.2565C11.8046 17.9823 12.1566 18.649 12.6736 19.1723C13.1906 19.6955 13.8493 20.0519 14.5664 20.1963C15.2834 20.3406 16.0267 20.2665 16.7022 19.9833C17.3776 19.7002 17.955 19.2206 18.3612 18.6053C18.7674 17.99 18.9842 17.2666 18.9842 16.5266C18.9829 15.5347 18.5931 14.5837 17.9001 13.8823C17.2071 13.1809 16.2676 12.7863 15.2875 12.785Z" fill="white"/>
<path d="M52.6212 20.0457C51.3599 20.0457 50.1269 19.6671 49.0781 18.9579C48.0294 18.2486 47.212 17.2405 46.7293 16.0611C46.2467 14.8816 46.1204 13.5838 46.3664 12.3317C46.6125 11.0796 47.2199 9.92944 48.1118 9.02673C49.0036 8.12401 50.14 7.50926 51.377 7.2602C52.6141 7.01114 53.8963 7.13897 55.0616 7.62751C56.2269 8.11606 57.2229 8.94338 57.9237 10.0049C58.6244 11.0663 58.9984 12.3143 58.9984 13.5909C58.9964 15.3022 58.3239 16.9428 57.1283 18.1529C55.9328 19.3629 54.3119 20.0436 52.6212 20.0457Z" fill="#252849"/>
<path d="M52.6212 15.5792C53.7069 15.5792 54.5871 14.6883 54.5871 13.5894C54.5871 12.4905 53.7069 11.5996 52.6212 11.5996C51.5354 11.5996 50.6553 12.4905 50.6553 13.5894C50.6553 14.6883 51.5354 15.5792 52.6212 15.5792Z" fill="white"/>
</g>
<defs>
<clipPath id="clip0_89_2100">
<rect width="59" height="32" fill="white"/>
</clipPath>
</defs>
</svg>
