<svg width="72" height="39" viewBox="0 0 72 39" fill="none" xmlns="http://www.w3.org/2000/svg">
<g clip-path="url(#clip0_302_7423)">
<path d="M36.4323 37.6216C36.0248 37.6214 35.6177 37.5967 35.2131 37.5476C32.8501 37.3847 30.6199 36.384 28.9152 34.7219C27.2105 33.0598 26.1408 30.8429 25.8945 28.4617L24.1688 12.4514C24.0245 11.1164 24.1418 9.76569 24.5141 8.47651C24.8864 7.18732 25.5062 5.98491 26.3383 4.93795C27.1704 3.891 28.1985 3.02003 29.3637 2.37479C30.5289 1.72955 31.8084 1.32269 33.1292 1.17746L33.3524 1.1566L33.5737 1.12816L43.2694 0.0606822C43.6351 0.0205693 44.0026 0.000314189 44.3705 6.96267e-06C46.3901 -0.00237517 48.3643 0.606541 50.0386 1.74832C51.7129 2.89009 53.0107 4.51243 53.7648 6.40637C54.5189 8.30031 54.6947 10.3791 54.2697 12.375C53.8447 14.3708 52.8383 16.1923 51.3801 17.6049C53.1786 18.7208 54.5875 20.3768 55.4098 22.3414C56.2321 24.306 56.4268 26.4812 55.9667 28.5632C55.5066 30.6451 54.4147 32.5297 52.8435 33.9539C51.2722 35.378 49.3002 36.2705 47.2028 36.5067L37.4996 37.5647C37.1451 37.6027 36.7889 37.6217 36.4323 37.6216Z" fill="#252849"/>
<path d="M44.8769 14.9826C46.1245 14.8453 47.2671 14.2126 48.0533 13.2237C48.8395 12.2349 49.2049 10.9709 49.0692 9.7097C49.0023 9.08498 48.8144 8.4797 48.516 7.92845C48.2176 7.37721 47.8147 6.89082 47.3302 6.49708C46.8457 6.10334 46.2893 5.80998 45.6926 5.63377C45.0959 5.45756 44.4707 5.40195 43.8527 5.47012L34.1571 6.5376C34.0821 6.5376 34.0089 6.56035 33.9357 6.57173C33.8626 6.5831 33.7876 6.57173 33.7125 6.585C32.4647 6.72284 31.3222 7.35593 30.536 8.34507C29.7499 9.33422 29.3845 10.5985 29.5203 11.8598L31.2459 27.8701C31.3682 29.0027 31.8867 30.0538 32.708 30.8339C33.5293 31.6141 34.5994 32.0719 35.7252 32.1249C36.1195 32.1851 36.5198 32.194 36.9163 32.1514L46.612 31.0839C47.8596 30.9466 49.0021 30.3139 49.7883 29.325C50.5745 28.3362 50.9399 27.0722 50.8042 25.811C50.6683 24.5499 50.0424 23.3949 49.0642 22.6002C48.0859 21.8055 46.8355 21.4361 45.5878 21.5733L40.1482 22.1706L39.4391 15.5799L44.8769 14.9826Z" fill="white"/>
<path d="M18.656 39.0019C14.9658 39.0023 11.3583 37.8965 8.28975 35.8243C5.22123 33.7522 2.8295 30.8068 1.41704 27.3606C0.00458143 23.9144 -0.365175 20.1222 0.354533 16.4636C1.07424 12.8049 2.85109 9.44421 5.46037 6.80639C8.06965 4.16857 11.3942 2.37214 15.0135 1.64426C18.6328 0.916388 22.3844 1.28977 25.7938 2.71719C29.2032 4.14461 32.1173 6.56195 34.1675 9.66351C36.2178 12.7651 37.3121 16.4116 37.3121 20.1418C37.3066 25.1418 35.3394 29.9354 31.8419 33.4711C28.3445 37.0068 23.6024 38.9959 18.656 39.0019Z" fill="#252849"/>
<path d="M18.656 33.5583C16.031 33.5579 13.4651 32.7708 11.2826 31.2963C9.10021 29.8219 7.39931 27.7264 6.39502 25.2748C5.39072 22.8232 5.12815 20.1256 5.64049 17.5232C6.15283 14.9208 7.41708 12.5304 9.27337 10.6542C11.1297 8.77811 13.4946 7.5005 16.0692 6.98297C18.6438 6.46545 21.3124 6.73125 23.7376 7.74677C26.1627 8.76229 28.2355 10.4819 29.6939 12.6882C31.1522 14.8945 31.9306 17.4884 31.9306 20.1418C31.9266 23.6992 30.5267 27.1097 28.0381 29.6249C25.5494 32.1402 22.1753 33.5548 18.656 33.5583ZM18.656 15.5818C17.7638 15.5818 16.8916 15.8492 16.1498 16.3503C15.4079 16.8514 14.8297 17.5635 14.4883 18.3968C14.1469 19.23 14.0575 20.1469 14.2316 21.0314C14.4056 21.916 14.8353 22.7285 15.4662 23.3662C16.0971 24.004 16.9009 24.4383 17.776 24.6142C18.651 24.7902 19.5581 24.6999 20.3824 24.3547C21.2067 24.0096 21.9112 23.4251 22.4069 22.6752C22.9026 21.9253 23.1672 21.0437 23.1672 20.1418C23.1657 18.9329 22.6899 17.7739 21.8443 16.9191C20.9986 16.0642 19.852 15.5833 18.656 15.5818Z" fill="white"/>
<path d="M64.2157 24.4307C62.6765 24.4307 61.1718 23.9693 59.892 23.1049C58.6122 22.2405 57.6147 21.0119 57.0257 19.5744C56.4367 18.137 56.2825 16.5552 56.5828 15.0292C56.8831 13.5032 57.6243 12.1015 58.7127 11.0013C59.8011 9.90114 61.1878 9.15191 62.6974 8.84837C64.2071 8.54483 65.7719 8.70061 67.1939 9.29603C68.616 9.89144 69.8314 10.8997 70.6866 12.1934C71.5417 13.4871 71.9981 15.0081 71.9981 16.564C71.9957 18.6496 71.1749 20.649 69.716 22.1238C68.257 23.5986 66.279 24.4282 64.2157 24.4307Z" fill="#252849"/>
<path d="M64.2157 18.9871C65.5407 18.9871 66.6148 17.9014 66.6148 16.5621C66.6148 15.2227 65.5407 14.137 64.2157 14.137C62.8907 14.137 61.8167 15.2227 61.8167 16.5621C61.8167 17.9014 62.8907 18.9871 64.2157 18.9871Z" fill="white"/>
</g>
<defs>
<clipPath id="clip0_302_7423">
<rect width="72" height="39" fill="white"/>
</clipPath>
</defs>
</svg>
