<svg width="19" height="20" viewBox="0 0 19 20" fill="none" xmlns="http://www.w3.org/2000/svg">
<path fill-rule="evenodd" clip-rule="evenodd" d="M10.9908 0H8.00898C3.6037 0.0211242 0.0352576 3.3994 0 7.57639V15.493H2.34177L16.658 15.493H19V13.2707V7.63885C19 3.43312 15.418 0.0212281 10.9908 0ZM2.34177 13.2707L16.658 13.2707V7.63885C16.658 4.64728 14.1021 2.22213 10.9492 2.22213L8.05053 2.22213C4.89767 2.22213 2.34177 4.64728 2.34177 7.63886L2.34177 13.2707ZM9.50123 20C11.4584 20 13.0469 18.5025 13.0636 16.6492V16.62H5.93869C5.93886 18.4867 7.5338 20 9.50123 20Z" fill="#14142B"/>
</svg>
