<svg width="32" height="39" viewBox="0 0 32 39" fill="none" xmlns="http://www.w3.org/2000/svg">
<path fill-rule="evenodd" clip-rule="evenodd" d="M13 0C9.68629 0 7 2.38103 7 5.31818V15.0682C7 18.0053 9.68629 20.3864 13 20.3864H16V23.0455L4 23.0455V26.5909C4 29.5281 6.68629 31.9091 10 31.9091L16 31.9091V35.4545H13C11.8954 35.4545 11 36.2482 11 37.2273C11 38.2063 11.8954 39 13 39H23C24.1046 39 25 38.2063 25 37.2273C25 36.2482 24.1046 35.4545 23 35.4545H20V31.9091L26 31.9091C28.8995 31.9091 31.3186 30.0861 31.8781 27.6627C31.958 27.3165 32 26.9581 32 26.5909V23.0455L20 23.0455V20.3864H23C26.3137 20.3864 29 18.0053 29 15.0682V5.31818C29 2.38103 26.3137 0 23 0H13Z" fill="#FFC754"/>
<path d="M0 23.0455H28V26.5909C28 29.5281 25.3137 31.9091 22 31.9091H6C2.68629 31.9091 0 29.5281 0 26.5909V23.0455Z" fill="#F7F7FC"/>
<path fill-rule="evenodd" clip-rule="evenodd" d="M16 18.6136C16 17.6346 15.1046 16.8409 14 16.8409C12.8954 16.8409 12 17.6346 12 18.6136V23.0454L0 23.0454V26.5909C0 29.528 2.68629 31.9091 6 31.9091H22C25.3137 31.9091 28 29.528 28 26.5909V23.0454L16 23.0454V18.6136ZM2.5 26.5909V25.2613H25.5V26.5909C25.5 28.3042 23.933 29.6932 22 29.6932H6C4.067 29.6932 2.5 28.3042 2.5 26.5909Z" fill="#A0A3BD"/>
<path d="M3 5.31818C3 2.38103 5.68629 0 9 0H19C22.3137 0 25 2.38103 25 5.31818V15.0682C25 18.0053 22.3137 20.3864 19 20.3864H9C5.68629 20.3864 3 18.0053 3 15.0682V5.31818Z" fill="#F7F7FC"/>
<path fill-rule="evenodd" clip-rule="evenodd" d="M19 2.21591H9C7.067 2.21591 5.5 3.60484 5.5 5.31818V15.0682C5.5 16.7815 7.067 18.1705 9 18.1705H19C20.933 18.1705 22.5 16.7815 22.5 15.0682V5.31818C22.5 3.60484 20.933 2.21591 19 2.21591ZM9 0C5.68629 0 3 2.38103 3 5.31818V15.0682C3 18.0053 5.68629 20.3864 9 20.3864H19C22.3137 20.3864 25 18.0053 25 15.0682V5.31818C25 2.38103 22.3137 0 19 0H9Z" fill="#A0A3BD"/>
<path fill-rule="evenodd" clip-rule="evenodd" d="M16 31.9091C16 30.93 15.1046 30.1364 14 30.1364C12.8954 30.1364 12 30.93 12 31.9091V35.4545L9 35.4545C7.89543 35.4545 7 36.2482 7 37.2273C7 38.2063 7.89543 39 9 39H19C20.1046 39 21 38.2063 21 37.2273C21 36.2482 20.1046 35.4545 19 35.4545L16 35.4545V31.9091Z" fill="#A0A3BD"/>
<path d="M11 1.77272C11 1.28319 11.4477 0.886353 12 0.886353H16C16.5523 0.886353 17 1.28319 17 1.77272V5.31817C17 5.8077 16.5523 6.20453 16 6.20453H12C11.4477 6.20453 11 5.8077 11 5.31817V1.77272Z" fill="#A0A3BD"/>
<path fill-rule="evenodd" clip-rule="evenodd" d="M16 1.77272H12L12 5.31817H16V1.77272ZM12 0.886353C11.4477 0.886353 11 1.28319 11 1.77272V5.31817C11 5.8077 11.4477 6.20453 12 6.20453H16C16.5523 6.20453 17 5.8077 17 5.31817V1.77272C17 1.28319 16.5523 0.886353 16 0.886353H12Z" fill="#A0A3BD"/>
</svg>
