<svg width="42" height="31" viewBox="0 0 42 31" fill="none" xmlns="http://www.w3.org/2000/svg">
<rect x="3.07315" y="3.07318" width="38.9268" height="27.6585" rx="4" fill="#FFC754"/>
<rect x="1.5" y="1.5" width="35.9268" height="24.6585" rx="2.5" fill="#F7F7FC" stroke="#A0A3BD" stroke-width="3"/>
<path fill-rule="evenodd" clip-rule="evenodd" d="M7.72036 8.23996C7.72036 8.23996 7.85284 8.2196 7.93818 8.21049C8.26155 8.17593 8.77071 8.21049 8.77071 8.21049C9.2305 8.21049 9.60323 8.59211 9.60323 9.06286V15.8819H10.4358C10.8956 15.8819 11.2683 16.2635 11.2683 16.7343V17.5867C11.2683 18.0574 10.8956 18.439 10.4358 18.439H6.27312C5.81333 18.439 5.4406 18.0574 5.4406 17.5867L5.4406 16.7343C5.4406 16.2635 5.81333 15.8819 6.27313 15.8819H7.10565V11.9157C6.64243 12.2614 5.9911 12.2444 5.54381 11.8397C5.02701 11.3721 4.97829 10.5641 5.435 10.0349L6.62091 8.66096C6.90663 8.32993 7.72036 8.23996 7.72036 8.23996Z" fill="#A0A3BD"/>
<path fill-rule="evenodd" clip-rule="evenodd" d="M16.3903 10.2439H14.3415L14.3415 16.3903H16.3903V10.2439ZM14.3415 8.19513C13.21 8.19513 12.2927 9.1124 12.2927 10.2439V16.3903C12.2927 17.5218 13.21 18.439 14.3415 18.439H16.3903C17.5218 18.439 18.439 17.5218 18.439 16.3903V10.2439C18.439 9.1124 17.5218 8.19513 16.3903 8.19513H14.3415Z" fill="#A0A3BD"/>
<path fill-rule="evenodd" clip-rule="evenodd" d="M23.561 10.2439H21.5122L21.5122 16.3903H23.561V10.2439ZM21.5122 8.19513C20.3807 8.19513 19.4634 9.1124 19.4634 10.2439V16.3903C19.4634 17.5218 20.3807 18.439 21.5122 18.439H23.561C24.6925 18.439 25.6098 17.5218 25.6098 16.3903V10.2439C25.6098 9.1124 24.6925 8.19513 23.561 8.19513H21.5122Z" fill="#A0A3BD"/>
<path fill-rule="evenodd" clip-rule="evenodd" d="M30.7317 10.2439H28.683L28.683 16.3903H30.7317V10.2439ZM28.683 8.19513C27.5514 8.19513 26.6342 9.1124 26.6342 10.2439V16.3903C26.6342 17.5218 27.5514 18.439 28.683 18.439H30.7317C31.8632 18.439 32.7805 17.5218 32.7805 16.3903V10.2439C32.7805 9.1124 31.8632 8.19513 30.7317 8.19513H28.683Z" fill="#A0A3BD"/>
</svg>
